<?xml version="1.0" encoding="utf-8"?>
<!-- Generator: Adobe Illustrator 21.0.0, SVG Export Plug-In . SVG Version: 6.00 Build 0)  -->
<svg version="1.1" id="Layer_1" xmlns="http://www.w3.org/2000/svg" xmlns:xlink="http://www.w3.org/1999/xlink" x="0px" y="0px"
	 viewBox="0 0 172.6 101.5" style="enable-background:new 0 0 172.6 101.5;" xml:space="preserve">
<style type="text/css">
	.st0{fill:#0C75BC;}
	.st1{fill:#E21E26;}
</style>
<path class="st0" d="M168.7,9.8c-6.7-13.5-49-6.1-94.5,16.5C28.6,48.9-2.8,78.2,3.9,91.7s49,6.1,94.5-16.5S175.4,23.3,168.7,9.8z
	 M96.6,71.5C57.9,90.8,21.8,97.1,16.1,85.6s21.1-36.4,59.8-55.7s74.8-25.5,80.5-14.1C162.2,27.4,135.4,52.3,96.6,71.5z"/>
<path d="M32.5,45.6"/>
<path d="M60.6,49.5"/>
<g>
	<path d="M108,34.9c0.5-2.3,1.1-5.2,1.6-7.5c9,0,18.1,0,27.1,0c-0.6,2.5-1.1,4.9-1.7,7.5c-0.3,0-0.5,0-0.8,0c-2.5,0-5.8,0-8.3,0
		l-0.2,0.6c-1,4.4-2,8.7-2.9,13c-0.6,2.6-1.1,5.3-1.7,7.9c0,0.2-0.1,0.4-0.1,0.6c-3,0-6,0-9.1,0c1.6-7.4,3.3-14.7,4.9-22.1
		C113.9,34.9,110.9,34.9,108,34.9"/>
	<path d="M21.2,57.1c1.6-10,3.2-19.8,4.9-29.8c0.2,0,0.5,0,0.7,0c5.5,0,10.9,0,16.4,0c1.6,0,3.2,0.2,4.6,0.9
		c2.7,1.4,3.9,4.3,2.9,7.5c-0.7,2.3-2.2,4-4.4,5c-0.3,0.1-0.6,0.3-1,0.5c0.5,0.2,1,0.4,1.5,0.6c2.3,1,3.3,2.9,3.3,5.3
		c-0.1,4-2.1,7-5.7,8.6c-1.5,0.7-3.3,0.8-5,1s-3.4,0.2-5.1,0.2C30.2,57,26,57,21.9,57C21.8,57.1,21.5,57.1,21.2,57.1z M31.7,50.5
		c1.9,0,3.8,0.1,5.6,0c0.8-0.1,1.7-0.4,2.4-0.8c1.1-0.7,1.5-1.9,1.2-3.2c-0.2-1.1-1.1-1.5-2.1-1.6c-1.9-0.1-4.2-0.1-6.1-0.1v0.3
		C32.3,46.9,32,48.7,31.7,50.5z M33.6,39.1c0.3,0,4.1,0.2,6,0c0.5-0.1,1.1-0.5,1.4-0.9c0.8-0.8,0.9-2.3,0.6-3.4
		c-0.3-1-1.3-1.2-2.2-1.3c-1.6-0.1-3.2,0-4.9,0C34.2,35.3,33.9,37.1,33.6,39.1z"/>
	<path d="M103,27.7c-1.1-0.3-2.2-0.4-3.3-0.4c-4.9,0-9.8,0-14.8,0c-0.2,0-0.5,0-0.7,0c-2.3,9.9-4.6,19.8-6.9,29.7c3.2,0,6.4,0,9.6,0
		c0.6-2.6,1.2-5.2,1.7-7.8c0.2-0.9,0.2-1,0.2-1c2.3,0,5.5,0,7.7-0.2c2.4-0.2,4.7-1.1,6.5-2.7c3.5-3.1,5-7,4.9-11.6
		C108,30.5,106.1,28.6,103,27.7z M98.1,38.2c-0.6,1.8-1.9,2.8-3.8,3c-1.3,0.1-2.6,0.1-4,0.2c0.2-0.7,0.3-1.2,0.4-1.7
		c0.4-1.7,0.7-3.5,1.1-5.2c0-0.2,0.1-0.4,0.1-0.4c0.8,0,1.8,0,2.7,0c0.1,0,0.1,0,0.2,0c0.3,0,0.5,0,0.7,0
		C98.3,34.3,98.8,36.4,98.1,38.2z"/>
	<polygon class="st1" points="31.7,50.5 22.3,50.5 21.2,57.1 30.7,57.1 	"/>
	<path d="M75.1,27.7c-1.1-0.3-2.2-0.4-3.3-0.4c-4.9,0-9.8,0-14.8,0c-0.2,0-0.5,0-0.7,0C54,37.2,51.7,47.1,49.4,57c3.2,0,6.4,0,9.6,0
		c0.6-2.6,1.2-5.2,1.7-7.8c0.2-0.9,0.2-1,0.2-1c2.3,0,5.5,0,7.7-0.2c2.4-0.2,4.7-1.1,6.5-2.7c3.5-3.1,5-7,4.9-11.6
		C80.1,30.5,78.2,28.6,75.1,27.7z M70.3,38.2c-0.6,1.8-1.9,2.8-3.8,3c-1.3,0.1-2.6,0.1-4,0.2c0.2-0.7,0.3-1.2,0.4-1.7
		c0.4-1.7,0.7-3.5,1.1-5.2c0-0.2,0.1-0.4,0.1-0.4c0.8,0,1.8,0,2.7,0c0.1,0,0.1,0,0.2,0c0.3,0,0.5,0,0.7,0
		C70.4,34.3,70.9,36.4,70.3,38.2z"/>
	<polygon class="st0" points="50.9,50.5 60.4,50.5 59,57 49.4,57 	"/>
	<polygon class="st1" points="78.8,50.5 88.3,50.5 86.8,57 77.2,57 	"/>
	<polygon class="st0" points="113.4,50.5 122.4,50.5 121.1,57 112,57 	"/>
</g>
</svg>
