<?xml version="1.0" standalone="no"?>
<!DOCTYPE svg PUBLIC "-//W3C//DTD SVG 1.1//EN" "http://www.w3.org/Graphics/SVG/1.1/DTD/svg11.dtd" >
<svg xmlns="http://www.w3.org/2000/svg" xmlns:xlink="http://www.w3.org/1999/xlink" version="1.1">
<metadata>
Created by FontForge 20190801 at Mon Sep  3 19:58:46 2018
 By Jimmy Wärting
</metadata>
<defs>
<font id="ProductSans-Thin" horiz-adv-x="528" >
  <font-face 
    font-family="Product Sans Thin"
    font-weight="250"
    font-stretch="normal"
    units-per-em="1000"
    panose-1="2 11 2 3 3 5 2 4 2 3"
    ascent="800"
    descent="-200"
    x-height="490"
    cap-height="716"
    bbox="-152 -253 3284 956"
    underline-thickness="50"
    underline-position="-250"
    unicode-range="U+000D-2215"
  />
<missing-glyph horiz-adv-x="562" 
d="M82 716h398v-716h-398v716zM118 34h326v648h-326v-648z" />
    <glyph glyph-name="f_i" unicode="fi" horiz-adv-x="478" 
d="M246 724q26 0 45 -7t30 -15l-10 -31q-11 8 -28.5 14.5t-35.5 6.5q-38 0 -65 -28t-27 -79v-95h256v-490h-36v458h-220v-458h-36v458h-92v32h92v98q0 35 11.5 61t30 42.5t41 24.5t44.5 8zM393 625q-14 0 -24 10t-10 24t10 24t24 10t24 -10t10 -24t-10 -24t-24 -10z" />
    <glyph glyph-name="f_l" unicode="fl" horiz-adv-x="474" 
d="M375 0v688h-119q-45 0 -73 -28t-28 -79v-91h128v-32h-128v-458h-36v458h-92v32h92v90q0 33 11 59t29.5 44t43.5 27.5t53 9.5h155v-720h-36z" />
    <glyph glyph-name="f_b" unicode="fb" horiz-adv-x="874" 
d="M375 688h-119q-45 0 -73 -28t-28 -79v-91h128v-32h-128v-458h-36v458h-92v32h92v90q0 33 11 59t29.5 44t43.5 27.5t53 9.5h155v-265l-4 -68h4q13 24 31 45.5t42.5 38t56.5 26t73 9.5q47 0 89 -19t73 -53.5t49 -82.5t18 -106t-18 -106t-49 -82.5t-73 -53.5t-89 -19
q-41 0 -73 9.5t-56.5 26t-42.5 38t-31 45.5h-4v-103h-32v688zM607 16q40 0 76 16t63.5 45.5t44 72t16.5 95.5t-16.5 95.5t-44 72t-63.5 45.5t-76 16t-76 -15.5t-63.5 -44.5t-44 -72t-16.5 -97t16.5 -97t44 -72t63.5 -44.5t76 -15.5z" />
    <glyph glyph-name="f_f" unicode="ff" horiz-adv-x="582" 
d="M502 724q26 0 45 -7t30 -15l-10 -31q-11 8 -28.5 14.5t-35.5 6.5q-38 0 -65 -28t-27 -79v-95h128v-32h-128v-458h-36v458h-220v-458h-36v458h-92v32h92v98q0 35 11.5 61t30 42.5t41 24.5t44.5 8q26 0 45 -7t30 -15l-10 -31q-11 8 -28.5 14.5t-35.5 6.5q-38 0 -65 -28
t-27 -79v-95h220v98q0 35 11.5 61t30 42.5t41 24.5t44.5 8z" />
    <glyph glyph-name="f_f_b" unicode="ffb" horiz-adv-x="1130" 
d="M246 724q26 0 45 -7t30 -15l-10 -31q-11 8 -28.5 14.5t-35.5 6.5q-38 0 -65 -28t-27 -79v-95h220v90q0 33 11 59t29.5 44t43.5 27.5t53 9.5h155v-265l-4 -68h4q13 24 31 45.5t42.5 38t56.5 26t73 9.5q47 0 89 -19t73 -53.5t49 -82.5t18 -106t-18 -106t-49 -82.5
t-73 -53.5t-89 -19q-41 0 -73 9.5t-56.5 26t-42.5 38t-31 45.5h-4v-103h-32v688h-119q-45 0 -73 -28t-28 -79v-91h128v-32h-128v-458h-36v458h-220v-458h-36v458h-92v32h92v98q0 35 11.5 61t30 42.5t41 24.5t44.5 8zM863 16q40 0 76 16t63.5 45.5t44 72t16.5 95.5
t-16.5 95.5t-44 72t-63.5 45.5t-76 16t-76 -15.5t-63.5 -44.5t-44 -72t-16.5 -97t16.5 -97t44 -72t63.5 -44.5t76 -15.5z" />
    <glyph glyph-name="f_f_h" unicode="ffh" horiz-adv-x="1096" 
d="M246 724q26 0 45 -7t30 -15l-10 -31q-11 8 -28.5 14.5t-35.5 6.5q-38 0 -65 -28t-27 -79v-95h220v90q0 33 11 59t29.5 44t43.5 27.5t53 9.5h155v-263l-4 -88h4q27 63 75 100t123 37q44 0 76.5 -15t53.5 -42t31.5 -63.5t10.5 -79.5v-306h-36v298q0 81 -35 128.5t-109 47.5
q-39 0 -73.5 -18t-60.5 -49t-41 -72.5t-15 -88.5v-246h-36v688h-119q-45 0 -73 -28t-28 -79v-91h128v-32h-128v-458h-36v458h-220v-458h-36v458h-92v32h92v98q0 35 11.5 61t30 42.5t41 24.5t44.5 8z" />
    <glyph glyph-name="f_f_i" unicode="ffi" horiz-adv-x="734" 
d="M502 724q26 0 45 -7t30 -15l-10 -31q-11 8 -28.5 14.5t-35.5 6.5q-38 0 -65 -28t-27 -79v-95h256v-490h-36v458h-220v-458h-36v458h-220v-458h-36v458h-92v32h92v98q0 35 11.5 61t30 42.5t41 24.5t44.5 8q26 0 45 -7t30 -15l-10 -31q-11 8 -28.5 14.5t-35.5 6.5
q-38 0 -65 -28t-27 -79v-95h220v98q0 35 11.5 61t30 42.5t41 24.5t44.5 8zM649 625q-14 0 -24 10t-10 24t10 24t24 10t24 -10t10 -24t-10 -24t-24 -10z" />
    <glyph glyph-name="f_f_j" unicode="ffj" horiz-adv-x="734" 
d="M569 -226q-13 0 -25.5 3t-19.5 7l9 30q14 -8 35 -8q31 0 47 22.5t16 62.5v567h-220v-458h-36v458h-220v-458h-36v458h-92v32h92v98q0 35 11.5 61t30 42.5t41 24.5t44.5 8q26 0 45 -7t30 -15l-10 -31q-11 8 -28.5 14.5t-35.5 6.5q-38 0 -65 -28t-27 -79v-95h220v98
q0 35 10.5 61t27 42.5t37.5 24.5t42 8q25 0 43 -7t29 -15l-10 -31q-17 11 -30.5 16t-30.5 5q-36 0 -59 -27t-23 -75v-100h256v-601q0 -51 -23.5 -83t-74.5 -32zM649 625q-14 0 -24 10t-10 24t10 24t24 10t24 -10t10 -24t-10 -24t-24 -10z" />
    <glyph glyph-name="f_f_k" unicode="ffk" horiz-adv-x="1023" 
d="M246 724q26 0 45 -7t30 -15l-10 -31q-11 8 -28.5 14.5t-35.5 6.5q-38 0 -65 -28t-27 -79v-95h220v90q0 33 11 59t29.5 44t43.5 27.5t53 9.5h155v-514l284 284h44v-4l-177 -179l205 -303v-4h-40l-191 281l-125 -125v-156h-36v688h-119q-45 0 -73 -28t-28 -79v-91h128v-32
h-128v-458h-36v458h-220v-458h-36v458h-92v32h92v98q0 35 11.5 61t30 42.5t41 24.5t44.5 8z" />
    <glyph glyph-name="f_f_l" unicode="ffl" horiz-adv-x="730" 
d="M631 0v688h-119q-45 0 -73 -28t-28 -79v-91h128v-32h-128v-458h-36v458h-220v-458h-36v458h-92v32h92v98q0 35 11.5 61t30 42.5t41 24.5t44.5 8q26 0 45 -7t30 -15l-10 -31q-11 8 -28.5 14.5t-35.5 6.5q-38 0 -65 -28t-27 -79v-95h220v90q0 33 11 59t29.5 44t43.5 27.5
t53 9.5h155v-720h-36z" />
    <glyph glyph-name="f_f_t" unicode="fft" horiz-adv-x="833" 
d="M631 458h-220v-458h-36v458h-220v-458h-36v458h-92v32h92v98q0 35 11.5 61t30 42.5t41 24.5t44.5 8q26 0 45 -7t30 -15l-10 -31q-11 8 -28.5 14.5t-35.5 6.5q-38 0 -65 -28t-27 -79v-95h220v98q0 35 11.5 61t30 42.5t41 24.5t44.5 8q26 0 45 -7t30 -15l-10 -31
q-11 8 -28.5 14.5t-35.5 6.5q-38 0 -65 -28t-27 -79v-95h220v150h36v-150h124v-32h-124v-347q0 -23 7.5 -39t19.5 -27q22 -21 53 -21q14 0 26.5 2.5t26.5 10.5l11 -29q-14 -8 -30 -12t-37 -4q-20 0 -39.5 6.5t-36.5 20.5t-27 37.5t-10 58.5v343z" />
    <glyph glyph-name="f_h" unicode="fh" horiz-adv-x="840" 
d="M375 688h-119q-45 0 -73 -28t-28 -79v-91h128v-32h-128v-458h-36v458h-92v32h92v90q0 33 11 59t29.5 44t43.5 27.5t53 9.5h155v-263l-4 -88h4q27 63 75 100t123 37q44 0 76.5 -15t53.5 -42t31.5 -63.5t10.5 -79.5v-306h-36v298q0 81 -35 128.5t-109 47.5q-39 0 -73.5 -18
t-60.5 -49t-41 -72.5t-15 -88.5v-246h-36v688z" />
    <glyph glyph-name="f_j" unicode="fj" horiz-adv-x="478" 
d="M313 -226q-13 0 -25.5 3t-19.5 7l9 30q14 -8 35 -8q31 0 47 22.5t16 62.5v567h-220v-458h-36v458h-92v32h92v98q0 35 10.5 61t27 42.5t37.5 24.5t42 8q25 0 43 -7t29 -15l-10 -31q-17 11 -30.5 16t-30.5 5q-36 0 -59 -27t-23 -75v-100h256v-601q0 -51 -23.5 -83
t-74.5 -32zM393 625q-14 0 -24 10t-10 24t10 24t24 10t24 -10t10 -24t-10 -24t-24 -10z" />
    <glyph glyph-name="f_k" unicode="fk" horiz-adv-x="767" 
d="M375 688h-119q-45 0 -73 -28t-28 -79v-91h128v-32h-128v-458h-36v458h-92v32h92v90q0 33 11 59t29.5 44t43.5 27.5t53 9.5h155v-514l284 284h44v-4l-177 -179l205 -303v-4h-40l-191 281l-125 -125v-156h-36v688z" />
    <glyph glyph-name="f_t" unicode="ft" horiz-adv-x="577" 
d="M375 458h-220v-458h-36v458h-92v32h92v98q0 35 11.5 61t30 42.5t41 24.5t44.5 8q26 0 45 -7t30 -15l-10 -31q-11 8 -28.5 14.5t-35.5 6.5q-38 0 -65 -28t-27 -79v-95h220v150h36v-150h124v-32h-124v-347q0 -23 7.5 -39t19.5 -27q22 -21 53 -21q14 0 26.5 2.5t26.5 10.5
l11 -29q-14 -8 -30 -12t-37 -4q-20 0 -39.5 6.5t-36.5 20.5t-27 37.5t-10 58.5v343z" />
    <glyph glyph-name="r_f" unicode="rf" horiz-adv-x="631" 
d="M268 468q-12 2 -22 3t-21 1q-26 0 -48.5 -14.5t-40 -40t-27.5 -60.5t-10 -77v-280h-36v490h32v-87h4q17 45 50 73t80 28q19 0 39 -4v-32zM551 724q26 0 45 -7t30 -15l-10 -31q-11 8 -28.5 14.5t-35.5 6.5q-38 0 -65 -28t-27 -79v-95h128v-32h-128v-458h-36v458h-92v32h92
v98q0 35 11.5 61t30 42.5t41 24.5t44.5 8z" />
    <glyph glyph-name="r_f_f" unicode="rff" horiz-adv-x="888" 
d="M808 724q26 0 45 -7t30 -15l-10 -31q-11 8 -28.5 14.5t-35.5 6.5q-38 0 -65 -28t-27 -79v-95h128v-32h-128v-458h-36v458h-220v-458h-36v458h-92v32h92v98q0 35 11.5 61t30 42.5t41 24.5t44.5 8q26 0 45 -7t30 -15l-10 -31q-11 8 -28.5 14.5t-35.5 6.5q-38 0 -65 -28
t-27 -79v-95h220v98q0 35 11.5 61t30 42.5t41 24.5t44.5 8zM268 468q-12 2 -22 3t-21 1q-26 0 -48.5 -14.5t-40 -40t-27.5 -60.5t-10 -77v-280h-36v490h32v-87h4q17 45 50 73t80 28q19 0 39 -4v-32z" />
    <glyph glyph-name="r_t" unicode="rt" horiz-adv-x="627" 
d="M425 458h-92v32h92v150h36v-150h124v-32h-124v-347q0 -23 7.5 -39t19.5 -27q22 -21 53 -21q14 0 26.5 2.5t26.5 10.5l11 -29q-14 -8 -30 -12t-37 -4q-20 0 -39.5 6.5t-36.5 20.5t-27 37.5t-10 58.5v343zM268 468q-12 2 -22 3t-21 1q-26 0 -48.5 -14.5t-40 -40
t-27.5 -60.5t-10 -77v-280h-36v490h32v-87h4q17 45 50 73t80 28q19 0 39 -4v-32z" />
    <glyph glyph-name="t_f" unicode="tf" horiz-adv-x="582" 
d="M155 111q0 -23 7.5 -39t19.5 -27q22 -21 53 -21q14 0 26.5 2.5t26.5 10.5l11 -29q-14 -8 -30 -12t-37 -4q-20 0 -39.5 6.5t-36.5 20.5t-27 37.5t-10 58.5v343h-92v32h92v150h36v-150h220v98q0 35 11.5 61t30 42.5t41 24.5t44.5 8q26 0 45 -7t30 -15l-10 -31
q-11 8 -28.5 14.5t-35.5 6.5q-38 0 -65 -28t-27 -79v-95h128v-32h-128v-458h-36v458h-220v-347z" />
    <glyph glyph-name="t_t" unicode="tt" horiz-adv-x="577" 
d="M375 458h-220v-347q0 -23 7.5 -39t19.5 -27q22 -21 53 -21q14 0 26.5 2.5t26.5 10.5l11 -29q-14 -8 -30 -12t-37 -4q-20 0 -39.5 6.5t-36.5 20.5t-27 37.5t-10 58.5v343h-92v32h92v150h36v-150h220v150h36v-150h124v-32h-124v-347q0 -23 7.5 -39t19.5 -27q22 -21 53 -21
q14 0 26.5 2.5t26.5 10.5l11 -29q-14 -8 -30 -12t-37 -4q-20 0 -39.5 6.5t-36.5 20.5t-27 37.5t-10 58.5v343z" />
    <glyph glyph-name=".notdef" horiz-adv-x="562" 
d="M82 716h398v-716h-398v716zM118 34h326v648h-326v-648z" />
    <glyph glyph-name=".null" horiz-adv-x="0" 
 />
    <glyph glyph-name="uni000D" horiz-adv-x="0" 
d="M0 0z" />
    <glyph glyph-name="NULL" horiz-adv-x="0" 
d="M0 0z" />
    <glyph glyph-name="NULL" horiz-adv-x="0" 
d="M0 0z" />
    <glyph glyph-name="nonmarkingreturn" unicode="&#xd;" horiz-adv-x="333" 
 />
    <glyph glyph-name="space" unicode=" " horiz-adv-x="250" 
d="M0 0z" />
    <glyph glyph-name="exclam" unicode="!" horiz-adv-x="178" 
d="M89 -6q-15 0 -25 10t-10 25t10 25t25 10t25 -10t10 -25t-10 -25t-25 -10zM71 360v356h36v-356l-8 -218h-20z" />
    <glyph glyph-name="quotedbl" unicode="&#x22;" horiz-adv-x="242" 
d="M160 530v186h32v-186h-32zM50 530v186h32v-186h-32z" />
    <glyph glyph-name="numbersign" unicode="#" horiz-adv-x="598" 
d="M121 0l33 223h-128l7 32h126l27 183h-124l6 32h123l32 214h36l-32 -214h180l32 214h36l-32 -214h128l-6 -32h-127l-27 -183h125l-6 -32h-124l-33 -223h-36l33 223h-180l-33 -223h-36zM195 255h180l27 183h-180z" />
    <glyph glyph-name="dollar" unicode="$" horiz-adv-x="517" 
d="M247 -15q-34 2 -68 14.5t-63.5 35t-52.5 54t-36 71.5l33 15q22 -68 73 -110.5t114 -47.5v320q-42 17 -76.5 35.5t-59 41t-38.5 51.5t-14 68q0 34 13.5 63.5t38.5 52t59.5 36t76.5 15.5v84h32v-85q39 -3 68 -16t50 -32t35 -41.5t23 -44.5l-33 -13q-8 21 -20 40t-29.5 34
t-40.5 25.5t-53 13.5v-303q41 -17 76.5 -36t61.5 -43t40.5 -53t14.5 -65q0 -44 -16 -76.5t-42.5 -55t-61.5 -34.5t-73 -14v-85h-32v85zM436 162q0 30 -11.5 53t-32 42t-49.5 35.5t-64 31.5v-307q69 6 113 43t44 102zM95 534q0 -60 40 -95.5t112 -64.5v292
q-32 -2 -59.5 -11.5t-48 -27t-32.5 -41t-12 -52.5z" />
    <glyph glyph-name="percent" unicode="%" horiz-adv-x="806" 
d="M166 20l445 662l29 -19l-445 -662zM199 358q-36 0 -66 14t-51.5 37t-33.5 54t-12 66q0 34 12 65.5t33.5 54.5t51.5 37t66 14t66 -14t51.5 -37t33.5 -54.5t12 -65.5q0 -35 -12 -66t-33.5 -54t-51.5 -37t-66 -14zM199 388q28 0 52 10.5t41.5 29.5t27.5 45t10 56t-10 56
t-27.5 45t-41.5 29.5t-52 10.5t-52 -10.5t-41.5 -29.5t-27.5 -45t-10 -56t10 -56t27.5 -45t41.5 -29.5t52 -10.5zM607 -16q-36 0 -66 14t-51.5 37t-33.5 54t-12 66q0 34 12 65.5t33.5 54.5t51.5 37t66 14t66 -14t51.5 -37t33.5 -54.5t12 -65.5q0 -35 -12 -66t-33.5 -54
t-51.5 -37t-66 -14zM607 14q28 0 52 10.5t41.5 29.5t27.5 45t10 56t-10 56t-27.5 45t-41.5 29.5t-52 10.5t-52 -10.5t-41.5 -29.5t-27.5 -45t-10 -56t10 -56t27.5 -45t41.5 -29.5t52 -10.5z" />
    <glyph glyph-name="ampersand" unicode="&#x26;" horiz-adv-x="590" 
d="M477 103l74 -97l-29 -22l-66 87q-35 -45 -77.5 -66t-96.5 -21t-98 19t-76 52t-49.5 76.5t-17.5 91.5q0 35 10.5 67t28.5 59t42.5 49.5t52.5 39.5l-9 12q-23 30 -37 60.5t-14 70.5q0 30 11 57.5t31.5 48.5t48.5 33t62 12q31 0 55.5 -10t43 -27t31 -39t19.5 -47l-31 -16
q-12 42 -41.5 73.5t-76.5 31.5q-27 0 -49 -9.5t-37 -25.5t-23 -37t-8 -44q0 -27 10.5 -53.5t27.5 -49.5l264 -346l84 154l30 -18zM284 18q48 0 85 21t64 61l-237 311q-23 -13 -44.5 -32t-38 -42t-26.5 -50t-10 -57q0 -45 15.5 -83.5t43 -67t65.5 -45t83 -16.5z" />
    <glyph glyph-name="quotesingle" unicode="'" horiz-adv-x="132" 
d="M50 530v186h32v-186h-32z" />
    <glyph glyph-name="parenleft" unicode="(" horiz-adv-x="299" 
d="M250 -136q-30 34 -61.5 81.5t-57.5 105.5t-42.5 126t-16.5 145t16.5 145t42.5 126t57.5 105t61.5 82l27 -20q-33 -38 -64 -84.5t-54.5 -101t-38 -118t-14.5 -134.5t14.5 -134.5t38 -118t54.5 -101t64 -84.5z" />
    <glyph glyph-name="parenright" unicode=")" horiz-adv-x="299" 
d="M22 -116q33 38 64 84.5t54.5 101t38 118t14.5 134.5t-14.5 134.5t-38 118t-54.5 101t-64 84.5l27 20q30 -35 61.5 -82t57.5 -105t42.5 -126t16.5 -145t-16.5 -145t-42.5 -126t-57.5 -105.5t-61.5 -81.5z" />
    <glyph glyph-name="asterisk" unicode="*" horiz-adv-x="390" 
d="M57 631l110 -38l10 5v118h36v-118l10 -6l110 39l12 -34l-113 -39l-3 -11l73 -100l-30 -21l-72 99h-11l-71 -99l-30 21l73 100l-4 11l-112 39z" />
    <glyph glyph-name="plus" unicode="+" horiz-adv-x="538" 
d="M285 477v-190h190v-32h-190v-190h-32v190h-190v32h190v190h32z" />
    <glyph glyph-name="comma" unicode="," horiz-adv-x="201" 
d="M50 -79l48 77q-9 4 -15 12.5t-6 18.5q0 15 10 25t25 10t25 -10t10 -25q0 -8 -2 -12.5t-7 -12.5l-65 -98z" />
    <glyph glyph-name="hyphen" unicode="-" horiz-adv-x="426" 
d="M63 326h300v-32h-300v32z" />
    <glyph glyph-name="period" unicode="." horiz-adv-x="178" 
d="M89 -6q-15 0 -25 10t-10 25t10 25t25 10t25 -10t10 -25t-10 -25t-25 -10z" />
    <glyph glyph-name="slash" unicode="/" horiz-adv-x="393" 
d="M30 0l297 716h36l-297 -716h-36z" />
    <glyph glyph-name="zero" unicode="0" horiz-adv-x="622" 
d="M311 -16q-61 0 -109.5 27.5t-82 75.5t-51.5 113.5t-18 141.5t18 141.5t51.5 113.5t82 75.5t109.5 27.5t109 -27.5t82 -75.5t52 -113.5t18 -141.5t-18 -141.5t-52 -113.5t-82 -75.5t-109 -27.5zM311 18q52 0 93.5 24.5t70.5 68t45 103t16 128.5t-16 128t-45 102.5
t-70.5 68.5t-93.5 25t-93.5 -25t-71 -68.5t-45 -102.5t-15.5 -128t15.5 -128.5t45 -103t71 -68t93.5 -24.5z" />
    <glyph glyph-name="one" unicode="1" horiz-adv-x="318" 
d="M187 0v639l-126 -66l-16 29l155 82h23v-684h-36z" />
    <glyph glyph-name="two" unicode="2" horiz-adv-x="503" 
d="M45 0v38q50 49 97 97q20 20 41 41.5t41.5 42.5t39 40.5t33.5 35.5q31 34 52 60.5t34.5 50t19.5 47.5t6 53t-9.5 58t-29.5 51.5t-51 36.5t-74 14q-38 0 -65.5 -12.5t-46.5 -31.5t-30.5 -41.5t-17.5 -43.5l-34 14q6 21 20 47t38 48.5t58 38t81 15.5q48 0 84.5 -16
t61.5 -42.5t38 -61.5t13 -72q0 -35 -8.5 -65.5t-24 -58.5t-37.5 -55t-50 -55q-11 -11 -26 -27q-16 -17 -34.5 -35.5l-39 -39t-39.5 -40.5q-46 -47 -96 -98h363v-34h-408z" />
    <glyph glyph-name="three" unicode="3" horiz-adv-x="509" 
d="M247 -16q-32 0 -64.5 9.5t-60 30t-49 52.5t-32.5 77l32 13q19 -72 66.5 -110t107.5 -38q40 0 73.5 13t57.5 35.5t37 54t13 69.5q0 34 -13 63t-37 50t-56.5 33t-71.5 12h-57v34h62q31 0 58 9.5t47.5 27.5t32 44.5t11.5 59.5q0 28 -11.5 54t-32 46t-49 31.5t-62.5 11.5
q-35 0 -62 -11t-46.5 -28t-32 -39t-18.5 -43l-31 14q7 24 22 49t39 45.5t56 33.5t73 13q42 0 77.5 -13.5t60.5 -37.5t39 -56t14 -68q0 -32 -9 -57.5t-24 -44.5t-35 -32.5t-41 -22.5v-4q57 -19 95 -63t38 -109q0 -46 -17 -84t-46.5 -65.5t-69 -43t-84.5 -15.5z" />
    <glyph glyph-name="four" unicode="4" horiz-adv-x="568" 
d="M394 0v170h-349v18l341 496h44v-480h88v-34h-88v-170h-36zM394 630h-4l-293 -426h297v426z" />
    <glyph glyph-name="five" unicode="5" horiz-adv-x="545" 
d="M263 -16q-76 0 -135.5 45.5t-82.5 137.5l33 12q22 -85 69.5 -123t113.5 -38q45 0 81 14t61 40t38.5 61.5t13.5 79.5q0 42 -13.5 77.5t-37.5 61t-58.5 40t-76.5 14.5q-43 0 -84 -19.5t-67 -56.5l-45 20l45 334h325v-34h-295l-41 -280l4 -2q27 32 69.5 52t94.5 20
q45 0 84.5 -17t69 -47t46 -71.5t16.5 -90.5q0 -48 -16 -90t-46 -73t-72 -49t-94 -18z" />
    <glyph glyph-name="six" unicode="6" horiz-adv-x="547" 
d="M282 434q44 0 84 -16.5t70 -46.5t48 -71t18 -89q0 -45 -17 -86.5t-47.5 -72.5t-72.5 -49.5t-91 -18.5q-54 0 -96.5 19.5t-72 52t-45 73.5t-15.5 84q0 30 7 58t19 54.5t28 51.5t33 51l182 272l29 -21l-194 -284l2 -2q25 19 60.5 30t70.5 11zM274 18q40 0 75 14.5t61 40.5
t41 61t15 76q0 40 -15 75t-41 60.5t-61 40t-75 14.5t-75 -14.5t-61 -40t-41 -60.5t-15 -75q0 -41 15 -76t40.5 -61t60.5 -40.5t76 -14.5z" />
    <glyph glyph-name="seven" unicode="7" horiz-adv-x="509" 
d="M101 0l328 650h-384l2 34h417v-38l-332 -662z" />
    <glyph glyph-name="eight" unicode="8" horiz-adv-x="538" 
d="M171 364q-44 23 -72.5 63.5t-28.5 91.5q0 38 15 71t41.5 57.5t63 38.5t79.5 14t79.5 -14t63 -38.5t41.5 -57.5t15 -71q0 -51 -28.5 -91.5t-72.5 -63.5v-4q57 -25 91.5 -68.5t34.5 -108.5q0 -41 -16 -77.5t-45.5 -63.5t-71 -42.5t-91.5 -15.5t-91.5 15.5t-71 42.5
t-45.5 63.5t-16 77.5q0 65 34.5 108.5t91.5 68.5v4zM81 183q0 -37 15 -67.5t41 -52t60 -33.5t72 -12t72 12t60 33.5t41 52t15 67.5t-14.5 67t-40 51.5t-59.5 33.5t-74 12t-74 -12t-59.5 -33.5t-40 -51.5t-14.5 -67zM106 523q0 -34 12 -61t33.5 -46t51.5 -29t66 -10t66 10
t51.5 29t33.5 46t12 61t-13.5 60.5t-36.5 45t-52.5 28t-60.5 9.5q-32 0 -61 -9.5t-52 -28t-36.5 -45t-13.5 -60.5z" />
    <glyph glyph-name="nine" unicode="9" horiz-adv-x="547" 
d="M265 250q-44 0 -84 16.5t-70 46.5t-48 71t-18 89q0 45 17 86.5t47.5 72.5t72.5 49.5t91 18.5q54 0 96.5 -20t72 -52t45 -73t15.5 -84q0 -30 -7 -58t-19 -54.5t-28 -52t-33 -50.5l-182 -272l-29 21l194 284l-2 2q-25 -19 -60.5 -30t-70.5 -11zM273 666q-40 0 -75 -14.5
t-61 -40.5t-41 -61t-15 -76t15 -75.5t41 -60t61 -40t75 -14.5t75 14.5t61 40t41 60t15 75.5t-15 76t-40.5 61t-61 40.5t-75.5 14.5z" />
    <glyph glyph-name="colon" unicode=":" horiz-adv-x="178" 
d="M89 426q-15 0 -25 10t-10 25t10 25t25 10t25 -10t10 -25t-10 -25t-25 -10zM89 -6q-15 0 -25 10t-10 25t10 25t25 10t25 -10t10 -25t-10 -25t-25 -10z" />
    <glyph glyph-name="semicolon" unicode=";" horiz-adv-x="174" 
d="M85 426q-15 0 -25 10t-10 25t10 25t25 10t25 -10t10 -25t-10 -25t-25 -10zM23 -79l48 77q-9 4 -15 12.5t-6 18.5q0 15 10 25t25 10t25 -10t10 -25q0 -8 -2 -12.5t-7 -12.5l-65 -98z" />
    <glyph glyph-name="less" unicode="&#x3c;" horiz-adv-x="473" 
d="M63 257v28l342 175v-38l-293 -149v-4l293 -149v-38z" />
    <glyph glyph-name="equal" unicode="=" horiz-adv-x="550" 
d="M63 240h424v-32h-424v32zM63 430h424v-32h-424v32z" />
    <glyph glyph-name="greater" unicode="&#x3e;" horiz-adv-x="473" 
d="M68 82v38l293 149v4l-293 149v38l342 -175v-28z" />
    <glyph glyph-name="question" unicode="?" horiz-adv-x="477" 
d="M211 197q0 44 5 73.5t16 52t29 41.5t44 42q22 20 37.5 37.5t25.5 34.5t14.5 35.5t4.5 40.5q0 31 -11 57t-31.5 45.5t-49.5 30.5t-64 11q-65 0 -102 -33t-55 -87l-33 14q9 25 23.5 50t37.5 45t54.5 32.5t73.5 12.5q47 0 83 -14.5t60.5 -39t37 -56.5t12.5 -66
q0 -32 -7 -56.5t-20 -44t-30 -37t-38 -36.5q-24 -21 -39.5 -39t-24.5 -38t-13 -45.5t-4 -62.5v-55h-36v55zM229 -6q-15 0 -25 10t-10 25t10 25t25 10t25 -10t10 -25t-10 -25t-25 -10z" />
    <glyph glyph-name="at" unicode="@" horiz-adv-x="870" 
d="M436 690q81 0 151.5 -30t122 -82t81 -122.5t29.5 -151.5q0 -47 -10 -85.5t-28 -65.5t-43 -42t-54 -15q-22 0 -41 8.5t-33.5 22t-23.5 31t-12 34.5q-25 -45 -65 -70.5t-92 -25.5q-39 0 -73 15t-59 42t-39.5 64.5t-14.5 82.5t14.5 82.5t40 64.5t59.5 42t72 15q26 0 49 -7
t42 -19t33.5 -27.5t23.5 -31.5h4v71h34v-261q0 -48 21.5 -74.5t59.5 -26.5q46 0 73.5 46.5t27.5 129.5q0 72 -27 136t-74 112t-111 76t-138 28q-73 0 -136.5 -27.5t-111 -75.5t-75 -112t-27.5 -137t27.5 -137t75 -112t111 -75.5t136.5 -27.5q75 0 131 31l14 -32
q-35 -16 -69 -24.5t-76 -8.5q-83 0 -153.5 30.5t-122 83t-81 122.5t-29.5 150q0 79 30 149.5t82 123t122.5 83t151.5 30.5zM419 128q32 0 60 12t48.5 34.5t32.5 54t12 71.5t-12.5 71.5t-33.5 54t-49 34.5t-58 12t-58 -12t-49 -34.5t-33.5 -54t-12.5 -71.5t12 -71.5t32.5 -54
t48.5 -34.5t60 -12z" />
    <glyph glyph-name="A" unicode="A" horiz-adv-x="638" 
d="M297 716h44l284 -716h-38l-87 220h-362l-87 -220h-38zM486 254l-165 418h-4l-165 -418h334z" />
    <glyph glyph-name="B" unicode="B" horiz-adv-x="580" 
d="M82 716h247q39 0 73.5 -13.5t60.5 -38t41.5 -57.5t15.5 -72q0 -57 -29.5 -98t-77.5 -65v-4q58 -18 94.5 -65t36.5 -108q0 -43 -16 -79t-43.5 -61.5t-64.5 -40t-79 -14.5h-259v716zM327 383q34 0 62.5 12t49.5 32t33 47.5t12 58.5t-12 58t-32.5 47.5t-48.5 32t-60 11.5
h-213v-299h209zM351 34q29 0 57.5 11t50.5 31.5t35.5 49.5t13.5 65t-13.5 65t-36 49.5t-51.5 32t-60 11.5h-229v-315h233z" />
    <glyph glyph-name="C" unicode="C" horiz-adv-x="720" 
d="M679 115q-48 -59 -115 -95t-160 -36q-78 0 -144.5 29.5t-114.5 80.5t-75.5 119t-27.5 145t27.5 145t75.5 119t114.5 80.5t144.5 29.5q85 0 147 -30.5t108 -87.5l-25 -24q-87 108 -230 108q-67 0 -126 -25.5t-103.5 -71t-70.5 -108t-26 -135.5q0 -74 26 -136t70.5 -107.5
t103.5 -71t126 -25.5q83 0 143 31.5t107 89.5z" />
    <glyph glyph-name="D" unicode="D" horiz-adv-x="678" 
d="M82 716h197q85 0 151.5 -26t112 -73t69.5 -113t24 -146t-24 -146t-69.5 -113t-112 -73t-151.5 -26h-197v716zM279 34q72 0 131.5 22t101.5 63.5t65 101.5t23 137t-23 137t-65 101.5t-101.5 63.5t-131.5 22h-161v-648h161z" />
    <glyph glyph-name="E" unicode="E" horiz-adv-x="531" 
d="M118 682v-307h322v-34h-322v-307h354v-34h-390v716h390v-34h-354z" />
    <glyph glyph-name="F" unicode="F" horiz-adv-x="508" 
d="M82 716h390v-34h-354v-315h322v-34h-322v-333h-36v716z" />
    <glyph glyph-name="G" unicode="G" horiz-adv-x="795" 
d="M420 367h327q2 -12 2.5 -22t0.5 -19q0 -139 -81 -232q-45 -52 -111.5 -81t-149.5 -29q-76 0 -143 29t-116.5 79t-78 118.5t-28.5 147.5t28.5 147.5t78 118.5t116.5 79t143 29q81 0 146 -27.5t110 -78.5l-27 -28q-40 48 -98 74t-129 26q-66 0 -126 -25t-106 -70
t-73 -107.5t-27 -137.5t27.5 -137.5t73.5 -107.5t106 -70t125 -25q75 0 136.5 26t99.5 74q41 52 55 103.5t15 113.5h-296v32z" />
    <glyph glyph-name="H" unicode="H" horiz-adv-x="678" 
d="M82 716h36v-333h442v333h36v-716h-36v349h-442v-349h-36v716z" />
    <glyph glyph-name="I" unicode="I" horiz-adv-x="200" 
d="M82 716h36v-716h-36v716z" />
    <glyph glyph-name="J" unicode="J" horiz-adv-x="503" 
d="M232 -16q-73 0 -127.5 43t-77.5 124l29 12q25 -80 72 -112.5t104 -32.5q75 0 121 48.5t46 144.5v505h36v-501q0 -111 -55 -171t-148 -60z" />
    <glyph glyph-name="K" unicode="K" horiz-adv-x="567" 
d="M82 716h36v-430h4l373 430h42v-4l-258 -299l286 -409v-4h-41l-271 384l-135 -157v-227h-36v716z" />
    <glyph glyph-name="L" unicode="L" horiz-adv-x="483" 
d="M82 716h36v-682h338v-34h-374v716z" />
    <glyph glyph-name="M" unicode="M" horiz-adv-x="820" 
d="M82 716h34l292 -510h4l292 510h34v-716h-34v528l4 120h-4l-284 -496h-20l-284 496h-4l4 -120v-528h-34v716z" />
    <glyph glyph-name="N" unicode="N" horiz-adv-x="684" 
d="M82 716h53l431 -652h4l-4 138v514h36v-716h-36l-448 678h-4l4 -138v-540h-36v716z" />
    <glyph glyph-name="O" unicode="O" horiz-adv-x="808" 
d="M404 -16q-78 0 -144.5 29.5t-114.5 80.5t-75.5 119t-27.5 145t27.5 145t75.5 119t114.5 80.5t144.5 29.5t144.5 -29.5t114.5 -80.5t75.5 -119t27.5 -145t-27.5 -145t-75.5 -119t-114.5 -80.5t-144.5 -29.5zM404 18q67 0 126 25.5t103.5 71t70.5 107.5t26 136
q0 73 -26 135.5t-70.5 108t-103.5 71t-126 25.5t-126 -25.5t-103.5 -71t-70.5 -108t-26 -135.5q0 -74 26 -136t70.5 -107.5t103.5 -71t126 -25.5z" />
    <glyph glyph-name="P" unicode="P" horiz-adv-x="549" 
d="M82 0v716h220q47 0 87 -14.5t69.5 -41t46.5 -64.5t17 -85t-17 -85t-46.5 -64.5t-69.5 -41t-87 -14.5h-184v-306h-36zM306 340q34 0 66.5 11t58 33t40.5 54t15 73t-15 73t-40.5 53.5t-58 33t-66.5 11.5h-188v-342h188z" />
    <glyph glyph-name="Q" unicode="Q" horiz-adv-x="808" 
d="M598 40q-42 -26 -90.5 -41t-103.5 -15q-78 0 -144.5 29.5t-114.5 80.5t-75.5 119t-27.5 145t27.5 145t75.5 119t114.5 80.5t144.5 29.5t144.5 -29.5t114.5 -80.5t75.5 -119t27.5 -145q0 -92 -37.5 -169.5t-103.5 -129.5l45 -67l-27 -18zM404 18q48 0 92.5 13t82.5 38
l-105 158l27 19l104 -157q57 46 91 115t34 154q0 73 -26 135.5t-70.5 108t-103.5 71t-126 25.5t-126 -25.5t-103.5 -71t-70.5 -108t-26 -135.5q0 -74 26 -136t70.5 -107.5t103.5 -71t126 -25.5z" />
    <glyph glyph-name="R" unicode="R" horiz-adv-x="559" 
d="M82 716h230q45 0 83 -15t66.5 -42t44.5 -65t16 -83q0 -38 -14 -71t-38 -58.5t-57 -43t-71 -26.5l-2 -3l208 -305v-4h-38l-210 306h-182v-306h-36v716zM298 340q37 0 71 12.5t60 35t41.5 54t15.5 69.5q0 41 -15 73t-40.5 53.5t-58 33t-66.5 11.5h-188v-342h180z" />
    <glyph glyph-name="S" unicode="S" horiz-adv-x="531" 
d="M264 -16q-37 0 -74.5 13t-69.5 37.5t-56.5 60t-36.5 80.5l33 14q10 -39 29.5 -70.5t46.5 -54t60 -34.5t71 -12t71.5 11.5t58.5 32.5t39.5 51.5t14.5 68.5q0 64 -48 105t-127 69l-45 16q-34 12 -65.5 27.5t-55.5 36.5t-38 49.5t-14 66.5q0 36 15 69t42 57.5t63.5 39
t80.5 14.5q48 0 83.5 -14t60.5 -35.5t40.5 -46t22.5 -45.5l-34 -15q-6 21 -19.5 42.5t-34.5 39.5t-50.5 29t-68.5 11q-34 0 -64 -10.5t-52.5 -30t-35.5 -46.5t-13 -59q0 -30 12 -52.5t33 -40.5t48.5 -32t59.5 -25l47 -17q40 -15 75 -32.5t61.5 -41t41.5 -53.5t15 -70
q0 -53 -19.5 -91t-51 -63.5t-71.5 -37.5t-81 -12z" />
    <glyph glyph-name="T" unicode="T" horiz-adv-x="502" 
d="M233 0v682h-206v34h448v-34h-206v-682h-36z" />
    <glyph glyph-name="U" unicode="U" horiz-adv-x="628" 
d="M314 -16q-57 0 -103.5 20t-79 56t-50.5 86.5t-18 111.5v458h36v-462q0 -50 15 -93.5t43 -75t68 -49.5t89 -18t88.5 18t67.5 49.5t43.5 75t15.5 93.5v462h36v-458q0 -61 -17 -111.5t-49.5 -86.5t-79 -56t-105.5 -20z" />
    <glyph glyph-name="V" unicode="V" horiz-adv-x="594" 
d="M13 716h40l238 -652h4l246 652h40l-275 -716h-29z" />
    <glyph glyph-name="W" unicode="W" horiz-adv-x="894" 
d="M673 0h-40l-180 568h-4l-180 -568h-40l-211 716h38l191 -656h4l179 560h42l179 -560h4l183 656h38z" />
    <glyph glyph-name="X" unicode="X" horiz-adv-x="592" 
d="M273 370l-243 346h47l217 -314h4l220 314h44l-243 -346l255 -370h-46l-230 337h-4l-230 -337h-46z" />
    <glyph glyph-name="Y" unicode="Y" horiz-adv-x="564" 
d="M266 0v315l-253 401h42l227 -362h4l223 362h42l-249 -401v-315h-36z" />
    <glyph glyph-name="Z" unicode="Z" horiz-adv-x="541" 
d="M36 42l419 640h-403v34h440v-42l-419 -640h423v-34h-460v42z" />
    <glyph glyph-name="bracketleft" unicode="[" horiz-adv-x="300" 
d="M114 762v-856h150v-30h-182v916h182v-30h-150z" />
    <glyph glyph-name="backslash" unicode="\" horiz-adv-x="393" 
d="M327 0l-297 716h36l297 -716h-36z" />
    <glyph glyph-name="bracketright" unicode="]" horiz-adv-x="300" 
d="M36 762v30h182v-916h-182v30h150v856h-150z" />
    <glyph glyph-name="asciicircum" unicode="^" horiz-adv-x="432" 
d="M377 410l-159 266h-4l-159 -266h-42l187 306h32l187 -306h-42z" />
    <glyph glyph-name="underscore" unicode="_" horiz-adv-x="456" 
d="M2 -184h452v-32h-452v32z" />
    <glyph glyph-name="grave" unicode="`" horiz-adv-x="380" 
d="M171 596l-62 120h46l52 -120h-36z" />
    <glyph glyph-name="a" unicode="a" horiz-adv-x="501" 
d="M411 106h-4q-29 -56 -81 -89t-112 -33q-40 0 -73.5 12t-58 33t-38 50t-13.5 63q0 40 17.5 70.5t46 51.5t65 31.5t75.5 10.5q48 0 93 -12.5t83 -34.5v39q0 42 -13 74.5t-35.5 55t-53.5 34.5t-68 12q-51 0 -92 -24t-63 -63l-31 19q27 45 77 72.5t109 27.5q46 0 84 -15
t65 -41t42 -62.5t15 -78.5v-309h-36v106zM411 225q-39 23 -80 36t-92 13q-36 0 -67.5 -8.5t-54.5 -25t-36.5 -41t-13.5 -57.5q0 -29 12 -52.5t32.5 -40t47.5 -25t57 -8.5q37 0 72.5 17t62.5 46t43.5 66.5t16.5 79.5z" />
    <glyph glyph-name="b" unicode="b" horiz-adv-x="562" 
d="M63 716h36v-261l-4 -68h4q13 24 31 45.5t42.5 38t56.5 26t73 9.5q47 0 89 -19t73 -53.5t49 -82.5t18 -106t-18 -106t-49 -82.5t-73 -53.5t-89 -19q-41 0 -73 9.5t-56.5 26t-42.5 38t-31 45.5h-4v-103h-32v716zM295 16q40 0 76 16t63.5 45.5t44 72t16.5 95.5t-16.5 95.5
t-44 72t-63.5 45.5t-76 16t-76 -15.5t-63.5 -44.5t-44 -72t-16.5 -97t16.5 -97t44 -72t63.5 -44.5t76 -15.5z" />
    <glyph glyph-name="c" unicode="c" horiz-adv-x="504" 
d="M477 122q-28 -65 -79 -101.5t-128 -36.5q-51 0 -94.5 20t-76 55t-50.5 82.5t-18 103.5t18 103.5t50.5 82.5t76 55t94.5 20q77 0 128 -36.5t79 -101.5l-31 -14q-26 58 -69.5 89t-106.5 31q-39 0 -75.5 -16.5t-65 -46.5t-45.5 -72t-17 -94t17 -94t45.5 -72t65 -46.5
t75.5 -16.5q63 0 106.5 31t69.5 89z" />
    <glyph glyph-name="d" unicode="d" horiz-adv-x="562" 
d="M467 103h-4q-13 -24 -31 -45.5t-42.5 -38t-56.5 -26t-73 -9.5q-47 0 -89 19t-73 53.5t-49 82.5t-18 106t18 106t49 82.5t73 53.5t89 19q41 0 73 -9.5t56.5 -26t42.5 -38t31 -45.5h4l-4 68v261h36v-716h-32v103zM267 16q40 0 76 15.5t63.5 44.5t44 72t16.5 97t-16.5 97
t-44 72t-63.5 44.5t-76 15.5t-76 -16t-63.5 -45.5t-44 -72t-16.5 -95.5t16.5 -95.5t44 -72t63.5 -45.5t76 -16z" />
    <glyph glyph-name="e" unicode="e" horiz-adv-x="520" 
d="M478 116q-12 -26 -30.5 -50t-44 -42t-58.5 -29t-74 -11q-52 0 -96 19.5t-76 54.5t-50 82.5t-18 104.5q0 53 16.5 100.5t47 83t74 56.5t96.5 21q51 0 92.5 -18t70.5 -51t45 -79t16 -102v-5q-1 -3 -1 -5v-6h-421q0 -60 19.5 -102.5t49.5 -69.5t66 -39.5t70 -12.5
q36 0 63.5 8.5t48 23.5t36.5 36t30 46zM453 272q-1 31 -11.5 66.5t-32.5 65.5t-58 50t-88 20q-33 0 -65.5 -12t-60 -37t-46.5 -63t-24 -90h386z" />
    <glyph glyph-name="f" unicode="f" horiz-adv-x="326" 
d="M246 724q26 0 45 -7t30 -15l-10 -31q-11 8 -28.5 14.5t-35.5 6.5q-38 0 -65 -28t-27 -79v-95h128v-32h-128v-458h-36v458h-92v32h92v98q0 35 11.5 61t30 42.5t41 24.5t44.5 8z" />
    <glyph glyph-name="g" unicode="g" horiz-adv-x="558" 
d="M262 -232q-45 0 -79 12t-59 31.5t-41.5 45t-26.5 52.5l32 13q9 -29 26 -52t40.5 -38.5t51 -23.5t56.5 -8q98 0 147.5 57.5t49.5 160.5v81h-5q-12 -22 -29.5 -43t-42 -37t-55 -25.5t-67.5 -9.5q-46 0 -87.5 19.5t-73 54.5t-50 83t-18.5 104t18.5 104t50 83t73 54.5
t87.5 19.5q37 0 67.5 -9.5t55 -25.5t42 -37t29.5 -43h5v99h36v-479q0 -59 -17.5 -104.5t-48.5 -76t-74 -46.5t-93 -16zM264 16q38 0 73.5 15t63 44t44 71.5t16.5 98.5q0 55 -16.5 98t-44 72t-63 44t-73.5 15q-37 0 -72.5 -15.5t-63 -45t-44.5 -72t-17 -96.5t17 -96.5
t44.5 -72t63 -45t72.5 -15.5z" />
    <glyph glyph-name="h" unicode="h" 
d="M63 716h36v-259l-4 -88h4q27 63 75 100t123 37q44 0 76.5 -15t53.5 -42t31.5 -63.5t10.5 -79.5v-306h-36v298q0 81 -35 128.5t-109 47.5q-39 0 -73.5 -18t-60.5 -49t-41 -72.5t-15 -88.5v-246h-36v716z" />
    <glyph glyph-name="i" unicode="i" horiz-adv-x="170" 
d="M85 625q-14 0 -24 10t-10 24t10 24t24 10t24 -10t10 -24t-10 -24t-24 -10zM67 0v490h36v-490h-36z" />
    <glyph glyph-name="j" unicode="j" horiz-adv-x="170" 
d="M-31 -186q14 -8 35 -8q31 0 47 22.5t16 62.5v599h36v-601q0 -51 -24.5 -83t-73.5 -32q-13 0 -25.5 3t-19.5 7zM85 625q-14 0 -24 10t-10 24t10 24t24 10t24 -10t10 -24t-10 -24t-24 -10z" />
    <glyph glyph-name="k" unicode="k" horiz-adv-x="455" 
d="M63 716h36v-510l284 284h44v-4l-177 -179l205 -303v-4h-40l-191 281l-125 -125v-156h-36v716z" />
    <glyph glyph-name="l" unicode="l" horiz-adv-x="162" 
d="M63 0v716h36v-716h-36z" />
    <glyph glyph-name="m" unicode="m" horiz-adv-x="830" 
d="M63 490h32v-116h4q10 27 27 51t40 42t51 28.5t61 10.5q34 0 60 -10.5t44.5 -28.5t30.5 -42t17 -51q11 27 28.5 51t40.5 42t52 28.5t63 10.5q43 0 73 -15t49 -41t27 -61t8 -74v-315h-36v307q0 35 -6.5 65.5t-21.5 53t-39.5 35.5t-60.5 13q-39 0 -71 -17.5t-54.5 -47.5
t-34.5 -69.5t-12 -84.5v-255h-36v303q0 36 -7 67.5t-22 54.5t-39 36t-59 13q-40 0 -72 -19.5t-54.5 -51.5t-34.5 -74.5t-12 -88.5v-240h-36v490z" />
    <glyph glyph-name="n" unicode="n" 
d="M95 374h4q13 27 32 51t43 42t54.5 28.5t68.5 10.5q44 0 76.5 -15t53.5 -42t31.5 -63.5t10.5 -79.5v-306h-36v298q0 81 -35 128.5t-109 47.5q-40 0 -74.5 -18.5t-60 -49.5t-40.5 -72.5t-15 -87.5v-246h-36v490h32v-116z" />
    <glyph glyph-name="o" unicode="o" horiz-adv-x="548" 
d="M274 506q52 0 96.5 -20t77 -55t51 -82.5t18.5 -103.5t-18.5 -103.5t-51 -82.5t-77 -55t-96.5 -20t-96.5 20t-77 55t-51 82.5t-18.5 103.5t18.5 103.5t51 82.5t77 55t96.5 20zM274 16q40 0 77.5 17t66.5 47.5t46 72.5t17 92t-17 92t-46 72.5t-66.5 47.5t-77.5 17
q-41 0 -78 -17t-66 -47.5t-46 -72.5t-17 -92t17 -92t46 -72.5t66 -47.5t78 -17z" />
    <glyph glyph-name="p" unicode="p" horiz-adv-x="558" 
d="M59 490h32v-103h4q13 24 31 45.5t42.5 38t56.5 26t73 9.5q47 0 89 -19t73 -53.5t49 -82.5t18 -106t-18 -106t-49 -82.5t-73 -53.5t-89 -19q-41 0 -73 9.5t-56.5 26t-42.5 38t-31 45.5h-4l4 -68v-251h-36v706zM291 16q40 0 76 16t63.5 45.5t44 72t16.5 95.5t-16.5 95.5
t-44 72t-63.5 45.5t-76 16t-76 -15.5t-63.5 -44.5t-44 -72t-16.5 -97t16.5 -97t44 -72t63.5 -44.5t76 -15.5z" />
    <glyph glyph-name="q" unicode="q" horiz-adv-x="558" 
d="M463 35l4 68h-4q-13 -24 -31 -45.5t-42.5 -38t-56.5 -26t-73 -9.5q-47 0 -89 19t-73 53.5t-49 82.5t-18 106t18 106t49 82.5t73 53.5t89 19q41 0 73 -9.5t56.5 -26t42.5 -38t31 -45.5h4v103h32v-706h-36v251zM267 16q40 0 76 15.5t63.5 44.5t44 72t16.5 97t-16.5 97
t-44 72t-63.5 44.5t-76 15.5t-76 -16t-63.5 -45.5t-44 -72t-16.5 -95.5t16.5 -95.5t44 -72t63.5 -45.5t76 -16z" />
    <glyph glyph-name="r" unicode="r" horiz-adv-x="306" 
d="M63 0v490h32v-92h4q7 24 21.5 43.5t33.5 33.5t40.5 21.5t42.5 7.5q22 0 36.5 -3t28.5 -11l-11 -31q-11 6 -24.5 9.5t-32.5 3.5q-26 0 -50 -13.5t-43 -39t-30.5 -61t-11.5 -78.5v-280h-36z" />
    <glyph glyph-name="s" unicode="s" horiz-adv-x="441" 
d="M227 -16q-38 0 -70.5 11t-58 30t-43.5 44.5t-28 55.5l32 14q20 -59 66 -91t102 -32q70 0 110.5 32t40.5 80q0 18 -6 33.5t-21.5 29t-41 24t-64.5 19.5l-63 14q-26 6 -51.5 15.5t-45.5 24.5t-33 35.5t-13 47.5q0 31 15.5 56t41.5 42.5t58.5 27t67.5 9.5q64 0 113.5 -29
t69.5 -85l-31 -13q-23 50 -60 72.5t-91 22.5q-29 0 -55.5 -7t-47 -20.5t-33 -32.5t-12.5 -43q0 -19 9.5 -33.5t26 -26t39 -20t48.5 -14.5l70 -16q74 -17 110 -51.5t36 -78.5q0 -31 -13 -57.5t-37.5 -46.5t-59 -31.5t-77.5 -11.5z" />
    <glyph glyph-name="t" unicode="t" horiz-adv-x="321" 
d="M119 458h-92v32h92v150h36v-150h124v-32h-124v-347q0 -23 7.5 -39t19.5 -27q22 -21 53 -21q14 0 26.5 2.5t26.5 10.5l11 -29q-14 -8 -30 -12t-37 -4q-20 0 -39.5 6.5t-36.5 20.5t-27 37.5t-10 58.5v343z" />
    <glyph glyph-name="u" unicode="u" 
d="M433 116h-4q-14 -27 -32.5 -51t-42.5 -42t-55 -28.5t-68 -10.5q-44 0 -76.5 15t-53.5 42t-31.5 63.5t-10.5 79.5v306h36v-298q0 -81 35 -128.5t109 -47.5q40 0 74.5 18.5t60 49.5t40.5 72.5t15 87.5v246h36v-490h-32v116z" />
    <glyph glyph-name="v" unicode="v" horiz-adv-x="464" 
d="M5 490h37l189 -456h2l191 456h35l-204 -490h-48z" />
    <glyph glyph-name="w" unicode="w" horiz-adv-x="710" 
d="M510 0l-156 451l-153 -451h-31l-166 490h34l148 -437h1l148 437h41l149 -432h1l148 432h32l-166 -490h-30z" />
    <glyph glyph-name="x" unicode="x" horiz-adv-x="422" 
d="M371 0l-161 223l-159 -223h-42l181 249l-173 241h44l150 -214l151 214h43l-174 -241l182 -249h-42z" />
    <glyph glyph-name="y" unicode="y" horiz-adv-x="458" 
d="M103 -216l112 257l-209 449h42l185 -404h2l176 404h41l-311 -706h-38z" />
    <glyph glyph-name="z" unicode="z" horiz-adv-x="440" 
d="M36 28l321 430h-313v32h356v-28l-321 -430h325v-32h-368v28z" />
    <glyph glyph-name="braceleft" unicode="{" horiz-adv-x="299" 
d="M242 -124q-33 0 -59.5 11.5t-44.5 32t-27.5 47.5t-9.5 59v201q0 43 -16.5 66t-57.5 23v36q41 0 57.5 23t16.5 66v201q0 31 9.5 58.5t27.5 48t44.5 32t59.5 11.5h21v-30h-14q-58 0 -87 -33t-29 -91v-202q0 -80 -55 -100v-4q55 -20 55 -100v-202q0 -58 29 -91t87 -33h14
v-30h-21z" />
    <glyph glyph-name="bar" unicode="|" horiz-adv-x="196" 
d="M82 792h32v-912h-32v912z" />
    <glyph glyph-name="braceright" unicode="}" horiz-adv-x="299" 
d="M36 -124v30h14q58 0 87 33t29 91v202q0 80 55 100v4q-55 20 -55 100v202q0 58 -29 91t-87 33h-14v30h21q33 0 59.5 -11.5t44.5 -32t27.5 -48t9.5 -58.5v-201q0 -43 16.5 -66t57.5 -23v-36q-41 0 -57.5 -23t-16.5 -66v-201q0 -32 -9.5 -59t-27.5 -47.5t-44.5 -32
t-59.5 -11.5h-21z" />
    <glyph glyph-name="asciitilde" unicode="~" horiz-adv-x="506" 
d="M362 249q-33 0 -60.5 13t-52.5 29q-26 16 -51 29t-54 13q-35 0 -54.5 -21t-21.5 -56h-32q2 54 34.5 82.5t73.5 28.5q33 0 60.5 -13t53.5 -29q25 -16 50 -29t54 -13q35 0 54.5 21t21.5 56h32q-2 -54 -34.5 -82.5t-73.5 -28.5z" />
    <glyph glyph-name="uni00A0" unicode="&#xa0;" horiz-adv-x="220" 
d="M0 0z" />
    <glyph glyph-name="exclamdown" unicode="&#xa1;" horiz-adv-x="178" 
d="M89 505.999q-15 0 -25 -9.99902q-10 -9.99805 -10 -24.9961t10 -24.9971t25 -9.99902t25 9.99902t10 24.9971t-10 24.9961q-10 9.99902 -25 9.99902zM71 140.044v-355.956h36v355.956l-8 217.974h-20z" />
    <glyph glyph-name="cent" unicode="&#xa2;" horiz-adv-x="499" 
d="M251 83q-46 3 -86 23.5t-70 55t-47 80.5t-17 100q0 53 17 99t46.5 80.5t69.5 55t87 23.5v84h32v-84q69 -4 116 -39.5t73 -96.5l-31 -14q-24 54 -63 84t-95 34v-453q56 5 95 35t63 84l31 -14q-26 -60 -73 -96t-116 -41v-83h-32v83zM65 342q0 -49 15.5 -89.5t41 -70t59 -47
t70.5 -20.5v453q-37 -3 -70.5 -20.5t-59 -47t-41 -69.5t-15.5 -89z" />
    <glyph glyph-name="sterling" unicode="&#xa3;" horiz-adv-x="496" 
d="M176 268q3 -13 4.5 -24.5t1.5 -25.5q0 -24 -7 -50t-18 -50t-26.5 -45t-31.5 -36l3 -3h236q28 0 46 5t30 14.5t19.5 23.5t13.5 32l31 -13q-15 -51 -47 -73.5t-93 -22.5h-302v24q24 13 44 35.5t34.5 49.5t23 55.5t8.5 53.5q0 24 -8 50h-98v32h86q-12 25 -26 49
q-15 23 -28.5 48t-22.5 52t-9 58q0 37 13.5 72t39 62t61.5 43t80 16q41 0 72 -11.5t53.5 -31t37 -44t23.5 -49.5l-34 -14q-8 23 -20 44t-30 37t-43.5 25.5t-59.5 9.5q-37 0 -66 -13.5t-49.5 -35.5t-31 -50.5t-10.5 -59.5q0 -32 9.5 -58.5t23 -51t29.5 -47.5q15 -24 26 -50
h155v-32h-143z" />
    <glyph glyph-name="currency" unicode="&#xa4;" horiz-adv-x="586" 
d="M127 190q-21 28 -32.5 62.5t-11.5 72.5t11.5 72.5t32.5 62.5l-59 59l27 27l58 -57q27 26 62.5 40.5t77.5 14.5q41 0 76.5 -14.5t63.5 -40.5l58 57l27 -27l-59 -59q20 -28 32 -62.5t12 -72.5t-12 -72.5t-32 -62.5l59 -59l-27 -27l-58 56q-28 -26 -63.5 -40t-76.5 -14
q-42 0 -77.5 14t-62.5 40l-58 -56l-27 27zM119 325q0 -38 13.5 -71.5t37 -58.5t55 -40t68.5 -15t68.5 15t55 40t37 58.5t13.5 71.5q0 37 -13.5 71t-37 59t-55 40t-68.5 15t-68.5 -15t-55 -40t-37 -59t-13.5 -71z" />
    <glyph glyph-name="yen" unicode="&#xa5;" horiz-adv-x="524" 
d="M246 188h-166v32h166v89h-166v32h146l-213 343h42l207 -334h4l203 334h42l-210 -343h143v-32h-162v-89h162v-32h-162v-188h-36v188z" />
    <glyph glyph-name="brokenbar" unicode="&#xa6;" horiz-adv-x="196" 
d="M82 376v380h32v-380h-32zM82 -120v412h32v-412h-32z" />
    <glyph glyph-name="section" unicode="&#xa7;" horiz-adv-x="512" 
d="M68 280q0 49 28.5 85.5t73.5 58.5q-49 23 -80.5 57.5t-31.5 91.5q0 29 13.5 57.5t38 51t60.5 36.5t81 14q47 0 81 -14.5t57 -36t37 -46.5t20 -45l-36 -15q-7 24 -18.5 46t-30.5 39t-46 27.5t-64 10.5q-34 0 -62.5 -10t-49.5 -27t-33 -39.5t-12 -47.5q0 -32 12 -54
t33 -38.5t50 -28.5t63 -24q54 -19 94.5 -36.5t67 -38t40 -47t13.5 -62.5q0 -49 -26.5 -85t-65.5 -62q48 -28 68.5 -63t20.5 -85q0 -37 -15 -70t-42 -58t-64.5 -39.5t-83.5 -14.5q-45 0 -80.5 13.5t-61.5 37t-44 54t-28 64.5l36 15q21 -69 63 -109.5t115 -40.5q37 0 68 11.5
t53.5 32t35 47t12.5 56.5q0 34 -12.5 59t-37 44.5t-61 35.5t-83.5 31q-34 11 -64 25t-52.5 33t-36 44.5t-13.5 58.5zM251 150q26 -8 48 -17t42 -18q43 22 66.5 56t23.5 72q0 29 -13 51.5t-37.5 40.5t-61 33.5t-83.5 30.5l-12 4l-12 4q-24 -7 -43.5 -19.5t-34 -29
t-22.5 -35.5t-8 -38q0 -26 9.5 -46t28 -36t46 -28.5t63.5 -24.5z" />
    <glyph glyph-name="dieresis" unicode="&#xa8;" horiz-adv-x="338" 
d="M99 627q-14 0 -23 9t-9 23t9 23t23 9t23 -9t9 -23t-9 -23t-23 -9zM207 659q0 14 9 23t23 9t23 -9t9 -23t-9 -23t-23 -9t-23 9t-9 23z" />
    <glyph glyph-name="copyright" unicode="&#xa9;" horiz-adv-x="542" 
d="M271 272q-48 0 -89.5 18t-73 49.5t-49.5 73t-18 89.5q0 47 18 89t49.5 73.5t73 49.5t89.5 18q47 0 89 -18t73.5 -49.5t49.5 -73.5t18 -89q0 -48 -18 -89.5t-49.5 -73t-73.5 -49.5t-89 -18zM275 383q-24 0 -45.5 9.5t-37 25.5t-24.5 38t-9 46q0 25 9 46.5t24.5 37.5
t37 25.5t45.5 9.5q30 0 49.5 -10.5t34.5 -26.5l-23 -22q-11 14 -26 21.5t-35 7.5q-33 0 -58.5 -24t-25.5 -65t25.5 -65t59.5 -24q23 0 39 8.5t29 25.5l22 -19q-16 -21 -38 -33t-53 -12zM71 502q0 -41 16 -77.5t43 -63.5t63.5 -43t77.5 -16t77.5 16t63.5 43t43 63.5t16 77.5
t-16 77.5t-43 63.5t-63.5 43t-77.5 16t-77.5 -16t-63.5 -43t-43 -63.5t-16 -77.5z" />
    <glyph glyph-name="ordfeminine" unicode="&#xaa;" horiz-adv-x="445" 
d="M364 379h-4q-26 -52 -68.5 -79.5t-94.5 -27.5q-34 0 -62 11.5t-48 31t-31 46t-11 56.5q0 35 14 63t37 47t54 29t65 10q42 0 79 -11t70 -31v25q0 69 -38.5 110t-103.5 41q-45 0 -76.5 -18.5t-50.5 -53.5l-31 16q24 39 64 63.5t94 24.5q41 0 74 -13t56 -36.5t35.5 -55.5
t12.5 -69v-272h-36v93zM364 490q-32 19 -66 31.5t-77 12.5q-64 0 -102 -30.5t-38 -86.5q0 -26 9.5 -47t25.5 -35.5t37 -22.5t45 -8q33 0 63 14t53 38.5t36.5 58.5t13.5 75z" />
    <glyph glyph-name="guillemotleft" unicode="&#xab;" horiz-adv-x="524" 
d="M256 90l-24 -22l-187 203l187 203l24 -22l-166 -181zM456 90l-24 -22l-187 203l187 203l24 -22l-166 -181z" />
    <glyph glyph-name="logicalnot" unicode="&#xac;" horiz-adv-x="551" 
d="M54 363h406v-258h-36v226h-370v32z" />
    <glyph glyph-name="uni00AD" unicode="&#xad;" horiz-adv-x="426" 
d="M63 326h300v-32h-300v32z" />
    <glyph glyph-name="registered" unicode="&#xae;" horiz-adv-x="542" 
d="M271 272q-48 0 -89.5 18t-73 49.5t-49.5 73t-18 89.5q0 47 18 89t49.5 73.5t73 49.5t89.5 18q47 0 89 -18t73.5 -49.5t49.5 -73.5t18 -89q0 -48 -18 -89.5t-49.5 -73t-73.5 -49.5t-89 -18zM71 502q0 -41 16 -77.5t43 -63.5t63.5 -43t77.5 -16t77.5 16t63.5 43t43 63.5
t16 77.5t-16 77.5t-43 63.5t-63.5 43t-77.5 16t-77.5 -16t-63.5 -43t-43 -63.5t-16 -77.5zM331 389l-61 88h-40v-88h-32v226h88q30 0 52.5 -19t22.5 -50q0 -26 -15.5 -42.5t-36.5 -22.5l-2 -2l60 -88v-2h-36zM283 507q18 0 32 9t14 30t-14 30t-32 9h-53v-78h53z" />
    <glyph glyph-name="macron" unicode="&#xaf;" horiz-adv-x="392" 
d="M68 643v32h256v-32h-256z" />
    <glyph glyph-name="degree" unicode="&#xb0;" horiz-adv-x="326" 
d="M163 442q-27 0 -50 9.5t-40 27t-27 41t-10 51.5t10 51.5t27 40.5t40 27t50 10t50 -10t40 -27t27 -40.5t10 -51.5t-10 -51.5t-27 -41t-40 -27t-50 -9.5zM163 472q42 0 68.5 28.5t26.5 70.5t-26.5 70.5t-68.5 28.5t-68.5 -28.5t-26.5 -70.5t26.5 -70.5t68.5 -28.5z" />
    <glyph glyph-name="plusminus" unicode="&#xb1;" horiz-adv-x="538" 
d="M285 510v-160h190v-32h-190v-160h-32v160h-190v32h190v160h32zM63 32h412v-32h-412v32z" />
    <glyph glyph-name="twosuperior" unicode="&#xb2;" horiz-adv-x="287" 
d="M16 350v30q35 34 64 63q25 24 47 46q21 22 26 27q15 16 26 28.5t18 23.5t10.5 23.5t3.5 28.5q0 29 -20.5 51.5t-57.5 22.5q-32 0 -56 -17.5t-35 -59.5l-27 12q11 45 42.5 70t71.5 25q48 0 80.5 -28.5t32.5 -75.5q0 -39 -17.5 -64.5t-34.5 -42.5l-133 -133h187v-30h-228z
" />
    <glyph glyph-name="threesuperior" unicode="&#xb3;" horiz-adv-x="314" 
d="M146 342q-19 0 -39 5.5t-37.5 17t-31.5 29.5t-20 44l27 11q24 -77 102 -77q42 0 66 22.5t24 57.5q0 38 -27.5 55.5t-63.5 17.5h-34v30h28q31 0 57 18t26 52q0 32 -22.5 50.5t-54.5 18.5q-35 0 -54.5 -16.5t-28.5 -41.5l-28 12q13 36 42.5 56t66.5 20q52 0 81.5 -28.5
t29.5 -68.5q0 -30 -18 -51.5t-37 -30.5q27 -11 48 -32.5t21 -56.5q0 -26 -9.5 -47t-26 -36t-39 -23t-48.5 -8z" />
    <glyph glyph-name="acute" unicode="&#xb4;" horiz-adv-x="380" 
d="M173 596l52 120h46l-62 -120h-36z" />
    <glyph glyph-name="mu" unicode="&#xb5;" 
d="M91 62l4 -89v-189h-36v706h36v-298q0 -81 38 -128.5t106 -47.5q40 0 74.5 18.5t60 49.5t40.5 72.5t15 87.5v246h36v-490h-32v116h-4q-14 -27 -32.5 -51t-42.5 -42t-55 -28.5t-68 -10.5q-45 0 -81 23.5t-55 54.5h-4z" />
    <glyph glyph-name="paragraph" unicode="&#xb6;" horiz-adv-x="579" 
d="M296 -216v512h-44q-45 0 -86 14.5t-71.5 41.5t-49 66t-18.5 88t18.5 88t49 66t71.5 41.5t86 14.5h236v-932h-36v898h-120v-898h-36z" />
    <glyph glyph-name="periodcentered" unicode="&#xb7;" horiz-adv-x="114" 
d="M57 289q-15 0 -25 10t-10 25t10 25t25 10t25 -10t10 -25t-10 -25t-25 -10z" />
    <glyph glyph-name="cedilla" unicode="&#xb8;" horiz-adv-x="423" 
d="M173 -237q-34 0 -59 19.5t-34 47.5l33 14q7 -20 22 -34.5t38 -14.5q28 0 45 17.5t17 46.5q0 28 -17 45.5t-43 17.5q-17 0 -30 -7t-22 -18l-25 12l35 91h34l-26 -59q6 5 16.5 9t24.5 4q37 0 63 -26.5t26 -68.5q0 -39 -27 -67.5t-71 -28.5z" />
    <glyph glyph-name="onesuperior" unicode="&#xb9;" horiz-adv-x="217" 
d="M117 350v321l-77 -37l-13 29l112 53h10v-366h-32z" />
    <glyph glyph-name="ordmasculine" unicode="&#xba;" horiz-adv-x="510" 
d="M255 732q46 0 85 -17.5t67.5 -48.5t45 -73t16.5 -91t-16.5 -91t-45 -73t-67.5 -48.5t-85 -17.5t-85 17.5t-67.5 48.5t-45 73t-16.5 91t16.5 91t45 73t67.5 48.5t85 17.5zM255 304q35 0 67.5 14.5t57 41t39 62.5t14.5 80q0 43 -14.5 79.5t-39 63t-57 41t-67.5 14.5
t-67.5 -14.5t-57 -41t-39 -63t-14.5 -79.5q0 -44 14.5 -80t39 -62.5t57 -41t67.5 -14.5z" />
    <glyph glyph-name="guillemotright" unicode="&#xbb;" horiz-adv-x="524" 
d="M234 271l-166 181l24 22l187 -203l-187 -203l-24 22zM434 271l-166 181l24 22l187 -203l-187 -203l-24 22z" />
    <glyph glyph-name="onequarter" unicode="&#xbc;" horiz-adv-x="709" 
d="M385 106l186 261h20v-249h55v-30h-55v-87h-32v87h-174v18zM559 118v177h-4l-125 -177h129zM98 20l467 695l29 -19l-467 -695zM144 350v321l-77 -37l-13 29l112 53h10v-366h-32z" />
    <glyph glyph-name="onehalf" unicode="&#xbd;" horiz-adv-x="761" 
d="M93 20l467 695l29 -19l-467 -695zM144 350v321l-77 -37l-13 29l112 53h10v-366h-32zM470 1v30q35 34 64 63q25 24 47 46q21 22 26 27q15 16 26 28.5t18 23.5t10.5 23.5t3.5 28.5q0 29 -20.5 51.5t-57.5 22.5q-32 0 -56 -17.5t-35 -59.5l-27 12q11 45 42.5 70t71.5 25
q48 0 80.5 -28.5t32.5 -75.5q0 -39 -17.5 -64.5t-34.5 -42.5l-133 -133h187v-30h-228z" />
    <glyph glyph-name="threequarters" unicode="&#xbe;" horiz-adv-x="817" 
d="M490 106l186 261h20v-249h55v-30h-55v-87h-32v87h-174v18zM664 118v177h-4l-125 -177h129zM182 342q-19 0 -39 5.5t-37.5 17t-31.5 29.5t-20 44l27 11q24 -77 102 -77q42 0 66 22.5t24 57.5q0 38 -27.5 55.5t-63.5 17.5h-34v30h28q31 0 57 18t26 52q0 32 -22.5 50.5
t-54.5 18.5q-35 0 -54.5 -16.5t-28.5 -41.5l-28 12q13 36 42.5 56t66.5 20q52 0 81.5 -28.5t29.5 -68.5q0 -30 -18 -51.5t-37 -30.5q27 -11 48 -32.5t21 -56.5q0 -26 -9.5 -47t-26 -36t-39 -23t-48.5 -8zM186 20l467 695l29 -19l-467 -695z" />
    <glyph glyph-name="questiondown" unicode="&#xbf;" horiz-adv-x="464" 
d="M242.025 303.024q0 -43.9951 -4.99902 -73.4912t-15.998 -51.9941q-10.999 -22.4971 -28.9961 -41.4941q-17.998 -18.998 -43.9951 -41.9951q-21.9971 -19.998 -37.4951 -37.4961q-15.498 -17.4971 -25.4971 -34.4951t-14.498 -35.4961q-4.5 -18.498 -4.5 -40.4951
q0 -30.9961 10.999 -56.9932q10.999 -25.9961 31.4961 -45.4941t49.4941 -30.4961q28.9961 -10.999 63.9922 -10.999q64.9922 0 101.987 32.9961q36.9961 32.9961 54.9932 86.9893l32.9961 -13.998q-8.99902 -24.9971 -23.4971 -49.9941t-37.4951 -44.9941
q-22.9971 -19.998 -54.4932 -32.4961t-73.4912 -12.498q-46.9941 0 -82.9902 14.498q-35.9951 14.498 -60.4922 38.9951t-36.9961 56.4932q-12.498 31.9961 -12.498 65.9922q0 31.9961 6.99902 56.4922q6.99902 24.4971 19.998 43.9951q12.998 19.4971 29.9961 36.9951
t37.9951 36.4961q23.9971 20.9971 39.4951 38.9951t24.4971 37.9951q8.99902 19.998 12.998 45.4941q4 25.4971 4 62.4932v54.9932h35.9951v-54.9932zM224.028 505.999q14.998 0 24.9971 -9.99902q9.99805 -9.99805 9.99805 -24.9961t-9.99805 -24.9971
q-9.99902 -9.99902 -24.9971 -9.99902q-14.999 0 -24.9971 9.99902q-9.99902 9.99902 -9.99902 24.9971t9.99902 24.9961q9.99805 9.99902 24.9971 9.99902z" />
    <glyph glyph-name="Agrave" unicode="&#xc0;" horiz-adv-x="638" 
d="M297 716h44l284 -716h-38l-87 220h-362l-87 -220h-38zM486 254l-165 418h-4l-165 -418h334zM295 780l-62 120h46l52 -120h-36z" />
    <glyph glyph-name="Aacute" unicode="&#xc1;" horiz-adv-x="638" 
d="M297 716h44l284 -716h-38l-87 220h-362l-87 -220h-38zM486 254l-165 418h-4l-165 -418h334zM307 780l52 120h46l-62 -120h-36z" />
    <glyph glyph-name="Acircumflex" unicode="&#xc2;" horiz-adv-x="638" 
d="M297 716h44l284 -716h-38l-87 220h-362l-87 -220h-38zM486 254l-165 418h-4l-165 -418h334zM436 784h-38l-75 84h-8l-75 -84h-38v5l98 111h38l98 -111v-5z" />
    <glyph glyph-name="Atilde" unicode="&#xc3;" horiz-adv-x="638" 
d="M297 716h44l284 -716h-38l-87 220h-362l-87 -220h-38zM486 254l-165 418h-4l-165 -418h334zM387 794q-23 0 -40 9.5t-32 21.5t-30 21.5t-32 9.5q-26 0 -40 -14t-18 -38h-32q1 21 8.5 37t20 27t28 16.5t31.5 5.5q22 0 39.5 -9.5t32.5 -21.5t30 -21.5t32 -9.5q26 0 40 14
t18 38h32q-1 -21 -8.5 -37t-20 -27t-28 -16.5t-31.5 -5.5z" />
    <glyph glyph-name="Adieresis" unicode="&#xc4;" horiz-adv-x="638" 
d="M297 716h44l284 -716h-38l-87 220h-362l-87 -220h-38zM486 254l-165 418h-4l-165 -418h334zM249 811q-14 0 -23 9t-9 23t9 23t23 9t23 -9t9 -23t-9 -23t-23 -9zM357 843q0 14 9 23t23 9t23 -9t9 -23t-9 -23t-23 -9t-23 9t-9 23z" />
    <glyph glyph-name="Aring" unicode="&#xc5;" horiz-adv-x="638" 
d="M13 0l264 665q-26 11 -42 35.5t-16 55.5q0 21 7.5 39t21 31.5t32 21.5t39.5 8t39 -8t31.5 -21.5t21.5 -31.5t8 -39q0 -31 -16 -55.5t-42 -35.5l264 -665h-38l-87 220h-362l-87 -220h-38zM486 254l-159 402h-16l-159 -402h334zM319 688q27 0 46.5 19t19.5 49t-19.5 49
t-46.5 19t-46.5 -19t-19.5 -49t19.5 -49t46.5 -19z" />
    <glyph glyph-name="AE" unicode="&#xc6;" horiz-adv-x="912" 
d="M499 682v-307h322v-34h-322v-307h354v-34h-390v220h-287l-134 -220h-38l433 716h416v-34h-354zM197 254h266v428h-4z" />
    <glyph glyph-name="Ccedilla" unicode="&#xc7;" horiz-adv-x="720" 
d="M411 -237q-34 0 -59 19.5t-34 47.5l33 14q7 -20 22 -34.5t38 -14.5q28 0 45 17.5t17 46.5q0 28 -17 45.5t-43 17.5q-17 0 -30 -7t-22 -18l-25 12l29 77q-71 7 -130 39t-102 82t-67 114.5t-24 136.5q0 77 27.5 145t75.5 119t114.5 80.5t144.5 29.5q85 0 147 -30.5
t108 -87.5l-25 -24q-87 108 -230 108q-67 0 -126 -25.5t-103.5 -71t-70.5 -108t-26 -135.5q0 -74 26 -136t70.5 -107.5t103.5 -71t126 -25.5q83 0 143 31.5t107 89.5l25 -24q-48 -59 -115 -95t-160 -36h-6l-19 -43q6 5 16.5 9t24.5 4q37 0 63 -26.5t26 -68.5
q0 -39 -27 -67.5t-71 -28.5z" />
    <glyph glyph-name="Egrave" unicode="&#xc8;" horiz-adv-x="531" 
d="M118 682v-307h322v-34h-322v-307h354v-34h-390v716h390v-34h-354zM263 780l-62 120h46l52 -120h-36z" />
    <glyph glyph-name="Eacute" unicode="&#xc9;" horiz-adv-x="531" 
d="M118 682v-307h322v-34h-322v-307h354v-34h-390v716h390v-34h-354zM257 780l52 120h46l-62 -120h-36z" />
    <glyph glyph-name="Ecircumflex" unicode="&#xca;" horiz-adv-x="531" 
d="M118 682v-307h322v-34h-322v-307h354v-34h-390v716h390v-34h-354zM394 784h-38l-75 84h-8l-75 -84h-38v5l98 111h38l98 -111v-5z" />
    <glyph glyph-name="Edieresis" unicode="&#xcb;" horiz-adv-x="531" 
d="M118 682v-307h322v-34h-322v-307h354v-34h-390v716h390v-34h-354zM203 811q-14 0 -23 9t-9 23t9 23t23 9t23 -9t9 -23t-9 -23t-23 -9zM311 843q0 14 9 23t23 9t23 -9t9 -23t-9 -23t-23 -9t-23 9t-9 23z" />
    <glyph glyph-name="Igrave" unicode="&#xcc;" horiz-adv-x="200" 
d="M82 716h36v-716h-36v716zM81 780l-62 120h46l52 -120h-36z" />
    <glyph glyph-name="Iacute" unicode="&#xcd;" horiz-adv-x="200" 
d="M82 716h36v-716h-36v716zM85 780l52 120h46l-62 -120h-36z" />
    <glyph glyph-name="Icircumflex" unicode="&#xce;" horiz-adv-x="200" 
d="M82 716h36v-716h-36v716zM218 784h-38l-75 84h-8l-75 -84h-38v5l98 111h38l98 -111v-5z" />
    <glyph glyph-name="Idieresis" unicode="&#xcf;" horiz-adv-x="200" 
d="M44 811q-14 0 -23 9t-9 23t9 23t23 9t23 -9t9 -23t-9 -23t-23 -9zM124 843q0 14 9 23t23 9t23 -9t9 -23t-9 -23t-23 -9t-23 9t-9 23zM82 716h36v-716h-36v716z" />
    <glyph glyph-name="Eth" unicode="&#xd0;" horiz-adv-x="735" 
d="M139 342h-76v30h76v344h197q85 0 151.5 -26t112 -73t69.5 -113t24 -146t-24 -146t-69.5 -113t-112 -73t-151.5 -26h-197v342zM336 34q72 0 131.5 22t101.5 63.5t65 101.5t23 137t-23 137t-65 101.5t-101.5 63.5t-131.5 22h-161v-310h224v-30h-224v-308h161z" />
    <glyph glyph-name="Ntilde" unicode="&#xd1;" horiz-adv-x="684" 
d="M82 716h53l431 -652h4l-4 138v514h36v-716h-36l-448 678h-4l4 -138v-540h-36v716zM419 794q-23 0 -40 9.5t-32 21.5t-30 21.5t-32 9.5q-26 0 -40 -14t-18 -38h-32q1 21 8.5 37t20 27t28 16.5t31.5 5.5q22 0 39.5 -9.5t32.5 -21.5t30 -21.5t32 -9.5q26 0 40 14t18 38h32
q-1 -21 -8.5 -37t-20 -27t-28 -16.5t-31.5 -5.5z" />
    <glyph glyph-name="Ograve" unicode="&#xd2;" horiz-adv-x="808" 
d="M404 -16q-78 0 -144.5 29.5t-114.5 80.5t-75.5 119t-27.5 145t27.5 145t75.5 119t114.5 80.5t144.5 29.5t144.5 -29.5t114.5 -80.5t75.5 -119t27.5 -145t-27.5 -145t-75.5 -119t-114.5 -80.5t-144.5 -29.5zM404 18q67 0 126 25.5t103.5 71t70.5 107.5t26 136
q0 73 -26 135.5t-70.5 108t-103.5 71t-126 25.5t-126 -25.5t-103.5 -71t-70.5 -108t-26 -135.5q0 -74 26 -136t70.5 -107.5t103.5 -71t126 -25.5zM382 780l-62 120h46l52 -120h-36z" />
    <glyph glyph-name="Oacute" unicode="&#xd3;" horiz-adv-x="808" 
d="M404 -16q-78 0 -144.5 29.5t-114.5 80.5t-75.5 119t-27.5 145t27.5 145t75.5 119t114.5 80.5t144.5 29.5t144.5 -29.5t114.5 -80.5t75.5 -119t27.5 -145t-27.5 -145t-75.5 -119t-114.5 -80.5t-144.5 -29.5zM404 18q67 0 126 25.5t103.5 71t70.5 107.5t26 136
q0 73 -26 135.5t-70.5 108t-103.5 71t-126 25.5t-126 -25.5t-103.5 -71t-70.5 -108t-26 -135.5q0 -74 26 -136t70.5 -107.5t103.5 -71t126 -25.5zM387 780l52 120h46l-62 -120h-36z" />
    <glyph glyph-name="Ocircumflex" unicode="&#xd4;" horiz-adv-x="808" 
d="M404 -16q-78 0 -144.5 29.5t-114.5 80.5t-75.5 119t-27.5 145t27.5 145t75.5 119t114.5 80.5t144.5 29.5t144.5 -29.5t114.5 -80.5t75.5 -119t27.5 -145t-27.5 -145t-75.5 -119t-114.5 -80.5t-144.5 -29.5zM404 18q67 0 126 25.5t103.5 71t70.5 107.5t26 136
q0 73 -26 135.5t-70.5 108t-103.5 71t-126 25.5t-126 -25.5t-103.5 -71t-70.5 -108t-26 -135.5q0 -74 26 -136t70.5 -107.5t103.5 -71t126 -25.5zM521 785h-38l-75 84h-8l-75 -84h-38v5l98 111h38l98 -111v-5z" />
    <glyph glyph-name="Otilde" unicode="&#xd5;" horiz-adv-x="808" 
d="M404 -16q-78 0 -144.5 29.5t-114.5 80.5t-75.5 119t-27.5 145t27.5 145t75.5 119t114.5 80.5t144.5 29.5t144.5 -29.5t114.5 -80.5t75.5 -119t27.5 -145t-27.5 -145t-75.5 -119t-114.5 -80.5t-144.5 -29.5zM404 18q67 0 126 25.5t103.5 71t70.5 107.5t26 136
q0 73 -26 135.5t-70.5 108t-103.5 71t-126 25.5t-126 -25.5t-103.5 -71t-70.5 -108t-26 -135.5q0 -74 26 -136t70.5 -107.5t103.5 -71t126 -25.5zM472 794q-23 0 -40 9.5t-32 21.5t-30 21.5t-32 9.5q-26 0 -40 -14t-18 -38h-32q1 21 8.5 37t20 27t28 16.5t31.5 5.5
q22 0 39.5 -9.5t32.5 -21.5t30 -21.5t32 -9.5q26 0 40 14t18 38h32q-1 -21 -8.5 -37t-20 -27t-28 -16.5t-31.5 -5.5z" />
    <glyph glyph-name="Odieresis" unicode="&#xd6;" horiz-adv-x="808" 
d="M404 -16q-78 0 -144.5 29.5t-114.5 80.5t-75.5 119t-27.5 145t27.5 145t75.5 119t114.5 80.5t144.5 29.5t144.5 -29.5t114.5 -80.5t75.5 -119t27.5 -145t-27.5 -145t-75.5 -119t-114.5 -80.5t-144.5 -29.5zM404 18q67 0 126 25.5t103.5 71t70.5 107.5t26 136
q0 73 -26 135.5t-70.5 108t-103.5 71t-126 25.5t-126 -25.5t-103.5 -71t-70.5 -108t-26 -135.5q0 -74 26 -136t70.5 -107.5t103.5 -71t126 -25.5zM334 811q-14 0 -23 9t-9 23t9 23t23 9t23 -9t9 -23t-9 -23t-23 -9zM442 843q0 14 9 23t23 9t23 -9t9 -23t-9 -23t-23 -9t-23 9
t-9 23z" />
    <glyph glyph-name="multiply" unicode="&#xd7;" horiz-adv-x="502" 
d="M434 427l-160 -156l160 -156l-23 -23l-160 156l-160 -156l-23 23l159 156l-159 156l23 23l160 -156l160 156z" />
    <glyph glyph-name="Oslash" unicode="&#xd8;" horiz-adv-x="808" 
d="M155 -8l37 60q-69 51 -109.5 131t-40.5 175q0 77 27.5 145t75.5 119t114.5 80.5t144.5 29.5q51 0 96.5 -12.5t84.5 -35.5l37 59l31 -19l-37 -60q70 -52 110 -132t40 -174q0 -77 -27.5 -145t-75.5 -119t-114.5 -80.5t-144.5 -29.5q-51 0 -96.5 12.5t-84.5 35.5l-37 -59z
M404 18q67 0 126 25.5t103.5 71t70.5 107.5t26 136q0 88 -36.5 159t-96.5 117l-356 -572q36 -21 77 -32.5t86 -11.5zM78 358q0 -88 36 -159.5t97 -116.5l356 572q-36 21 -77 32.5t-86 11.5q-67 0 -126 -25.5t-103.5 -71t-70.5 -108t-26 -135.5z" />
    <glyph glyph-name="Ugrave" unicode="&#xd9;" horiz-adv-x="628" 
d="M314 -16q-57 0 -103.5 20t-79 56t-50.5 86.5t-18 111.5v458h36v-462q0 -50 15 -93.5t43 -75t68 -49.5t89 -18t88.5 18t67.5 49.5t43.5 75t15.5 93.5v462h36v-458q0 -61 -17 -111.5t-49.5 -86.5t-79 -56t-105.5 -20zM296 780l-62 120h46l52 -120h-36z" />
    <glyph glyph-name="Uacute" unicode="&#xda;" horiz-adv-x="628" 
d="M314 -16q-57 0 -103.5 20t-79 56t-50.5 86.5t-18 111.5v458h36v-462q0 -50 15 -93.5t43 -75t68 -49.5t89 -18t88.5 18t67.5 49.5t43.5 75t15.5 93.5v462h36v-458q0 -61 -17 -111.5t-49.5 -86.5t-79 -56t-105.5 -20zM294 780l52 120h46l-62 -120h-36z" />
    <glyph glyph-name="Ucircumflex" unicode="&#xdb;" horiz-adv-x="628" 
d="M314 -16q-57 0 -103.5 20t-79 56t-50.5 86.5t-18 111.5v458h36v-462q0 -50 15 -93.5t43 -75t68 -49.5t89 -18t88.5 18t67.5 49.5t43.5 75t15.5 93.5v462h36v-458q0 -61 -17 -111.5t-49.5 -86.5t-79 -56t-105.5 -20zM431 784h-38l-75 84h-8l-75 -84h-38v5l98 111h38
l98 -111v-5z" />
    <glyph glyph-name="Udieresis" unicode="&#xdc;" horiz-adv-x="628" 
d="M314 -16q-57 0 -103.5 20t-79 56t-50.5 86.5t-18 111.5v458h36v-462q0 -50 15 -93.5t43 -75t68 -49.5t89 -18t88.5 18t67.5 49.5t43.5 75t15.5 93.5v462h36v-458q0 -61 -17 -111.5t-49.5 -86.5t-79 -56t-105.5 -20zM244 811q-14 0 -23 9t-9 23t9 23t23 9t23 -9t9 -23
t-9 -23t-23 -9zM352 843q0 14 9 23t23 9t23 -9t9 -23t-9 -23t-23 -9t-23 9t-9 23z" />
    <glyph glyph-name="Yacute" unicode="&#xdd;" horiz-adv-x="564" 
d="M266 0v315l-253 401h42l227 -362h4l223 362h42l-249 -401v-315h-36zM261 780l52 120h46l-62 -120h-36z" />
    <glyph glyph-name="Thorn" unicode="&#xde;" horiz-adv-x="549" 
d="M82 0v716h36v-130h184q47 0 87 -14.5t69.5 -41t46.5 -64.5t17 -85t-17 -85t-46.5 -64.5t-69.5 -41t-87 -14.5h-184v-176h-36zM306 210q34 0 66.5 11t58 33t40.5 54t15 73t-15 73t-40.5 53.5t-58 33t-66.5 11.5h-188v-342h188z" />
    <glyph glyph-name="germandbls" unicode="&#xdf;" horiz-adv-x="536" 
d="M408 359.5q26 -15.5 46.5 -39t33 -54t12.5 -67.5q0 -45 -15 -82.5t-43 -65.5t-68 -43.5t-89 -15.5q-34 0 -68 8v32q18 -4 33.5 -6t34.5 -2q39 0 72 12t57 34.5t37 54t13 69.5q0 34 -13 65.5t-37.5 55.5t-60 38t-80.5 14h-47v32h39q39 0 70 11.5t52.5 32t33 48.5t11.5 61
q0 35 -12.5 62.5t-34 46.5t-49 29t-57.5 10q-33 0 -62.5 -11.5t-51 -35t-34.5 -58.5t-13 -82v-513h-36v516q0 47 13.5 87t38.5 68.5t61.5 44.5t83.5 16q42 0 77 -13.5t60 -37.5t38.5 -56.5t13.5 -69.5q0 -67 -32.5 -107.5t-79.5 -60.5v-4q26 -8 52 -23.5z" />
    <glyph glyph-name="agrave" unicode="&#xe0;" horiz-adv-x="501" 
d="M411 106h-4q-29 -56 -81 -89t-112 -33q-40 0 -73.5 12t-58 33t-38 50t-13.5 63q0 40 17.5 70.5t46 51.5t65 31.5t75.5 10.5q48 0 93 -12.5t83 -34.5v39q0 42 -13 74.5t-35.5 55t-53.5 34.5t-68 12q-51 0 -92 -24t-63 -63l-31 19q27 45 77 72.5t109 27.5q46 0 84 -15
t65 -41t42 -62.5t15 -78.5v-309h-36v106zM411 225q-39 23 -80 36t-92 13q-36 0 -67.5 -8.5t-54.5 -25t-36.5 -41t-13.5 -57.5q0 -29 12 -52.5t32.5 -40t47.5 -25t57 -8.5q37 0 72.5 17t62.5 46t43.5 66.5t16.5 79.5zM237 596l-62 120h46l52 -120h-36z" />
    <glyph glyph-name="aacute" unicode="&#xe1;" horiz-adv-x="501" 
d="M411 106h-4q-29 -56 -81 -89t-112 -33q-40 0 -73.5 12t-58 33t-38 50t-13.5 63q0 40 17.5 70.5t46 51.5t65 31.5t75.5 10.5q48 0 93 -12.5t83 -34.5v39q0 42 -13 74.5t-35.5 55t-53.5 34.5t-68 12q-51 0 -92 -24t-63 -63l-31 19q27 45 77 72.5t109 27.5q46 0 84 -15
t65 -41t42 -62.5t15 -78.5v-309h-36v106zM411 225q-39 23 -80 36t-92 13q-36 0 -67.5 -8.5t-54.5 -25t-36.5 -41t-13.5 -57.5q0 -29 12 -52.5t32.5 -40t47.5 -25t57 -8.5q37 0 72.5 17t62.5 46t43.5 66.5t16.5 79.5zM225 596l52 120h46l-62 -120h-36z" />
    <glyph glyph-name="acircumflex" unicode="&#xe2;" horiz-adv-x="501" 
d="M411 106h-4q-29 -56 -81 -89t-112 -33q-40 0 -73.5 12t-58 33t-38 50t-13.5 63q0 40 17.5 70.5t46 51.5t65 31.5t75.5 10.5q48 0 93 -12.5t83 -34.5v39q0 42 -13 74.5t-35.5 55t-53.5 34.5t-68 12q-51 0 -92 -24t-63 -63l-31 19q27 45 77 72.5t109 27.5q46 0 84 -15
t65 -41t42 -62.5t15 -78.5v-309h-36v106zM411 225q-39 23 -80 36t-92 13q-36 0 -67.5 -8.5t-54.5 -25t-36.5 -41t-13.5 -57.5q0 -29 12 -52.5t32.5 -40t47.5 -25t57 -8.5q37 0 72.5 17t62.5 46t43.5 66.5t16.5 79.5zM359 600h-38l-75 84h-8l-75 -84h-38v5l98 111h38l98 -111
v-5z" />
    <glyph glyph-name="atilde" unicode="&#xe3;" horiz-adv-x="501" 
d="M411 106h-4q-29 -56 -81 -89t-112 -33q-40 0 -73.5 12t-58 33t-38 50t-13.5 63q0 40 17.5 70.5t46 51.5t65 31.5t75.5 10.5q48 0 93 -12.5t83 -34.5v39q0 42 -13 74.5t-35.5 55t-53.5 34.5t-68 12q-51 0 -92 -24t-63 -63l-31 19q27 45 77 72.5t109 27.5q46 0 84 -15
t65 -41t42 -62.5t15 -78.5v-309h-36v106zM411 225q-39 23 -80 36t-92 13q-36 0 -67.5 -8.5t-54.5 -25t-36.5 -41t-13.5 -57.5q0 -29 12 -52.5t32.5 -40t47.5 -25t57 -8.5q37 0 72.5 17t62.5 46t43.5 66.5t16.5 79.5zM321 611q-23 0 -40 9.5t-32 21.5t-30 21.5t-32 9.5
q-26 0 -40 -14t-18 -38h-32q1 21 8.5 37t20 27t28 16.5t31.5 5.5q22 0 39.5 -9.5t32.5 -21.5t30 -21.5t32 -9.5q26 0 40 14t18 38h32q-1 -21 -8.5 -37t-20 -27t-28 -16.5t-31.5 -5.5z" />
    <glyph glyph-name="adieresis" unicode="&#xe4;" horiz-adv-x="501" 
d="M411 106h-4q-29 -56 -81 -89t-112 -33q-40 0 -73.5 12t-58 33t-38 50t-13.5 63q0 40 17.5 70.5t46 51.5t65 31.5t75.5 10.5q48 0 93 -12.5t83 -34.5v39q0 42 -13 74.5t-35.5 55t-53.5 34.5t-68 12q-51 0 -92 -24t-63 -63l-31 19q27 45 77 72.5t109 27.5q46 0 84 -15
t65 -41t42 -62.5t15 -78.5v-309h-36v106zM411 225q-39 23 -80 36t-92 13q-36 0 -67.5 -8.5t-54.5 -25t-36.5 -41t-13.5 -57.5q0 -29 12 -52.5t32.5 -40t47.5 -25t57 -8.5q37 0 72.5 17t62.5 46t43.5 66.5t16.5 79.5zM180 627q-14 0 -23 9t-9 23t9 23t23 9t23 -9t9 -23
t-9 -23t-23 -9zM288 659q0 14 9 23t23 9t23 -9t9 -23t-9 -23t-23 -9t-23 9t-9 23z" />
    <glyph glyph-name="aring" unicode="&#xe5;" horiz-adv-x="501" 
d="M411 106h-4q-29 -56 -81 -89t-112 -33q-40 0 -73.5 12t-58 33t-38 50t-13.5 63q0 40 17.5 70.5t46 51.5t65 31.5t75.5 10.5q48 0 93 -12.5t83 -34.5v39q0 42 -13 74.5t-35.5 55t-53.5 34.5t-68 12q-51 0 -92 -24t-63 -63l-31 19q27 45 77 72.5t109 27.5q46 0 84 -15
t65 -41t42 -62.5t15 -78.5v-309h-36v106zM411 225q-39 23 -80 36t-92 13q-36 0 -67.5 -8.5t-54.5 -25t-36.5 -41t-13.5 -57.5q0 -29 12 -52.5t32.5 -40t47.5 -25t57 -8.5q37 0 72.5 17t62.5 46t43.5 66.5t16.5 79.5zM251 569q-21 0 -39.5 7.5t-32 21t-21 32t-7.5 39.5
t7.5 39t21 31.5t32 21.5t39.5 8t39 -8t31.5 -21.5t21.5 -31.5t8 -39t-8 -39.5t-21.5 -32t-31.5 -21t-39 -7.5zM251 601q27 0 46.5 19t19.5 49t-19.5 49t-46.5 19t-46.5 -19t-19.5 -49t19.5 -49t46.5 -19z" />
    <glyph glyph-name="ae" unicode="&#xe6;" horiz-adv-x="900" 
d="M858 116q-12 -26 -30.5 -50t-44 -42t-58.5 -29t-74 -11q-81 0 -140 44t-84 118q-17 -41 -40.5 -71t-52 -50.5t-59.5 -30.5t-61 -10q-40 0 -73.5 12t-58 33t-38 50t-13.5 63q0 40 17.5 70.5t46 51.5t65 31.5t75.5 10.5q48 0 93 -12.5t83 -34.5v39q0 42 -12.5 74.5t-35 55
t-53 34.5t-67.5 12q-25 0 -48.5 -7t-43.5 -19t-35 -28t-24 -35l-32 16q24 48 74 76.5t109 28.5q75 0 126 -37t69 -97q28 60 81 97t126 37q51 0 92.5 -18t70.5 -51t45 -79t16 -102v-5q-1 -3 -1 -5v-6h-421q0 -60 19.5 -102.5t49.5 -69.5t66 -39.5t70 -12.5q36 0 63.5 8.5
t48 23.5t36.5 36t30 46zM411 225q-39 23 -80 36t-92 13q-36 0 -67.5 -8.5t-54.5 -25t-36.5 -41t-13.5 -57.5q0 -29 12 -52.5t32.5 -40t47.5 -25t57 -8.5q37 0 72.5 17t62.5 46t43.5 67t16.5 79zM833 272q-1 31 -11.5 66.5t-32.5 65.5t-58 50t-88 20q-33 0 -65.5 -12t-60 -37
t-46.5 -63t-24 -90h386z" />
    <glyph glyph-name="ccedilla" unicode="&#xe7;" horiz-adv-x="504" 
d="M275 -237q-34 0 -59 19.5t-34 47.5l33 14q7 -20 22 -34.5t38 -14.5q28 0 45 17.5t17 46.5q0 28 -17 45.5t-43 17.5q-17 0 -30 -7t-22 -18l-25 12l30 79q-44 7 -80.5 29.5t-62.5 56t-41 77.5t-15 94q0 56 18 103.5t50.5 82.5t76 55t94.5 20q77 0 128 -36.5t79 -101.5
l-31 -14q-26 58 -69.5 89t-106.5 31q-39 0 -75.5 -16.5t-65 -46.5t-45.5 -72t-17 -94t17 -94t45.5 -72t65 -46.5t75.5 -16.5q63 0 106.5 31t69.5 89l31 -14q-28 -65 -79 -101.5t-128 -36.5h-8l-19 -43q6 5 16.5 9t24.5 4q37 0 63 -26.5t26 -68.5q0 -39 -27 -67.5t-71 -28.5z
" />
    <glyph glyph-name="egrave" unicode="&#xe8;" horiz-adv-x="520" 
d="M478 116q-12 -26 -30.5 -50t-44 -42t-58.5 -29t-74 -11q-52 0 -96 19.5t-76 54.5t-50 82.5t-18 104.5q0 53 16.5 100.5t47 83t74 56.5t96.5 21q51 0 92.5 -18t70.5 -51t45 -79t16 -102v-5q-1 -3 -1 -5v-6h-421q0 -60 19.5 -102.5t49.5 -69.5t66 -39.5t70 -12.5
q36 0 63.5 8.5t48 23.5t36.5 36t30 46zM453 272q-1 31 -11.5 66.5t-32.5 65.5t-58 50t-88 20q-33 0 -65.5 -12t-60 -37t-46.5 -63t-24 -90h386zM243 596l-62 120h46l52 -120h-36z" />
    <glyph glyph-name="eacute" unicode="&#xe9;" horiz-adv-x="520" 
d="M478 116q-12 -26 -30.5 -50t-44 -42t-58.5 -29t-74 -11q-52 0 -96 19.5t-76 54.5t-50 82.5t-18 104.5q0 53 16.5 100.5t47 83t74 56.5t96.5 21q51 0 92.5 -18t70.5 -51t45 -79t16 -102v-5q-1 -3 -1 -5v-6h-421q0 -60 19.5 -102.5t49.5 -69.5t66 -39.5t70 -12.5
q36 0 63.5 8.5t48 23.5t36.5 36t30 46zM453 272q-1 31 -11.5 66.5t-32.5 65.5t-58 50t-88 20q-33 0 -65.5 -12t-60 -37t-46.5 -63t-24 -90h386zM238 596l52 120h46l-62 -120h-36z" />
    <glyph glyph-name="ecircumflex" unicode="&#xea;" horiz-adv-x="520" 
d="M478 116q-12 -26 -30.5 -50t-44 -42t-58.5 -29t-74 -11q-52 0 -96 19.5t-76 54.5t-50 82.5t-18 104.5q0 53 16.5 100.5t47 83t74 56.5t96.5 21q51 0 92.5 -18t70.5 -51t45 -79t16 -102v-5q-1 -3 -1 -5v-6h-421q0 -60 19.5 -102.5t49.5 -69.5t66 -39.5t70 -12.5
q36 0 63.5 8.5t48 23.5t36.5 36t30 46zM453 272q-1 31 -11.5 66.5t-32.5 65.5t-58 50t-88 20q-33 0 -65.5 -12t-60 -37t-46.5 -63t-24 -90h386zM380 591h-38l-75 84h-8l-75 -84h-38v5l98 111h38l98 -111v-5z" />
    <glyph glyph-name="edieresis" unicode="&#xeb;" horiz-adv-x="520" 
d="M478 116q-12 -26 -30.5 -50t-44 -42t-58.5 -29t-74 -11q-52 0 -96 19.5t-76 54.5t-50 82.5t-18 104.5q0 53 16.5 100.5t47 83t74 56.5t96.5 21q51 0 92.5 -18t70.5 -51t45 -79t16 -102v-5q-1 -3 -1 -5v-6h-421q0 -60 19.5 -102.5t49.5 -69.5t66 -39.5t70 -12.5
q36 0 63.5 8.5t48 23.5t36.5 36t30 46zM453 272q-1 31 -11.5 66.5t-32.5 65.5t-58 50t-88 20q-33 0 -65.5 -12t-60 -37t-46.5 -63t-24 -90h386zM188 627q-14 0 -23 9t-9 23t9 23t23 9t23 -9t9 -23t-9 -23t-23 -9zM296 659q0 14 9 23t23 9t23 -9t9 -23t-9 -23t-23 -9t-23 9
t-9 23z" />
    <glyph glyph-name="igrave" unicode="&#xec;" horiz-adv-x="170" 
d="M67 0v490h36v-490h-36zM68 596l-62 120h46l52 -120h-36z" />
    <glyph glyph-name="iacute" unicode="&#xed;" horiz-adv-x="170" 
d="M67 0v490h36v-490h-36zM68 596l52 120h46l-62 -120h-36z" />
    <glyph glyph-name="icircumflex" unicode="&#xee;" horiz-adv-x="170" 
d="M67 0v490h36v-490h-36zM203 600h-38l-75 84h-8l-75 -84h-38v5l98 111h38l98 -111v-5z" />
    <glyph glyph-name="idieresis" unicode="&#xef;" horiz-adv-x="170" 
d="M29 627q-14 0 -23 9t-9 23t9 23t23 9t23 -9t9 -23t-9 -23t-23 -9zM109 659q0 14 9 23t23 9t23 -9t9 -23t-9 -23t-23 -9t-23 9t-9 23zM67 0v490h36v-490h-36z" />
    <glyph glyph-name="eth" unicode="&#xf0;" horiz-adv-x="564" 
d="M168 724q52 -16 97 -37.5t82 -49.5l92 40l14 -33l-74 -33q69 -62 104.5 -148.5t35.5 -200.5q0 -62 -17 -113t-48 -87.5t-75 -57t-98 -20.5q-50 0 -93 19t-75 52.5t-50 79t-18 97.5q0 55 19 100t50.5 76.5t73 48.5t87.5 17q38 0 68.5 -9.5t54 -23.5t40 -30.5t26.5 -29.5
l4 3q-15 68 -47.5 120.5t-77.5 90.5l-169 -75l-14 34l150 66q-34 24 -73 41.5t-81 29.5zM281 16q42 0 78.5 15.5t63.5 44t42.5 68t15.5 87.5q0 47 -16.5 86t-44 66.5t-63.5 43t-75 15.5q-42 0 -78.5 -15.5t-64 -43t-43 -66.5t-15.5 -86q0 -48 16 -87.5t43 -68t63.5 -44
t77.5 -15.5z" />
    <glyph glyph-name="ntilde" unicode="&#xf1;" 
d="M95 374h4q13 27 32 51t43 42t54.5 28.5t68.5 10.5q44 0 76.5 -15t53.5 -42t31.5 -63.5t10.5 -79.5v-306h-36v298q0 81 -35 128.5t-109 47.5q-40 0 -74.5 -18.5t-60 -49.5t-40.5 -72.5t-15 -87.5v-246h-36v490h32v-116zM340 611q-23 0 -40 9.5t-32 21.5t-30 21.5t-32 9.5
q-26 0 -40 -14t-18 -38h-32q1 21 8.5 37t20 27t28 16.5t31.5 5.5q22 0 39.5 -9.5t32.5 -21.5t30 -21.5t32 -9.5q26 0 40 14t18 38h32q-1 -21 -8.5 -37t-20 -27t-28 -16.5t-31.5 -5.5z" />
    <glyph glyph-name="ograve" unicode="&#xf2;" horiz-adv-x="548" 
d="M274 506q52 0 96.5 -20t77 -55t51 -82.5t18.5 -103.5t-18.5 -103.5t-51 -82.5t-77 -55t-96.5 -20t-96.5 20t-77 55t-51 82.5t-18.5 103.5t18.5 103.5t51 82.5t77 55t96.5 20zM274 16q40 0 77.5 17t66.5 47.5t46 72.5t17 92t-17 92t-46 72.5t-66.5 47.5t-77.5 17
q-41 0 -78 -17t-66 -47.5t-46 -72.5t-17 -92t17 -92t46 -72.5t66 -47.5t78 -17zM246 596l-62 120h46l52 -120h-36z" />
    <glyph glyph-name="oacute" unicode="&#xf3;" horiz-adv-x="548" 
d="M274 506q52 0 96.5 -20t77 -55t51 -82.5t18.5 -103.5t-18.5 -103.5t-51 -82.5t-77 -55t-96.5 -20t-96.5 20t-77 55t-51 82.5t-18.5 103.5t18.5 103.5t51 82.5t77 55t96.5 20zM274 16q40 0 77.5 17t66.5 47.5t46 72.5t17 92t-17 92t-46 72.5t-66.5 47.5t-77.5 17
q-41 0 -78 -17t-66 -47.5t-46 -72.5t-17 -92t17 -92t46 -72.5t66 -47.5t78 -17zM255 596l52 120h46l-62 -120h-36z" />
    <glyph glyph-name="ocircumflex" unicode="&#xf4;" horiz-adv-x="548" 
d="M274 506q52 0 96.5 -20t77 -55t51 -82.5t18.5 -103.5t-18.5 -103.5t-51 -82.5t-77 -55t-96.5 -20t-96.5 20t-77 55t-51 82.5t-18.5 103.5t18.5 103.5t51 82.5t77 55t96.5 20zM274 16q40 0 77.5 17t66.5 47.5t46 72.5t17 92t-17 92t-46 72.5t-66.5 47.5t-77.5 17
q-41 0 -78 -17t-66 -47.5t-46 -72.5t-17 -92t17 -92t46 -72.5t66 -47.5t78 -17zM391 600h-38l-75 84h-8l-75 -84h-38v5l98 111h38l98 -111v-5z" />
    <glyph glyph-name="otilde" unicode="&#xf5;" horiz-adv-x="548" 
d="M274 506q52 0 96.5 -20t77 -55t51 -82.5t18.5 -103.5t-18.5 -103.5t-51 -82.5t-77 -55t-96.5 -20t-96.5 20t-77 55t-51 82.5t-18.5 103.5t18.5 103.5t51 82.5t77 55t96.5 20zM274 16q40 0 77.5 17t66.5 47.5t46 72.5t17 92t-17 92t-46 72.5t-66.5 47.5t-77.5 17
q-41 0 -78 -17t-66 -47.5t-46 -72.5t-17 -92t17 -92t46 -72.5t66 -47.5t78 -17zM342 611q-23 0 -40 9.5t-32 21.5t-30 21.5t-32 9.5q-26 0 -40 -14t-18 -38h-32q1 21 8.5 37t20 27t28 16.5t31.5 5.5q22 0 39.5 -9.5t32.5 -21.5t30 -21.5t32 -9.5q26 0 40 14t18 38h32
q-1 -21 -8.5 -37t-20 -27t-28 -16.5t-31.5 -5.5z" />
    <glyph glyph-name="odieresis" unicode="&#xf6;" horiz-adv-x="548" 
d="M274 506q52 0 96.5 -20t77 -55t51 -82.5t18.5 -103.5t-18.5 -103.5t-51 -82.5t-77 -55t-96.5 -20t-96.5 20t-77 55t-51 82.5t-18.5 103.5t18.5 103.5t51 82.5t77 55t96.5 20zM274 16q40 0 77.5 17t66.5 47.5t46 72.5t17 92t-17 92t-46 72.5t-66.5 47.5t-77.5 17
q-41 0 -78 -17t-66 -47.5t-46 -72.5t-17 -92t17 -92t46 -72.5t66 -47.5t78 -17zM204 627q-14 0 -23 9t-9 23t9 23t23 9t23 -9t9 -23t-9 -23t-23 -9zM312 659q0 14 9 23t23 9t23 -9t9 -23t-9 -23t-23 -9t-23 9t-9 23z" />
    <glyph glyph-name="divide" unicode="&#xf7;" horiz-adv-x="538" 
d="M63 287h412v-32h-412v32zM269 452q-15 0 -25 10t-10 25t10 25t25 10t25 -10t10 -25t-10 -25t-25 -10zM269 20q-15 0 -25 10t-10 25t10 25t25 10t25 -10t10 -25t-10 -25t-25 -10z" />
    <glyph glyph-name="oslash" unicode="&#xf8;" horiz-adv-x="548" 
d="M274 506q69 0 122 -33l28 44l30 -19l-29 -46q43 -35 67.5 -88.5t24.5 -118.5q0 -56 -18.5 -103.5t-51 -82.5t-77 -55t-96.5 -20q-34 0 -64.5 8.5t-56.5 23.5l-25 -41l-31 18l27 44q-43 35 -68 88.5t-25 119.5q0 56 18.5 103.5t51 82.5t77 55t96.5 20zM67 245
q0 -57 21 -102t55 -76l235 376q-48 31 -104 31q-41 0 -78 -17t-66 -47.5t-46 -72.5t-17 -92zM274 16q40 0 77.5 17t66.5 47.5t46 72.5t17 92q0 55 -20 100t-55 76l-234 -375q47 -30 102 -30z" />
    <glyph glyph-name="ugrave" unicode="&#xf9;" 
d="M433 116h-4q-14 -27 -32.5 -51t-42.5 -42t-55 -28.5t-68 -10.5q-44 0 -76.5 15t-53.5 42t-31.5 63.5t-10.5 79.5v306h36v-298q0 -81 35 -128.5t109 -47.5q40 0 74.5 18.5t60 49.5t40.5 72.5t15 87.5v246h36v-490h-32v116zM250 596l-62 120h46l52 -120h-36z" />
    <glyph glyph-name="uacute" unicode="&#xfa;" 
d="M433 116h-4q-14 -27 -32.5 -51t-42.5 -42t-55 -28.5t-68 -10.5q-44 0 -76.5 15t-53.5 42t-31.5 63.5t-10.5 79.5v306h36v-298q0 -81 35 -128.5t109 -47.5q40 0 74.5 18.5t60 49.5t40.5 72.5t15 87.5v246h36v-490h-32v116zM240 596l52 120h46l-62 -120h-36z" />
    <glyph glyph-name="ucircumflex" unicode="&#xfb;" 
d="M433 116h-4q-14 -27 -32.5 -51t-42.5 -42t-55 -28.5t-68 -10.5q-44 0 -76.5 15t-53.5 42t-31.5 63.5t-10.5 79.5v306h36v-298q0 -81 35 -128.5t109 -47.5q40 0 74.5 18.5t60 49.5t40.5 72.5t15 87.5v246h36v-490h-32v116zM381 585h-38l-75 84h-8l-75 -84h-38v5l98 111h38
l98 -111v-5z" />
    <glyph glyph-name="udieresis" unicode="&#xfc;" 
d="M433 116h-4q-14 -27 -32.5 -51t-42.5 -42t-55 -28.5t-68 -10.5q-44 0 -76.5 15t-53.5 42t-31.5 63.5t-10.5 79.5v306h36v-298q0 -81 35 -128.5t109 -47.5q40 0 74.5 18.5t60 49.5t40.5 72.5t15 87.5v246h36v-490h-32v116zM196 627q-14 0 -23 9t-9 23t9 23t23 9t23 -9
t9 -23t-9 -23t-23 -9zM304 659q0 14 9 23t23 9t23 -9t9 -23t-9 -23t-23 -9t-23 9t-9 23z" />
    <glyph glyph-name="yacute" unicode="&#xfd;" horiz-adv-x="458" 
d="M214 596l52 120h46l-62 -120h-36zM103 -216l112 257l-209 449h42l185 -404h2l176 404h41l-311 -706h-38z" />
    <glyph glyph-name="thorn" unicode="&#xfe;" horiz-adv-x="562" 
d="M302 506q47 0 89 -19t73 -53.5t49 -82.5t18 -106t-18 -106t-49 -82.5t-73 -53.5t-89 -19q-41 0 -73 9.5t-56.5 26t-42.5 38t-31 45.5h-4l4 -68v-251h-36v932h36v-261l-4 -68h4q13 24 31 45.5t42.5 38t56.5 26t73 9.5zM295 474q-40 0 -76 -15.5t-63.5 -44.5t-44 -72
t-16.5 -97t16.5 -97t44 -72t63.5 -44.5t76 -15.5t76 16t63.5 45.5t44 72t16.5 95.5t-16.5 95.5t-44 72t-63.5 45.5t-76 16z" />
    <glyph glyph-name="ydieresis" unicode="&#xff;" horiz-adv-x="458" 
d="M103 -216l112 257l-209 449h42l185 -404h2l176 404h41l-311 -706h-38zM161 627q-14 0 -23 9t-9 23t9 23t23 9t23 -9t9 -23t-9 -23t-23 -9zM269 659q0 14 9 23t23 9t23 -9t9 -23t-9 -23t-23 -9t-23 9t-9 23z" />
    <glyph glyph-name="Amacron" unicode="&#x100;" horiz-adv-x="638" 
d="M297 716h44l284 -716h-38l-87 220h-362l-87 -220h-38zM486 254l-165 418h-4l-165 -418h334zM191 827v32h256v-32h-256z" />
    <glyph glyph-name="amacron" unicode="&#x101;" horiz-adv-x="501" 
d="M411 106h-4q-29 -56 -81 -89t-112 -33q-40 0 -73.5 12t-58 33t-38 50t-13.5 63q0 40 17.5 70.5t46 51.5t65 31.5t75.5 10.5q48 0 93 -12.5t83 -34.5v39q0 42 -13 74.5t-35.5 55t-53.5 34.5t-68 12q-51 0 -92 -24t-63 -63l-31 19q27 45 77 72.5t109 27.5q46 0 84 -15
t65 -41t42 -62.5t15 -78.5v-309h-36v106zM411 225q-39 23 -80 36t-92 13q-36 0 -67.5 -8.5t-54.5 -25t-36.5 -41t-13.5 -57.5q0 -29 12 -52.5t32.5 -40t47.5 -25t57 -8.5q37 0 72.5 17t62.5 46t43.5 66.5t16.5 79.5zM127 643v32h256v-32h-256z" />
    <glyph glyph-name="Abreve" unicode="&#x102;" horiz-adv-x="638" 
d="M297 716h44l284 -716h-38l-87 220h-362l-87 -220h-38zM486 254l-165 418h-4l-165 -418h334zM320 782q-23 0 -44.5 8.5t-37.5 23.5t-25.5 36t-9.5 46h36q0 -32 21.5 -57t59.5 -25q18 0 33 7t25.5 18.5t16.5 26t6 30.5h34q0 -25 -9.5 -46t-25 -36t-36.5 -23.5t-44 -8.5z
" />
    <glyph glyph-name="abreve" unicode="&#x103;" horiz-adv-x="501" 
d="M411 106h-4q-29 -56 -81 -89t-112 -33q-40 0 -73.5 12t-58 33t-38 50t-13.5 63q0 40 17.5 70.5t46 51.5t65 31.5t75.5 10.5q48 0 93 -12.5t83 -34.5v39q0 42 -13 74.5t-35.5 55t-53.5 34.5t-68 12q-51 0 -92 -24t-63 -63l-31 19q27 45 77 72.5t109 27.5q46 0 84 -15
t65 -41t42 -62.5t15 -78.5v-309h-36v106zM411 225q-39 23 -80 36t-92 13q-36 0 -67.5 -8.5t-54.5 -25t-36.5 -41t-13.5 -57.5q0 -29 12 -52.5t32.5 -40t47.5 -25t57 -8.5q37 0 72.5 17t62.5 46t43.5 66.5t16.5 79.5zM252 598q-23 0 -44.5 8.5t-37.5 23.5t-25.5 36t-9.5 46
h36q0 -32 21.5 -57t59.5 -25q18 0 33 7t25.5 18.5t16.5 26t6 30.5h34q0 -25 -9.5 -46t-25 -36t-36.5 -23.5t-44 -8.5z" />
    <glyph glyph-name="Aogonek" unicode="&#x104;" horiz-adv-x="638" 
d="M297 716h44l284 -716q-38 -26 -57 -54t-19 -63q0 -36 22.5 -55.5t50.5 -19.5q14 0 23 2.5t18 7.5l12 -31q-11 -5 -23.5 -8t-31.5 -3q-49 0 -78 31t-29 77q0 38 22 68.5t52 47.5l-87 220h-362l-87 -220h-38zM486 254l-165 418h-4l-165 -418h334z" />
    <glyph glyph-name="aogonek" unicode="&#x105;" horiz-adv-x="501" 
d="M411 106h-4q-29 -56 -81 -89t-112 -33q-40 0 -73.5 12t-58 33t-38 50t-13.5 63q0 40 17.5 70.5t46 51.5t65 31.5t75.5 10.5q48 0 93 -12.5t83 -34.5v39q0 42 -13 74.5t-35.5 55t-53.5 34.5t-68 12q-51 0 -92 -24t-63 -63l-31 19q27 45 77 72.5t109 27.5q46 0 84 -15
t65 -41t42 -62.5t15 -78.5v-309q-38 -26 -57 -54t-19 -63q0 -36 22.5 -55.5t50.5 -19.5q14 0 23 2.5t18 7.5l12 -31q-11 -5 -23.5 -8t-31.5 -3q-49 0 -78 31t-29 77q0 38 23 68.5t53 47.5v106zM411 225q-39 23 -80 36t-92 13q-36 0 -67.5 -8.5t-54.5 -25t-36.5 -41
t-13.5 -57.5q0 -29 12 -52.5t32.5 -40t47.5 -25t57 -8.5q37 0 72.5 17t62.5 46t43.5 66.5t16.5 79.5z" />
    <glyph glyph-name="Cacute" unicode="&#x106;" horiz-adv-x="720" 
d="M679 115q-48 -59 -115 -95t-160 -36q-78 0 -144.5 29.5t-114.5 80.5t-75.5 119t-27.5 145t27.5 145t75.5 119t114.5 80.5t144.5 29.5q85 0 147 -30.5t108 -87.5l-25 -24q-87 108 -230 108q-67 0 -126 -25.5t-103.5 -71t-70.5 -108t-26 -135.5q0 -74 26 -136t70.5 -107.5
t103.5 -71t126 -25.5q83 0 143 31.5t107 89.5zM382 780l52 120h46l-62 -120h-36z" />
    <glyph glyph-name="cacute" unicode="&#x107;" horiz-adv-x="504" 
d="M477 122q-28 -65 -79 -101.5t-128 -36.5q-51 0 -94.5 20t-76 55t-50.5 82.5t-18 103.5t18 103.5t50.5 82.5t76 55t94.5 20q77 0 128 -36.5t79 -101.5l-31 -14q-26 58 -69.5 89t-106.5 31q-39 0 -75.5 -16.5t-65 -46.5t-45.5 -72t-17 -94t17 -94t45.5 -72t65 -46.5
t75.5 -16.5q63 0 106.5 31t69.5 89zM235 596l52 120h46l-62 -120h-36z" />
    <glyph glyph-name="Ccircumflex" unicode="&#x108;" horiz-adv-x="720" 
d="M679 115q-48 -59 -115 -95t-160 -36q-78 0 -144.5 29.5t-114.5 80.5t-75.5 119t-27.5 145t27.5 145t75.5 119t114.5 80.5t144.5 29.5q85 0 147 -30.5t108 -87.5l-25 -24q-87 108 -230 108q-67 0 -126 -25.5t-103.5 -71t-70.5 -108t-26 -135.5q0 -74 26 -136t70.5 -107.5
t103.5 -71t126 -25.5q83 0 143 31.5t107 89.5zM520 785h-38l-75 84h-8l-75 -84h-38v5l98 111h38l98 -111v-5z" />
    <glyph glyph-name="ccircumflex" unicode="&#x109;" horiz-adv-x="504" 
d="M477 122q-28 -65 -79 -101.5t-128 -36.5q-51 0 -94.5 20t-76 55t-50.5 82.5t-18 103.5t18 103.5t50.5 82.5t76 55t94.5 20q77 0 128 -36.5t79 -101.5l-31 -14q-26 58 -69.5 89t-106.5 31q-39 0 -75.5 -16.5t-65 -46.5t-45.5 -72t-17 -94t17 -94t45.5 -72t65 -46.5
t75.5 -16.5q63 0 106.5 31t69.5 89zM381 600h-38l-75 84h-8l-75 -84h-38v5l98 111h38l98 -111v-5z" />
    <glyph glyph-name="Cdotaccent" unicode="&#x10a;" horiz-adv-x="720" 
d="M679 115q-48 -59 -115 -95t-160 -36q-78 0 -144.5 29.5t-114.5 80.5t-75.5 119t-27.5 145t27.5 145t75.5 119t114.5 80.5t144.5 29.5q85 0 147 -30.5t108 -87.5l-25 -24q-87 108 -230 108q-67 0 -126 -25.5t-103.5 -71t-70.5 -108t-26 -135.5q0 -74 26 -136t70.5 -107.5
t103.5 -71t126 -25.5q83 0 143 31.5t107 89.5zM388 824q-14 0 -23 9t-9 23t9 23t23 9t23 -9t9 -23t-9 -23t-23 -9z" />
    <glyph glyph-name="cdotaccent" unicode="&#x10b;" horiz-adv-x="504" 
d="M477 122q-28 -65 -79 -101.5t-128 -36.5q-51 0 -94.5 20t-76 55t-50.5 82.5t-18 103.5t18 103.5t50.5 82.5t76 55t94.5 20q77 0 128 -36.5t79 -101.5l-31 -14q-26 58 -69.5 89t-106.5 31q-39 0 -75.5 -16.5t-65 -46.5t-45.5 -72t-17 -94t17 -94t45.5 -72t65 -46.5
t75.5 -16.5q63 0 106.5 31t69.5 89zM264 627q-14 0 -23 9t-9 23t9 23t23 9t23 -9t9 -23t-9 -23t-23 -9z" />
    <glyph glyph-name="Ccaron" unicode="&#x10c;" horiz-adv-x="720" 
d="M679 115q-48 -59 -115 -95t-160 -36q-78 0 -144.5 29.5t-114.5 80.5t-75.5 119t-27.5 145t27.5 145t75.5 119t114.5 80.5t144.5 29.5q85 0 147 -30.5t108 -87.5l-25 -24q-87 108 -230 108q-67 0 -126 -25.5t-103.5 -71t-70.5 -108t-26 -135.5q0 -74 26 -136t70.5 -107.5
t103.5 -71t126 -25.5q83 0 143 31.5t107 89.5zM508 895l-98 -111h-38l-98 111v5h38l75 -84h8l75 84h38v-5z" />
    <glyph glyph-name="ccaron" unicode="&#x10d;" horiz-adv-x="504" 
d="M477 122q-28 -65 -79 -101.5t-128 -36.5q-51 0 -94.5 20t-76 55t-50.5 82.5t-18 103.5t18 103.5t50.5 82.5t76 55t94.5 20q77 0 128 -36.5t79 -101.5l-31 -14q-26 58 -69.5 89t-106.5 31q-39 0 -75.5 -16.5t-65 -46.5t-45.5 -72t-17 -94t17 -94t45.5 -72t65 -46.5
t75.5 -16.5q63 0 106.5 31t69.5 89zM386 711l-98 -111h-38l-98 111v5h38l75 -84h8l75 84h38v-5z" />
    <glyph glyph-name="Dcaron" unicode="&#x10e;" horiz-adv-x="678" 
d="M82 716h197q85 0 151.5 -26t112 -73t69.5 -113t24 -146t-24 -146t-69.5 -113t-112 -73t-151.5 -26h-197v716zM279 34q72 0 131.5 22t101.5 63.5t65 101.5t23 137t-23 137t-65 101.5t-101.5 63.5t-131.5 22h-161v-648h161zM426 895l-98 -111h-38l-98 111v5h38l75 -84h8
l75 84h38v-5z" />
    <glyph glyph-name="dcaron" unicode="&#x10f;" horiz-adv-x="599" 
d="M467 103h-4q-13 -24 -31 -45.5t-42.5 -38t-56.5 -26t-73 -9.5q-47 0 -89 19t-73 53.5t-49 82.5t-18 106t18 106t49 82.5t73 53.5t89 19q41 0 73 -9.5t56.5 -26t42.5 -38t31 -45.5h4l-4 68v261h36v-716h-32v103zM267 16q40 0 76 15.5t63.5 44.5t44 72t16.5 97t-16.5 97
t-44 72t-63.5 44.5t-76 15.5t-76 -16t-63.5 -45.5t-44 -72t-16.5 -95.5t16.5 -95.5t44 -72t63.5 -45.5t76 -16zM584 520v196h36l-14 -196h-22z" />
    <glyph glyph-name="Dcroat" unicode="&#x110;" horiz-adv-x="670" 
d="M74 357h-87v30h87v329h197q85 0 151.5 -26t112 -73t69.5 -113t24 -146t-24 -146t-69.5 -113t-112 -73t-151.5 -26h-197v357zM271 34q72 0 131.5 22t101.5 63.5t65 101.5t23 137t-23 137t-65 101.5t-101.5 63.5t-131.5 22h-161v-295h213v-30h-213v-323h161z" />
    <glyph glyph-name="dcroat" unicode="&#x111;" horiz-adv-x="562" 
d="M467 103h-4q-13 -24 -31 -45.5t-42.5 -38t-56.5 -26t-73 -9.5q-47 0 -89 19t-73 53.5t-49 82.5t-18 106t18 106t49 82.5t73 53.5t89 19q41 0 73 -9.5t56.5 -26t42.5 -38t31 -45.5h4l-4 68v137h-177v32h177v92h36v-92h63v-32h-63v-592h-32v103zM267 16q40 0 76 15.5
t63.5 44.5t44 72t16.5 97t-16.5 97t-44 72t-63.5 44.5t-76 15.5t-76 -16t-63.5 -45.5t-44 -72t-16.5 -95.5t16.5 -95.5t44 -72t63.5 -45.5t76 -16z" />
    <glyph glyph-name="Emacron" unicode="&#x112;" horiz-adv-x="531" 
d="M118 682v-307h322v-34h-322v-307h354v-34h-390v716h390v-34h-354zM143 827v32h256v-32h-256z" />
    <glyph glyph-name="emacron" unicode="&#x113;" horiz-adv-x="520" 
d="M478 116q-12 -26 -30.5 -50t-44 -42t-58.5 -29t-74 -11q-52 0 -96 19.5t-76 54.5t-50 82.5t-18 104.5q0 53 16.5 100.5t47 83t74 56.5t96.5 21q51 0 92.5 -18t70.5 -51t45 -79t16 -102v-5q-1 -3 -1 -5v-6h-421q0 -60 19.5 -102.5t49.5 -69.5t66 -39.5t70 -12.5
q36 0 63.5 8.5t48 23.5t36.5 36t30 46zM453 272q-1 31 -11.5 66.5t-32.5 65.5t-58 50t-88 20q-33 0 -65.5 -12t-60 -37t-46.5 -63t-24 -90h386zM136 643v32h256v-32h-256z" />
    <glyph glyph-name="Ebreve" unicode="&#x114;" horiz-adv-x="531" 
d="M118 682v-307h322v-34h-322v-307h354v-34h-390v716h390v-34h-354zM279 782q-23 0 -44.5 8.5t-37.5 23.5t-25.5 36t-9.5 46h36q0 -32 21.5 -57t59.5 -25q18 0 33 7t25.5 18.5t16.5 26t6 30.5h34q0 -25 -9.5 -46t-25 -36t-36.5 -23.5t-44 -8.5z" />
    <glyph glyph-name="ebreve" unicode="&#x115;" horiz-adv-x="520" 
d="M478 116q-12 -26 -30.5 -50t-44 -42t-58.5 -29t-74 -11q-52 0 -96 19.5t-76 54.5t-50 82.5t-18 104.5q0 53 16.5 100.5t47 83t74 56.5t96.5 21q51 0 92.5 -18t70.5 -51t45 -79t16 -102v-5q-1 -3 -1 -5v-6h-421q0 -60 19.5 -102.5t49.5 -69.5t66 -39.5t70 -12.5
q36 0 63.5 8.5t48 23.5t36.5 36t30 46zM453 272q-1 31 -11.5 66.5t-32.5 65.5t-58 50t-88 20q-33 0 -65.5 -12t-60 -37t-46.5 -63t-24 -90h386zM264 598q-23 0 -44.5 8.5t-37.5 23.5t-25.5 36t-9.5 46h36q0 -32 21.5 -57t59.5 -25q18 0 33 7t25.5 18.5t16.5 26t6 30.5h34
q0 -25 -9.5 -46t-25 -36t-36.5 -23.5t-44 -8.5z" />
    <glyph glyph-name="Edotaccent" unicode="&#x116;" horiz-adv-x="531" 
d="M118 682v-307h322v-34h-322v-307h354v-34h-390v716h390v-34h-354zM279 824q-14 0 -23 9t-9 23t9 23t23 9t23 -9t9 -23t-9 -23t-23 -9z" />
    <glyph glyph-name="edotaccent" unicode="&#x117;" horiz-adv-x="520" 
d="M478 116q-12 -26 -30.5 -50t-44 -42t-58.5 -29t-74 -11q-52 0 -96 19.5t-76 54.5t-50 82.5t-18 104.5q0 53 16.5 100.5t47 83t74 56.5t96.5 21q51 0 92.5 -18t70.5 -51t45 -79t16 -102v-5q-1 -3 -1 -5v-6h-421q0 -60 19.5 -102.5t49.5 -69.5t66 -39.5t70 -12.5
q36 0 63.5 8.5t48 23.5t36.5 36t30 46zM453 272q-1 31 -11.5 66.5t-32.5 65.5t-58 50t-88 20q-33 0 -65.5 -12t-60 -37t-46.5 -63t-24 -90h386zM264 627q-14 0 -23 9t-9 23t9 23t23 9t23 -9t9 -23t-9 -23t-23 -9z" />
    <glyph glyph-name="Eogonek" unicode="&#x118;" horiz-adv-x="531" 
d="M467 -224q-49 0 -78 31t-29 77q0 38 23 68.5t53 47.5h-354v716h390v-34h-354v-307h322v-34h-322v-307h354v-34q-38 -26 -57 -54t-19 -63q0 -36 22.5 -55.5t50.5 -19.5q14 0 23 2.5t18 7.5l12 -31q-11 -5 -23.5 -8t-31.5 -3z" />
    <glyph glyph-name="eogonek" unicode="&#x119;" horiz-adv-x="520" 
d="M478 116q-14 -29 -35 -54.5t-51 -45.5q-42 -27 -71 -61t-29 -72q0 -36 22.5 -55.5t50.5 -19.5q14 0 23 2.5t18 7.5l12 -31q-11 -5 -23.5 -8t-31.5 -3q-49 0 -78 31t-29 77q0 32 16.5 59t39.5 45q-10 -2 -20 -3t-21 -1q-52 0 -96 19.5t-76 54.5t-50 82.5t-18 104.5
q0 53 16.5 100.5t47 83t74 56.5t96.5 21q51 0 92.5 -18t70.5 -51t45 -79t16 -102v-5q-1 -3 -1 -5v-6h-421q0 -60 19.5 -102.5t49.5 -69.5t66 -39.5t70 -12.5q36 0 63.5 8.5t48 23.5t36.5 36t30 46zM453 272q-1 31 -11.5 66.5t-32.5 65.5t-58 50t-88 20q-33 0 -65.5 -12
t-60 -37t-46.5 -63t-24 -90h386z" />
    <glyph glyph-name="Ecaron" unicode="&#x11a;" horiz-adv-x="531" 
d="M118 682v-307h322v-34h-322v-307h354v-34h-390v716h390v-34h-354zM394 895l-98 -111h-38l-98 111v5h38l75 -84h8l75 84h38v-5z" />
    <glyph glyph-name="ecaron" unicode="&#x11b;" horiz-adv-x="520" 
d="M478 116q-12 -26 -30.5 -50t-44 -42t-58.5 -29t-74 -11q-52 0 -96 19.5t-76 54.5t-50 82.5t-18 104.5q0 53 16.5 100.5t47 83t74 56.5t96.5 21q51 0 92.5 -18t70.5 -51t45 -79t16 -102v-5q-1 -3 -1 -5v-6h-421q0 -60 19.5 -102.5t49.5 -69.5t66 -39.5t70 -12.5
q36 0 63.5 8.5t48 23.5t36.5 36t30 46zM453 272q-1 31 -11.5 66.5t-32.5 65.5t-58 50t-88 20q-33 0 -65.5 -12t-60 -37t-46.5 -63t-24 -90h386zM377 711l-98 -111h-38l-98 111v5h38l75 -84h8l75 84h38v-5z" />
    <glyph glyph-name="Gcircumflex" unicode="&#x11c;" horiz-adv-x="795" 
d="M420 367h327q2 -12 2.5 -22t0.5 -19q0 -139 -81 -232q-45 -52 -111.5 -81t-149.5 -29q-76 0 -143 29t-116.5 79t-78 118.5t-28.5 147.5t28.5 147.5t78 118.5t116.5 79t143 29q81 0 146 -27.5t110 -78.5l-27 -28q-40 48 -98 74t-129 26q-66 0 -126 -25t-106 -70
t-73 -107.5t-27 -137.5t27.5 -137.5t73.5 -107.5t106 -70t125 -25q75 0 136.5 26t99.5 74q41 52 55 103.5t15 113.5h-296v32zM523 785h-38l-75 84h-8l-75 -84h-38v5l98 111h38l98 -111v-5z" />
    <glyph glyph-name="gcircumflex" unicode="&#x11d;" horiz-adv-x="558" 
d="M262 -232q-45 0 -79 12t-59 31.5t-41.5 45t-26.5 52.5l32 13q9 -29 26 -52t40.5 -38.5t51 -23.5t56.5 -8q98 0 147.5 57.5t49.5 160.5v81h-5q-12 -22 -29.5 -43t-42 -37t-55 -25.5t-67.5 -9.5q-46 0 -87.5 19.5t-73 54.5t-50 83t-18.5 104t18.5 104t50 83t73 54.5
t87.5 19.5q37 0 67.5 -9.5t55 -25.5t42 -37t29.5 -43h5v99h36v-479q0 -59 -17.5 -104.5t-48.5 -76t-74 -46.5t-93 -16zM264 16q38 0 73.5 15t63 44t44 71.5t16.5 98.5q0 55 -16.5 98t-44 72t-63 44t-73.5 15q-37 0 -72.5 -15.5t-63 -45t-44.5 -72t-17 -96.5t17 -96.5
t44.5 -72t63 -45t72.5 -15.5zM382 600h-38l-75 84h-8l-75 -84h-38v5l98 111h38l98 -111v-5z" />
    <glyph glyph-name="Gbreve" unicode="&#x11e;" horiz-adv-x="795" 
d="M420 367h327q2 -12 2.5 -22t0.5 -19q0 -139 -81 -232q-45 -52 -111.5 -81t-149.5 -29q-76 0 -143 29t-116.5 79t-78 118.5t-28.5 147.5t28.5 147.5t78 118.5t116.5 79t143 29q81 0 146 -27.5t110 -78.5l-27 -28q-40 48 -98 74t-129 26q-66 0 -126 -25t-106 -70
t-73 -107.5t-27 -137.5t27.5 -137.5t73.5 -107.5t106 -70t125 -25q75 0 136.5 26t99.5 74q41 52 55 103.5t15 113.5h-296v32zM405 782q-23 0 -44.5 8.5t-37.5 23.5t-25.5 36t-9.5 46h36q0 -32 21.5 -57t59.5 -25q18 0 33 7t25.5 18.5t16.5 26t6 30.5h34q0 -25 -9.5 -46
t-25 -36t-36.5 -23.5t-44 -8.5z" />
    <glyph glyph-name="gbreve" unicode="&#x11f;" horiz-adv-x="558" 
d="M262 -232q-45 0 -79 12t-59 31.5t-41.5 45t-26.5 52.5l32 13q9 -29 26 -52t40.5 -38.5t51 -23.5t56.5 -8q98 0 147.5 57.5t49.5 160.5v81h-5q-12 -22 -29.5 -43t-42 -37t-55 -25.5t-67.5 -9.5q-46 0 -87.5 19.5t-73 54.5t-50 83t-18.5 104t18.5 104t50 83t73 54.5
t87.5 19.5q37 0 67.5 -9.5t55 -25.5t42 -37t29.5 -43h5v99h36v-479q0 -59 -17.5 -104.5t-48.5 -76t-74 -46.5t-93 -16zM264 16q38 0 73.5 15t63 44t44 71.5t16.5 98.5q0 55 -16.5 98t-44 72t-63 44t-73.5 15q-37 0 -72.5 -15.5t-63 -45t-44.5 -72t-17 -96.5t17 -96.5
t44.5 -72t63 -45t72.5 -15.5zM280 598q-23 0 -44.5 8.5t-37.5 23.5t-25.5 36t-9.5 46h36q0 -32 21.5 -57t59.5 -25q18 0 33 7t25.5 18.5t16.5 26t6 30.5h34q0 -25 -9.5 -46t-25 -36t-36.5 -23.5t-44 -8.5z" />
    <glyph glyph-name="Gdotaccent" unicode="&#x120;" horiz-adv-x="795" 
d="M420 367h327q2 -12 2.5 -22t0.5 -19q0 -139 -81 -232q-45 -52 -111.5 -81t-149.5 -29q-76 0 -143 29t-116.5 79t-78 118.5t-28.5 147.5t28.5 147.5t78 118.5t116.5 79t143 29q81 0 146 -27.5t110 -78.5l-27 -28q-40 48 -98 74t-129 26q-66 0 -126 -25t-106 -70
t-73 -107.5t-27 -137.5t27.5 -137.5t73.5 -107.5t106 -70t125 -25q75 0 136.5 26t99.5 74q41 52 55 103.5t15 113.5h-296v32zM393 824q-14 0 -23 9t-9 23t9 23t23 9t23 -9t9 -23t-9 -23t-23 -9z" />
    <glyph glyph-name="gdotaccent" unicode="&#x121;" horiz-adv-x="558" 
d="M262 -232q-45 0 -79 12t-59 31.5t-41.5 45t-26.5 52.5l32 13q9 -29 26 -52t40.5 -38.5t51 -23.5t56.5 -8q98 0 147.5 57.5t49.5 160.5v81h-5q-12 -22 -29.5 -43t-42 -37t-55 -25.5t-67.5 -9.5q-46 0 -87.5 19.5t-73 54.5t-50 83t-18.5 104t18.5 104t50 83t73 54.5
t87.5 19.5q37 0 67.5 -9.5t55 -25.5t42 -37t29.5 -43h5v99h36v-479q0 -59 -17.5 -104.5t-48.5 -76t-74 -46.5t-93 -16zM264 16q38 0 73.5 15t63 44t44 71.5t16.5 98.5q0 55 -16.5 98t-44 72t-63 44t-73.5 15q-37 0 -72.5 -15.5t-63 -45t-44.5 -72t-17 -96.5t17 -96.5
t44.5 -72t63 -45t72.5 -15.5zM273 627q-14 0 -23 9t-9 23t9 23t23 9t23 -9t9 -23t-9 -23t-23 -9z" />
    <glyph glyph-name="uni0122" unicode="&#x122;" horiz-adv-x="795" 
d="M420 367h327q2 -12 2.5 -22t0.5 -19q0 -139 -81 -232q-45 -52 -111.5 -81t-149.5 -29q-76 0 -143 29t-116.5 79t-78 118.5t-28.5 147.5t28.5 147.5t78 118.5t116.5 79t143 29q81 0 146 -27.5t110 -78.5l-27 -28q-40 48 -98 74t-129 26q-66 0 -126 -25t-106 -70
t-73 -107.5t-27 -137.5t27.5 -137.5t73.5 -107.5t106 -70t125 -25q75 0 136.5 26t99.5 74q41 52 55 103.5t15 113.5h-296v32zM359 -186l45 72q-9 4 -15 12.5t-6 18.5q0 15 10 25t25 10t25 -10t10 -25q0 -8 -2 -12.5t-7 -12.5l-62 -93z" />
    <glyph glyph-name="uni0123" unicode="&#x123;" horiz-adv-x="558" 
d="M262 -232q-45 0 -79 12t-59 31.5t-41.5 45t-26.5 52.5l32 13q9 -29 26 -52t40.5 -38.5t51 -23.5t56.5 -8q98 0 147.5 57.5t49.5 160.5v81h-5q-12 -22 -29.5 -43t-42 -37t-55 -25.5t-67.5 -9.5q-46 0 -87.5 19.5t-73 54.5t-50 83t-18.5 104t18.5 104t50 83t73 54.5
t87.5 19.5q37 0 67.5 -9.5t55 -25.5t42 -37t29.5 -43h5v99h36v-479q0 -59 -17.5 -104.5t-48.5 -76t-74 -46.5t-93 -16zM264 16q38 0 73.5 15t63 44t44 71.5t16.5 98.5q0 55 -16.5 98t-44 72t-63 44t-73.5 15q-37 0 -72.5 -15.5t-63 -45t-44.5 -72t-17 -96.5t17 -96.5
t44.5 -72t63 -45t72.5 -15.5zM291.019 709.978l-44.9941 -71.9912q8.99902 -4 14.998 -12.499t5.99902 -18.4971q0 -14.998 -9.99805 -24.9971q-9.99902 -9.99902 -24.9971 -9.99902t-24.9971 9.99902t-9.99902 24.9971q0 7.99902 2 12.498q2 4.5 6.99902 12.498
l61.9922 92.9893z" />
    <glyph glyph-name="Hcircumflex" unicode="&#x124;" horiz-adv-x="678" 
d="M82 716h36v-333h442v333h36v-716h-36v349h-442v-349h-36v716zM456 784h-38l-75 84h-8l-75 -84h-38v5l98 111h38l98 -111v-5z" />
    <glyph glyph-name="hcircumflex" unicode="&#x125;" 
d="M63 716h36v-259l-4 -88h4q27 63 75 100t123 37q44 0 76.5 -15t53.5 -42t31.5 -63.5t10.5 -79.5v-306h-36v298q0 81 -35 128.5t-109 47.5q-39 0 -73.5 -18t-60.5 -49t-41 -72.5t-15 -88.5v-246h-36v716zM392 784h-38l-75 84h-8l-75 -84h-38v5l98 111h38l98 -111v-5z" />
    <glyph glyph-name="Hbar" unicode="&#x126;" horiz-adv-x="678" 
d="M82 526h-64v32h64v158h36v-158h442v158h36v-158h64v-32h-64v-526h-36v349h-442v-349h-36v526zM560 383v143h-442v-143h442z" />
    <glyph glyph-name="hbar" unicode="&#x127;" 
d="M63 592h-66v32h66v92h36v-92h174v-32h-174v-135l-4 -88h4q27 63 75 100t123 37q44 0 76.5 -15t53.5 -42t31.5 -63.5t10.5 -79.5v-306h-36v298q0 81 -35 128.5t-109 47.5q-39 0 -73.5 -18t-60.5 -49t-41 -72.5t-15 -88.5v-246h-36v592z" />
    <glyph glyph-name="Itilde" unicode="&#x128;" horiz-adv-x="200" 
d="M82 716h36v-716h-36v716zM169 794q-23 0 -40 9.5t-32 21.5t-30 21.5t-32 9.5q-26 0 -40 -14t-18 -38h-32q1 21 8.5 37t20 27t28 16.5t31.5 5.5q22 0 39.5 -9.5t32.5 -21.5t30 -21.5t32 -9.5q26 0 40 14t18 38h32q-1 -21 -8.5 -37t-20 -27t-28 -16.5t-31.5 -5.5z" />
    <glyph glyph-name="itilde" unicode="&#x129;" horiz-adv-x="170" 
d="M67 0v490h36v-490h-36zM154 610q-23 0 -40 9.5t-32 21.5t-30 21.5t-32 9.5q-26 0 -40 -14t-18 -38h-32q1 21 8.5 37t20 27t28 16.5t31.5 5.5q22 0 39.5 -9.5t32.5 -21.5t30 -21.5t32 -9.5q26 0 40 14t18 38h32q-1 -21 -8.5 -37t-20 -27t-28 -16.5t-31.5 -5.5z" />
    <glyph glyph-name="Imacron" unicode="&#x12a;" horiz-adv-x="200" 
d="M-16 827v32h232v-32h-232zM82 716h36v-716h-36v716z" />
    <glyph glyph-name="imacron" unicode="&#x12b;" horiz-adv-x="170" 
d="M67 0v490h36v-490h-36zM-42 643v32h256v-32h-256z" />
    <glyph glyph-name="Ibreve" unicode="&#x12c;" horiz-adv-x="200" 
d="M82 716h36v-716h-36v716zM102 782q-23 0 -44.5 8.5t-37.5 23.5t-25.5 36t-9.5 46h36q0 -32 21.5 -57t59.5 -25q18 0 33 7t25.5 18.5t16.5 26t6 30.5h34q0 -25 -9.5 -46t-25 -36t-36.5 -23.5t-44 -8.5z" />
    <glyph glyph-name="ibreve" unicode="&#x12d;" horiz-adv-x="170" 
d="M67 0v490h36v-490h-36zM87 598q-23 0 -44.5 8.5t-37.5 23.5t-25.5 36t-9.5 46h36q0 -32 21.5 -57t59.5 -25q18 0 33 7t25.5 18.5t16.5 26t6 30.5h34q0 -25 -9.5 -46t-25 -36t-36.5 -23.5t-44 -8.5z" />
    <glyph glyph-name="Iogonek" unicode="&#x12e;" horiz-adv-x="200" 
d="M82 716h36v-716q-38 -26 -57 -54t-19 -63q0 -36 22.5 -55.5t50.5 -19.5q14 0 23 2.5t18 7.5l12 -31q-11 -5 -23.5 -8t-31.5 -3q-49 0 -78 31t-29 77q0 38 23 68.5t53 47.5v716z" />
    <glyph glyph-name="iogonek" unicode="&#x12f;" horiz-adv-x="170" 
d="M98 -224q-49 0 -78 31t-29 77q0 38 23 68.5t53 47.5v490h36v-490q-38 -26 -57 -54t-19 -63q0 -36 22.5 -55.5t50.5 -19.5q14 0 23 2.5t18 7.5l12 -31q-11 -5 -23.5 -8t-31.5 -3zM85 625q-14 0 -24 10t-10 24t10 24t24 10t24 -10t10 -24t-10 -24t-24 -10z" />
    <glyph glyph-name="Idotaccent" unicode="&#x130;" horiz-adv-x="200" 
d="M82 716h36v-716h-36v716zM101 824q-14 0 -23 9t-9 23t9 23t23 9t23 -9t9 -23t-9 -23t-23 -9z" />
    <glyph glyph-name="dotlessi" unicode="&#x131;" horiz-adv-x="170" 
d="M67 0v490h36v-490h-36z" />
    <glyph glyph-name="Jcircumflex" unicode="&#x134;" horiz-adv-x="503" 
d="M232 -16q-73 0 -127.5 43t-77.5 124l29 12q25 -80 72 -112.5t104 -32.5q75 0 121 48.5t46 144.5v505h36v-501q0 -111 -55 -171t-148 -60zM522 784h-38l-75 84h-8l-75 -84h-38v5l98 111h38l98 -111v-5z" />
    <glyph glyph-name="jcircumflex" unicode="&#x135;" horiz-adv-x="170" 
d="M208 600h-38l-75 84h-8l-75 -84h-38v5l98 111h38l98 -111v-5zM-31 -186q14 -8 35 -8q31 0 47 22.5t16 62.5v599h36v-601q0 -51 -23.5 -83t-74.5 -32q-13 0 -25.5 3t-19.5 7z" />
    <glyph glyph-name="uni0136" unicode="&#x136;" horiz-adv-x="567" 
d="M82 716h36v-430h4l373 430h42v-4l-258 -299l286 -409v-4h-41l-271 384l-135 -157v-227h-36v716zM237 -186l45 72q-9 4 -15 12.5t-6 18.5q0 15 10 25t25 10t25 -10t10 -25q0 -8 -2 -12.5t-7 -12.5l-62 -93z" />
    <glyph glyph-name="uni0137" unicode="&#x137;" horiz-adv-x="455" 
d="M63 716h36v-510l284 284h44v-4l-177 -179l205 -303v-4h-40l-191 281l-125 -125v-156h-36v716zM175 -186l45 72q-9 4 -15 12.5t-6 18.5q0 15 10 25t25 10t25 -10t10 -25q0 -8 -2 -12.5t-7 -12.5l-62 -93z" />
    <glyph glyph-name="kgreenlandic" unicode="&#x138;" horiz-adv-x="411" 
d="M99 0h-36v490h36v-228h4l250 228h49v-4l-253 -229l262 -253v-4h-46l-262 252h-4v-252z" />
    <glyph glyph-name="Lacute" unicode="&#x139;" horiz-adv-x="483" 
d="M82 716h36v-682h338v-34h-374v716zM89 780l52 120h46l-62 -120h-36z" />
    <glyph glyph-name="lacute" unicode="&#x13a;" horiz-adv-x="162" 
d="M63 0v716h36v-716h-36zM66 780l52 120h46l-62 -120h-36z" />
    <glyph glyph-name="uni013B" unicode="&#x13b;" horiz-adv-x="483" 
d="M82 716h36v-682h338v-34h-374v716zM210 -186l45 72q-9 4 -15 12.5t-6 18.5q0 15 10 25t25 10t25 -10t10 -25q0 -8 -2 -12.5t-7 -12.5l-62 -93z" />
    <glyph glyph-name="uni013C" unicode="&#x13c;" horiz-adv-x="162" 
d="M63 0v716h36v-716h-36zM23 -186l45 72q-9 4 -15 12.5t-6 18.5q0 15 10 25t25 10t25 -10t10 -25q0 -8 -2 -12.5t-7 -12.5l-62 -93z" />
    <glyph glyph-name="Lcaron" unicode="&#x13d;" horiz-adv-x="483" 
d="M82 716h36v-682h338v-34h-374v716zM337 520v196h36l-14 -196h-22z" />
    <glyph glyph-name="lcaron" unicode="&#x13e;" horiz-adv-x="248" 
d="M86 0v716h36v-716h-36zM215 520v196h36l-14 -196h-22z" />
    <glyph glyph-name="Ldot" unicode="&#x13f;" horiz-adv-x="483" 
d="M82 716h36v-682h338v-34h-374v716zM314 309q-15 0 -25 10t-10 25t10 25t25 10t25 -10t10 -25t-10 -25t-25 -10z" />
    <glyph glyph-name="Lslash" unicode="&#x141;" horiz-adv-x="539" 
d="M138 313l-73 -45l-18 28l91 57v363h36v-338l167 104l18 -29l-185 -115v-304h338v-34h-374v313z" />
    <glyph glyph-name="lslash" unicode="&#x142;" horiz-adv-x="312" 
d="M140 0v344l-87 -64l-19 25l106 78v333h36v-312l94 70l19 -26l-113 -83v-365h-36z" />
    <glyph glyph-name="Nacute" unicode="&#x143;" horiz-adv-x="684" 
d="M82 716h53l431 -652h4l-4 138v514h36v-716h-36l-448 678h-4l4 -138v-540h-36v716zM339 780l52 120h46l-62 -120h-36z" />
    <glyph glyph-name="nacute" unicode="&#x144;" 
d="M95 374h4q13 27 32 51t43 42t54.5 28.5t68.5 10.5q44 0 76.5 -15t53.5 -42t31.5 -63.5t10.5 -79.5v-306h-36v298q0 81 -35 128.5t-109 47.5q-40 0 -74.5 -18.5t-60 -49.5t-40.5 -72.5t-15 -87.5v-246h-36v490h32v-116zM256 596l52 120h46l-62 -120h-36z" />
    <glyph glyph-name="uni0145" unicode="&#x145;" horiz-adv-x="684" 
d="M82 716h53l431 -652h4l-4 138v514h36v-716h-36l-448 678h-4l4 -138v-540h-36v716zM283 -186l45 72q-9 4 -15 12.5t-6 18.5q0 15 10 25t25 10t25 -10t10 -25q0 -8 -2 -12.5t-7 -12.5l-62 -93z" />
    <glyph glyph-name="uni0146" unicode="&#x146;" 
d="M95 374h4q13 27 32 51t43 42t54.5 28.5t68.5 10.5q44 0 76.5 -15t53.5 -42t31.5 -63.5t10.5 -79.5v-306h-36v298q0 81 -35 128.5t-109 47.5q-40 0 -74.5 -18.5t-60 -49.5t-40.5 -72.5t-15 -87.5v-246h-36v490h32v-116zM207 -186l45 72q-9 4 -15 12.5t-6 18.5q0 15 10 25
t25 10t25 -10t10 -25q0 -8 -2 -12.5t-7 -12.5l-62 -93z" />
    <glyph glyph-name="Ncaron" unicode="&#x147;" horiz-adv-x="684" 
d="M82 716h53l431 -652h4l-4 138v514h36v-716h-36l-448 678h-4l4 -138v-540h-36v716zM464 895l-98 -111h-38l-98 111v5h38l75 -84h8l75 84h38v-5z" />
    <glyph glyph-name="ncaron" unicode="&#x148;" 
d="M95 374h4q13 27 32 51t43 42t54.5 28.5t68.5 10.5q44 0 76.5 -15t53.5 -42t31.5 -63.5t10.5 -79.5v-306h-36v298q0 81 -35 128.5t-109 47.5q-40 0 -74.5 -18.5t-60 -49.5t-40.5 -72.5t-15 -87.5v-246h-36v490h32v-116zM385 711l-98 -111h-38l-98 111v5h38l75 -84h8l75 84
h38v-5z" />
    <glyph glyph-name="Eng" unicode="&#x14a;" horiz-adv-x="684" 
d="M82 716h53l431 -652h4l-4 138v514h36v-827q0 -51 -23.5 -83t-74.5 -32q-16 0 -27 3t-18 7l9 30q14 -8 35 -8q31 0 47 22.5t16 62.5v109l-448 678h-4l4 -138v-540h-36v716z" />
    <glyph glyph-name="eng" unicode="&#x14b;" 
d="M95 374h4q13 27 32 51t43 42t54.5 28.5t68.5 10.5q44 0 76.5 -15t53.5 -42t31.5 -63.5t10.5 -79.5v-417q0 -51 -23.5 -83t-74.5 -32q-13 0 -25.5 3t-19.5 7l9 30q14 -8 35 -8q31 0 47 22.5t16 62.5v407q0 81 -35 128.5t-109 47.5q-40 0 -74.5 -18.5t-60 -49.5
t-40.5 -72.5t-15 -87.5v-246h-36v490h32v-116z" />
    <glyph glyph-name="Omacron" unicode="&#x14c;" horiz-adv-x="808" 
d="M404 -16q-78 0 -144.5 29.5t-114.5 80.5t-75.5 119t-27.5 145t27.5 145t75.5 119t114.5 80.5t144.5 29.5t144.5 -29.5t114.5 -80.5t75.5 -119t27.5 -145t-27.5 -145t-75.5 -119t-114.5 -80.5t-144.5 -29.5zM404 18q67 0 126 25.5t103.5 71t70.5 107.5t26 136
q0 73 -26 135.5t-70.5 108t-103.5 71t-126 25.5t-126 -25.5t-103.5 -71t-70.5 -108t-26 -135.5q0 -74 26 -136t70.5 -107.5t103.5 -71t126 -25.5zM276 827v32h256v-32h-256z" />
    <glyph glyph-name="omacron" unicode="&#x14d;" horiz-adv-x="548" 
d="M274 506q52 0 96.5 -20t77 -55t51 -82.5t18.5 -103.5t-18.5 -103.5t-51 -82.5t-77 -55t-96.5 -20t-96.5 20t-77 55t-51 82.5t-18.5 103.5t18.5 103.5t51 82.5t77 55t96.5 20zM274 16q40 0 77.5 17t66.5 47.5t46 72.5t17 92t-17 92t-46 72.5t-66.5 47.5t-77.5 17
q-41 0 -78 -17t-66 -47.5t-46 -72.5t-17 -92t17 -92t46 -72.5t66 -47.5t78 -17zM146 643v32h256v-32h-256z" />
    <glyph glyph-name="Obreve" unicode="&#x14e;" horiz-adv-x="808" 
d="M404 -16q-78 0 -144.5 29.5t-114.5 80.5t-75.5 119t-27.5 145t27.5 145t75.5 119t114.5 80.5t144.5 29.5t144.5 -29.5t114.5 -80.5t75.5 -119t27.5 -145t-27.5 -145t-75.5 -119t-114.5 -80.5t-144.5 -29.5zM404 18q67 0 126 25.5t103.5 71t70.5 107.5t26 136
q0 73 -26 135.5t-70.5 108t-103.5 71t-126 25.5t-126 -25.5t-103.5 -71t-70.5 -108t-26 -135.5q0 -74 26 -136t70.5 -107.5t103.5 -71t126 -25.5zM406 782q-23 0 -44.5 8.5t-37.5 23.5t-25.5 36t-9.5 46h36q0 -32 21.5 -57t59.5 -25q18 0 33 7t25.5 18.5t16.5 26t6 30.5h34
q0 -25 -9.5 -46t-25 -36t-36.5 -23.5t-44 -8.5z" />
    <glyph glyph-name="obreve" unicode="&#x14f;" horiz-adv-x="548" 
d="M274 506q52 0 96.5 -20t77 -55t51 -82.5t18.5 -103.5t-18.5 -103.5t-51 -82.5t-77 -55t-96.5 -20t-96.5 20t-77 55t-51 82.5t-18.5 103.5t18.5 103.5t51 82.5t77 55t96.5 20zM274 16q40 0 77.5 17t66.5 47.5t46 72.5t17 92t-17 92t-46 72.5t-66.5 47.5t-77.5 17
q-41 0 -78 -17t-66 -47.5t-46 -72.5t-17 -92t17 -92t46 -72.5t66 -47.5t78 -17zM276 598q-23 0 -44.5 8.5t-37.5 23.5t-25.5 36t-9.5 46h36q0 -32 21.5 -57t59.5 -25q18 0 33 7t25.5 18.5t16.5 26t6 30.5h34q0 -25 -9.5 -46t-25 -36t-36.5 -23.5t-44 -8.5z" />
    <glyph glyph-name="Ohungarumlaut" unicode="&#x150;" horiz-adv-x="808" 
d="M404 -16q-78 0 -144.5 29.5t-114.5 80.5t-75.5 119t-27.5 145t27.5 145t75.5 119t114.5 80.5t144.5 29.5t144.5 -29.5t114.5 -80.5t75.5 -119t27.5 -145t-27.5 -145t-75.5 -119t-114.5 -80.5t-144.5 -29.5zM404 18q67 0 126 25.5t103.5 71t70.5 107.5t26 136
q0 73 -26 135.5t-70.5 108t-103.5 71t-126 25.5t-126 -25.5t-103.5 -71t-70.5 -108t-26 -135.5q0 -74 26 -136t70.5 -107.5t103.5 -71t126 -25.5zM451 780l52 120h46l-62 -120h-36zM329 780l52 120h46l-62 -120h-36z" />
    <glyph glyph-name="ohungarumlaut" unicode="&#x151;" horiz-adv-x="548" 
d="M274 506q52 0 96.5 -20t77 -55t51 -82.5t18.5 -103.5t-18.5 -103.5t-51 -82.5t-77 -55t-96.5 -20t-96.5 20t-77 55t-51 82.5t-18.5 103.5t18.5 103.5t51 82.5t77 55t96.5 20zM274 16q40 0 77.5 17t66.5 47.5t46 72.5t17 92t-17 92t-46 72.5t-66.5 47.5t-77.5 17
q-41 0 -78 -17t-66 -47.5t-46 -72.5t-17 -92t17 -92t46 -72.5t66 -47.5t78 -17zM199 596l52 120h46l-62 -120h-36zM321 596l52 120h46l-62 -120h-36z" />
    <glyph glyph-name="OE" unicode="&#x152;" horiz-adv-x="1179" 
d="M766 682v-307h322v-34h-322v-307h354v-34h-390v193q-21 -46 -54 -84.5t-75 -66t-92 -43t-105 -15.5q-78 0 -144.5 29.5t-114.5 80.5t-75.5 119t-27.5 145t27.5 145t75.5 119t114.5 80.5t144.5 29.5q55 0 105 -15.5t92 -43t75 -66.5t54 -85v194h390v-34h-354zM404 18
q67 0 126 25.5t103.5 71t70.5 107.5t26 136q0 73 -26 135.5t-70.5 108t-103.5 71t-126 25.5t-126 -25.5t-103.5 -71t-70.5 -108t-26 -135.5q0 -74 26 -136t70.5 -107.5t103.5 -71t126 -25.5z" />
    <glyph glyph-name="oe" unicode="&#x153;" horiz-adv-x="970" 
d="M928 116q-12 -26 -30.5 -50t-44 -42t-58.5 -29t-74 -11q-79 0 -138 42.5t-85 114.5q-27 -71 -86.5 -114t-137.5 -43q-52 0 -96.5 20t-77 55t-51 82.5t-18.5 103.5t18.5 103.5t51 82.5t77 55t96.5 20q78 0 137.5 -43t86.5 -115q25 69 81 113.5t136 44.5q51 0 92.5 -18
t70.5 -51t45 -79t16 -102v-5q-1 -3 -1 -5v-6h-421q0 -60 19.5 -102.5t49.5 -69.5t66 -39.5t70 -12.5q36 0 63.5 8.5t48 23.5t36.5 36t30 46zM274 16q40 0 77.5 17t66.5 47.5t46 72.5t17 92t-17 92t-46 72.5t-66.5 47.5t-77.5 17q-41 0 -78 -17t-66 -47.5t-46 -72.5t-17 -92
t17 -92t46 -72.5t66 -47.5t78 -17zM903 272q-1 31 -11.5 66.5t-32.5 65.5t-58 50t-88 20q-33 0 -65.5 -12t-60 -37t-46.5 -63t-24 -90h386z" />
    <glyph glyph-name="Racute" unicode="&#x154;" horiz-adv-x="559" 
d="M82 716h230q45 0 83 -15t66.5 -42t44.5 -65t16 -83q0 -38 -14 -71t-38 -58.5t-57 -43t-71 -26.5l-2 -3l208 -305v-4h-38l-210 306h-182v-306h-36v716zM298 340q37 0 71 12.5t60 35t41.5 54t15.5 69.5q0 41 -15 73t-40.5 53.5t-58 33t-66.5 11.5h-188v-342h180zM254 780
l52 120h46l-62 -120h-36z" />
    <glyph glyph-name="racute" unicode="&#x155;" horiz-adv-x="306" 
d="M63 0v490h32v-92h4q7 24 21.5 43.5t33.5 33.5t40.5 21.5t42.5 7.5q22 0 36.5 -3t28.5 -11l-11 -31q-11 6 -24.5 9.5t-32.5 3.5q-26 0 -50 -13.5t-43 -39t-30.5 -61t-11.5 -78.5v-280h-36zM160 596l52 120h46l-62 -120h-36z" />
    <glyph glyph-name="uni0156" unicode="&#x156;" horiz-adv-x="559" 
d="M82 716h230q45 0 83 -15t66.5 -42t44.5 -65t16 -83q0 -38 -14 -71t-38 -58.5t-57 -43t-71 -26.5l-2 -3l208 -305v-4h-38l-210 306h-182v-306h-36v716zM298 340q37 0 71 12.5t60 35t41.5 54t15.5 69.5q0 41 -15 73t-40.5 53.5t-58 33t-66.5 11.5h-188v-342h180zM243 -186
l45 72q-9 4 -15 12.5t-6 18.5q0 15 10 25t25 10t25 -10t10 -25q0 -8 -2 -12.5t-7 -12.5l-62 -93z" />
    <glyph glyph-name="uni0157" unicode="&#x157;" horiz-adv-x="306" 
d="M63 0v490h32v-92h4q7 24 21.5 43.5t33.5 33.5t40.5 21.5t42.5 7.5q22 0 36.5 -3t28.5 -11l-11 -31q-11 6 -24.5 9.5t-32.5 3.5q-26 0 -50 -13.5t-43 -39t-30.5 -61t-11.5 -78.5v-280h-36zM22 -186l45 72q-9 4 -15 12.5t-6 18.5q0 15 10 25t25 10t25 -10t10 -25
q0 -8 -2 -12.5t-7 -12.5l-62 -93z" />
    <glyph glyph-name="Rcaron" unicode="&#x158;" horiz-adv-x="559" 
d="M82 716h230q45 0 83 -15t66.5 -42t44.5 -65t16 -83q0 -38 -14 -71t-38 -58.5t-57 -43t-71 -26.5l-2 -3l208 -305v-4h-38l-210 306h-182v-306h-36v716zM298 340q37 0 71 12.5t60 35t41.5 54t15.5 69.5q0 41 -15 73t-40.5 53.5t-58 33t-66.5 11.5h-188v-342h180zM392 895
l-98 -111h-38l-98 111v5h38l75 -84h8l75 84h38v-5z" />
    <glyph glyph-name="rcaron" unicode="&#x159;" horiz-adv-x="306" 
d="M63 0v490h32v-92h4q7 24 21.5 43.5t33.5 33.5t40.5 21.5t42.5 7.5q22 0 36.5 -3t28.5 -11l-11 -31q-11 6 -24.5 9.5t-32.5 3.5q-26 0 -50 -13.5t-43 -39t-30.5 -61t-11.5 -78.5v-280h-36zM286 711l-98 -111h-38l-98 111v5h38l75 -84h8l75 84h38v-5z" />
    <glyph glyph-name="Sacute" unicode="&#x15a;" horiz-adv-x="531" 
d="M264 -16q-37 0 -74.5 13t-69.5 37.5t-56.5 60t-36.5 80.5l33 14q10 -39 29.5 -70.5t46.5 -54t60 -34.5t71 -12t71.5 11.5t58.5 32.5t39.5 51.5t14.5 68.5q0 64 -48 105t-127 69l-45 16q-34 12 -65.5 27.5t-55.5 36.5t-38 49.5t-14 66.5q0 36 15 69t42 57.5t63.5 39
t80.5 14.5q48 0 83.5 -14t60.5 -35.5t40.5 -46t22.5 -45.5l-34 -15q-6 21 -19.5 42.5t-34.5 39.5t-50.5 29t-68.5 11q-34 0 -64 -10.5t-52.5 -30t-35.5 -46.5t-13 -59q0 -30 12 -52.5t33 -40.5t48.5 -32t59.5 -25l47 -17q40 -15 75 -32.5t61.5 -41t41.5 -53.5t15 -70
q0 -53 -19.5 -91t-51 -63.5t-71.5 -37.5t-81 -12zM239 780l52 120h46l-62 -120h-36z" />
    <glyph glyph-name="sacute" unicode="&#x15b;" horiz-adv-x="441" 
d="M227 -16q-38 0 -70.5 11t-58 30t-43.5 44.5t-28 55.5l32 14q20 -59 66 -91t102 -32q70 0 110.5 32t40.5 80q0 18 -6 33.5t-21.5 29t-41 24t-64.5 19.5l-63 14q-26 6 -51.5 15.5t-45.5 24.5t-33 35.5t-13 47.5q0 31 15.5 56t41.5 42.5t58.5 27t67.5 9.5q64 0 113.5 -29
t69.5 -85l-31 -13q-23 50 -60 72.5t-91 22.5q-29 0 -55.5 -7t-47 -20.5t-33 -32.5t-12.5 -43q0 -19 9.5 -33.5t26 -26t39 -20t48.5 -14.5l70 -16q74 -17 110 -51.5t36 -78.5q0 -31 -13 -57.5t-37.5 -46.5t-59 -31.5t-77.5 -11.5zM198 596l52 120h46l-62 -120h-36z" />
    <glyph glyph-name="Scircumflex" unicode="&#x15c;" horiz-adv-x="531" 
d="M264 -16q-37 0 -74.5 13t-69.5 37.5t-56.5 60t-36.5 80.5l33 14q10 -39 29.5 -70.5t46.5 -54t60 -34.5t71 -12t71.5 11.5t58.5 32.5t39.5 51.5t14.5 68.5q0 64 -48 105t-127 69l-45 16q-34 12 -65.5 27.5t-55.5 36.5t-38 49.5t-14 66.5q0 36 15 69t42 57.5t63.5 39
t80.5 14.5q48 0 83.5 -14t60.5 -35.5t40.5 -46t22.5 -45.5l-34 -15q-6 21 -19.5 42.5t-34.5 39.5t-50.5 29t-68.5 11q-34 0 -64 -10.5t-52.5 -30t-35.5 -46.5t-13 -59q0 -30 12 -52.5t33 -40.5t48.5 -32t59.5 -25l47 -17q40 -15 75 -32.5t61.5 -41t41.5 -53.5t15 -70
q0 -53 -19.5 -91t-51 -63.5t-71.5 -37.5t-81 -12zM373 785h-38l-75 84h-8l-75 -84h-38v5l98 111h38l98 -111v-5z" />
    <glyph glyph-name="scircumflex" unicode="&#x15d;" horiz-adv-x="441" 
d="M227 -16q-38 0 -70.5 11t-58 30t-43.5 44.5t-28 55.5l32 14q20 -59 66 -91t102 -32q70 0 110.5 32t40.5 80q0 18 -6 33.5t-21.5 29t-41 24t-64.5 19.5l-63 14q-26 6 -51.5 15.5t-45.5 24.5t-33 35.5t-13 47.5q0 31 15.5 56t41.5 42.5t58.5 27t67.5 9.5q64 0 113.5 -29
t69.5 -85l-31 -13q-23 50 -60 72.5t-91 22.5q-29 0 -55.5 -7t-47 -20.5t-33 -32.5t-12.5 -43q0 -19 9.5 -33.5t26 -26t39 -20t48.5 -14.5l70 -16q74 -17 110 -51.5t36 -78.5q0 -31 -13 -57.5t-37.5 -46.5t-59 -31.5t-77.5 -11.5zM341 600h-38l-75 84h-8l-75 -84h-38v5
l98 111h38l98 -111v-5z" />
    <glyph glyph-name="uni015E" unicode="&#x15e;" horiz-adv-x="531" 
d="M277 -237q-34 0 -59 19.5t-34 47.5l33 14q7 -20 22 -34.5t38 -14.5q28 0 45 17.5t17 46.5q0 28 -17 45.5t-43 17.5q-17 0 -30 -7t-22 -18l-25 12l30 78q-33 5 -65.5 20t-60 39t-48.5 56.5t-31 72.5l33 14q10 -39 29.5 -70.5t46.5 -54t60 -34.5t71 -12t71.5 11.5
t58.5 32.5t39.5 51.5t14.5 68.5q0 64 -48 105t-127 69l-45 16q-34 12 -65.5 27.5t-55.5 36.5t-38 49.5t-14 66.5q0 36 15 69t42 57.5t63.5 39t80.5 14.5q48 0 83.5 -14t60.5 -35.5t40.5 -46t22.5 -45.5l-34 -15q-6 21 -19.5 42.5t-34.5 39.5t-50.5 29t-68.5 11
q-34 0 -64 -10.5t-52.5 -30t-35.5 -46.5t-13 -59q0 -30 12 -52.5t33 -40.5t48.5 -32t59.5 -25l47 -17q40 -15 75 -32.5t61.5 -41t41.5 -53.5t15 -70q0 -53 -19.5 -91t-51 -63.5t-71.5 -37.5t-81 -12l-19 -43q6 5 16.5 9t24.5 4q37 0 63 -26.5t26 -68.5q0 -39 -27 -67.5
t-71 -28.5z" />
    <glyph glyph-name="uni015F" unicode="&#x15f;" horiz-adv-x="441" 
d="M244 -237q-34 0 -59 19.5t-34 47.5l33 14q7 -20 22 -34.5t38 -14.5q28 0 45 17.5t17 46.5q0 28 -17 45.5t-43 17.5q-17 0 -30 -7t-22 -18l-25 12l29 77q-66 8 -109.5 46.5t-61.5 92.5l32 14q20 -59 66 -91t102 -32q70 0 110.5 32t40.5 80q0 18 -6 33.5t-21.5 29t-41 24
t-64.5 19.5l-63 14q-26 6 -51.5 15.5t-45.5 24.5t-33 35.5t-13 47.5q0 31 15.5 56t41.5 42.5t58.5 27t67.5 9.5q64 0 113.5 -29t69.5 -85l-31 -13q-23 50 -60 72.5t-91 22.5q-29 0 -55.5 -7t-47 -20.5t-33 -32.5t-12.5 -43q0 -19 9.5 -33.5t26 -26t39 -20t48.5 -14.5l70 -16
q74 -17 110 -51.5t36 -78.5q0 -30 -13 -56.5t-36.5 -46.5t-57.5 -31.5t-76 -12.5l-19 -43q6 5 16.5 9t24.5 4q37 0 63 -26.5t26 -68.5q0 -39 -27 -67.5t-71 -28.5z" />
    <glyph glyph-name="Scaron" unicode="&#x160;" horiz-adv-x="531" 
d="M264 -16q-37 0 -74.5 13t-69.5 37.5t-56.5 60t-36.5 80.5l33 14q10 -39 29.5 -70.5t46.5 -54t60 -34.5t71 -12t71.5 11.5t58.5 32.5t39.5 51.5t14.5 68.5q0 64 -48 105t-127 69l-45 16q-34 12 -65.5 27.5t-55.5 36.5t-38 49.5t-14 66.5q0 36 15 69t42 57.5t63.5 39
t80.5 14.5q48 0 83.5 -14t60.5 -35.5t40.5 -46t22.5 -45.5l-34 -15q-6 21 -19.5 42.5t-34.5 39.5t-50.5 29t-68.5 11q-34 0 -64 -10.5t-52.5 -30t-35.5 -46.5t-13 -59q0 -30 12 -52.5t33 -40.5t48.5 -32t59.5 -25l47 -17q40 -15 75 -32.5t61.5 -41t41.5 -53.5t15 -70
q0 -53 -19.5 -91t-51 -63.5t-71.5 -37.5t-81 -12zM380 895l-98 -111h-38l-98 111v5h38l75 -84h8l75 84h38v-5z" />
    <glyph glyph-name="scaron" unicode="&#x161;" horiz-adv-x="441" 
d="M227 -16q-38 0 -70.5 11t-58 30t-43.5 44.5t-28 55.5l32 14q20 -59 66 -91t102 -32q70 0 110.5 32t40.5 80q0 18 -6 33.5t-21.5 29t-41 24t-64.5 19.5l-63 14q-26 6 -51.5 15.5t-45.5 24.5t-33 35.5t-13 47.5q0 31 15.5 56t41.5 42.5t58.5 27t67.5 9.5q64 0 113.5 -29
t69.5 -85l-31 -13q-23 50 -60 72.5t-91 22.5q-29 0 -55.5 -7t-47 -20.5t-33 -32.5t-12.5 -43q0 -19 9.5 -33.5t26 -26t39 -20t48.5 -14.5l70 -16q74 -17 110 -51.5t36 -78.5q0 -31 -13 -57.5t-37.5 -46.5t-59 -31.5t-77.5 -11.5zM337 711l-98 -111h-38l-98 111v5h38l75 -84
h8l75 84h38v-5z" />
    <glyph glyph-name="uni0162" unicode="&#x162;" horiz-adv-x="502" 
d="M243 -59q6 5 16.5 9t24.5 4q37 0 63 -26.5t26 -68.5q0 -39 -27 -67.5t-71 -28.5q-34 0 -59 19.5t-34 47.5l33 14q7 -20 22 -34.5t38 -14.5q28 0 45 17.5t17 46.5q0 28 -17 45.5t-43 17.5q-17 0 -30 -7t-22 -18l-25 12l33 91v682h-206v34h448v-34h-206v-682z" />
    <glyph glyph-name="uni0163" unicode="&#x163;" horiz-adv-x="321" 
d="M119 458h-92v32h92v150h36v-150h124v-32h-124v-347q0 -23 7.5 -39t19.5 -27q22 -21 53 -21q14 0 26.5 2.5t26.5 10.5l11 -29q-14 -8 -30 -12t-37 -4q-8 0 -15.5 1t-15.5 3l-24 -55q6 5 16.5 9t24.5 4q37 0 63 -26.5t26 -68.5q0 -39 -27 -67.5t-71 -28.5q-34 0 -59 19.5
t-34 47.5l33 14q7 -20 22 -34.5t38 -14.5q28 0 45 17.5t17 46.5q0 28 -17 45.5t-43 17.5q-17 0 -30 -7t-22 -18l-25 12l38 99q-5 3 -8 5q-4 2 -8 6q-17 14 -27 37.5t-10 58.5v343z" />
    <glyph glyph-name="Tcaron" unicode="&#x164;" horiz-adv-x="502" 
d="M233 0v682h-206v34h448v-34h-206v-682h-36zM369 895l-98 -111h-38l-98 111v5h38l75 -84h8l75 84h38v-5z" />
    <glyph glyph-name="tcaron" unicode="&#x165;" horiz-adv-x="320" 
d="M263 554v162h44l-28 -162h-16zM119 458h-92v32h92v150h36v-150h124v-32h-124v-347q0 -23 7.5 -39t19.5 -27q22 -21 53 -21q14 0 26.5 2.5t26.5 10.5l11 -29q-14 -8 -30 -12t-37 -4q-20 0 -39.5 6.5t-36.5 20.5t-27 37.5t-10 58.5v343z" />
    <glyph glyph-name="Tbar" unicode="&#x166;" horiz-adv-x="502" 
d="M233 0v358h-145v32h145v292h-206v34h448v-34h-206v-292h143v-32h-143v-358h-36z" />
    <glyph glyph-name="tbar" unicode="&#x167;" horiz-adv-x="321" 
d="M119 248h-92v32h92v178h-92v32h92v150h36v-150h124v-32h-124v-178h124v-32h-124v-137q0 -23 7.5 -39t19.5 -27q22 -21 53 -21q14 0 26.5 2.5t26.5 10.5l11 -29q-14 -8 -30 -12t-37 -4q-20 0 -39.5 6.5t-36.5 20.5t-27 37.5t-10 58.5v133z" />
    <glyph glyph-name="Utilde" unicode="&#x168;" horiz-adv-x="628" 
d="M314 -16q-57 0 -103.5 20t-79 56t-50.5 86.5t-18 111.5v458h36v-462q0 -50 15 -93.5t43 -75t68 -49.5t89 -18t88.5 18t67.5 49.5t43.5 75t15.5 93.5v462h36v-458q0 -61 -17 -111.5t-49.5 -86.5t-79 -56t-105.5 -20zM382 794q-23 0 -40 9.5t-32 21.5t-30 21.5t-32 9.5
q-26 0 -40 -14t-18 -38h-32q1 21 8.5 37t20 27t28 16.5t31.5 5.5q22 0 39.5 -9.5t32.5 -21.5t30 -21.5t32 -9.5q26 0 40 14t18 38h32q-1 -21 -8.5 -37t-20 -27t-28 -16.5t-31.5 -5.5z" />
    <glyph glyph-name="utilde" unicode="&#x169;" 
d="M433 116h-4q-14 -27 -32.5 -51t-42.5 -42t-55 -28.5t-68 -10.5q-44 0 -76.5 15t-53.5 42t-31.5 63.5t-10.5 79.5v306h36v-298q0 -81 35 -128.5t109 -47.5q40 0 74.5 18.5t60 49.5t40.5 72.5t15 87.5v246h36v-490h-32v116zM336 610q-23 0 -40 9.5t-32 21.5t-30 21.5
t-32 9.5q-26 0 -40 -14t-18 -38h-32q1 21 8.5 37t20 27t28 16.5t31.5 5.5q22 0 39.5 -9.5t32.5 -21.5t30 -21.5t32 -9.5q26 0 40 14t18 38h32q-1 -21 -8.5 -37t-20 -27t-28 -16.5t-31.5 -5.5z" />
    <glyph glyph-name="Umacron" unicode="&#x16a;" horiz-adv-x="628" 
d="M314 -16q-57 0 -103.5 20t-79 56t-50.5 86.5t-18 111.5v458h36v-462q0 -50 15 -93.5t43 -75t68 -49.5t89 -18t88.5 18t67.5 49.5t43.5 75t15.5 93.5v462h36v-458q0 -61 -17 -111.5t-49.5 -86.5t-79 -56t-105.5 -20zM186 827v32h256v-32h-256z" />
    <glyph glyph-name="umacron" unicode="&#x16b;" 
d="M433 116h-4q-14 -27 -32.5 -51t-42.5 -42t-55 -28.5t-68 -10.5q-44 0 -76.5 15t-53.5 42t-31.5 63.5t-10.5 79.5v306h36v-298q0 -81 35 -128.5t109 -47.5q40 0 74.5 18.5t60 49.5t40.5 72.5t15 87.5v246h36v-490h-32v116zM136 643v32h256v-32h-256z" />
    <glyph glyph-name="Ubreve" unicode="&#x16c;" horiz-adv-x="628" 
d="M314 -16q-57 0 -103.5 20t-79 56t-50.5 86.5t-18 111.5v458h36v-462q0 -50 15 -93.5t43 -75t68 -49.5t89 -18t88.5 18t67.5 49.5t43.5 75t15.5 93.5v462h36v-458q0 -61 -17 -111.5t-49.5 -86.5t-79 -56t-105.5 -20zM316 782q-23 0 -44.5 8.5t-37.5 23.5t-25.5 36t-9.5 46
h36q0 -32 21.5 -57t59.5 -25q18 0 33 7t25.5 18.5t16.5 26t6 30.5h34q0 -25 -9.5 -46t-25 -36t-36.5 -23.5t-44 -8.5z" />
    <glyph glyph-name="ubreve" unicode="&#x16d;" 
d="M433 116h-4q-14 -27 -32.5 -51t-42.5 -42t-55 -28.5t-68 -10.5q-44 0 -76.5 15t-53.5 42t-31.5 63.5t-10.5 79.5v306h36v-298q0 -81 35 -128.5t109 -47.5q40 0 74.5 18.5t60 49.5t40.5 72.5t15 87.5v246h36v-490h-32v116zM266 583q-23 0 -44.5 8.5t-37.5 23.5t-25.5 36
t-9.5 46h36q0 -32 21.5 -57t59.5 -25q18 0 33 7t25.5 18.5t16.5 26t6 30.5h34q0 -25 -9.5 -46t-25 -36t-36.5 -23.5t-44 -8.5z" />
    <glyph glyph-name="Uring" unicode="&#x16e;" horiz-adv-x="628" 
d="M314 -16q-57 0 -103.5 20t-79 56t-50.5 86.5t-18 111.5v458h36v-462q0 -50 15 -93.5t43 -75t68 -49.5t89 -18t88.5 18t67.5 49.5t43.5 75t15.5 93.5v462h36v-458q0 -61 -17 -111.5t-49.5 -86.5t-79 -56t-105.5 -20zM314 756q-21 0 -39.5 7.5t-32 21t-21 32t-7.5 39.5
t7.5 39t21 31.5t32 21.5t39.5 8t39 -8t31.5 -21.5t21.5 -31.5t8 -39t-8 -39.5t-21.5 -32t-31.5 -21t-39 -7.5zM314 788q27 0 46.5 19t19.5 49t-19.5 49t-46.5 19t-46.5 -19t-19.5 -49t19.5 -49t46.5 -19z" />
    <glyph glyph-name="uring" unicode="&#x16f;" 
d="M433 116h-4q-14 -27 -32.5 -51t-42.5 -42t-55 -28.5t-68 -10.5q-44 0 -76.5 15t-53.5 42t-31.5 63.5t-10.5 79.5v306h36v-298q0 -81 35 -128.5t109 -47.5q40 0 74.5 18.5t60 49.5t40.5 72.5t15 87.5v246h36v-490h-32v116zM264 572q-21 0 -39.5 7.5t-32 21t-21 32
t-7.5 39.5t7.5 39t21 31.5t32 21.5t39.5 8t39 -8t31.5 -21.5t21.5 -31.5t8 -39t-8 -39.5t-21.5 -32t-31.5 -21t-39 -7.5zM264 604q27 0 46.5 19t19.5 49t-19.5 49t-46.5 19t-46.5 -19t-19.5 -49t19.5 -49t46.5 -19z" />
    <glyph glyph-name="Uhungarumlaut" unicode="&#x170;" horiz-adv-x="628" 
d="M314 -16q-57 0 -103.5 20t-79 56t-50.5 86.5t-18 111.5v458h36v-462q0 -50 15 -93.5t43 -75t68 -49.5t89 -18t88.5 18t67.5 49.5t43.5 75t15.5 93.5v462h36v-458q0 -61 -17 -111.5t-49.5 -86.5t-79 -56t-105.5 -20zM353 780l52 120h46l-62 -120h-36zM231 780l52 120h46
l-62 -120h-36z" />
    <glyph glyph-name="uhungarumlaut" unicode="&#x171;" 
d="M433 116h-4q-14 -27 -32.5 -51t-42.5 -42t-55 -28.5t-68 -10.5q-44 0 -76.5 15t-53.5 42t-31.5 63.5t-10.5 79.5v306h36v-298q0 -81 35 -128.5t109 -47.5q40 0 74.5 18.5t60 49.5t40.5 72.5t15 87.5v246h36v-490h-32v116zM184 596l52 120h46l-62 -120h-36zM306 596
l52 120h46l-62 -120h-36z" />
    <glyph glyph-name="Uogonek" unicode="&#x172;" horiz-adv-x="628" 
d="M314 -16q-57 0 -103.5 20t-79 56t-50.5 86.5t-18 111.5v458h36v-462q0 -50 15 -93.5t43 -75t68 -49.5t89 -18t88.5 18t67.5 49.5t43.5 75t15.5 93.5v462h36v-458q0 -82 -30 -143.5t-88 -96.5q-21 -13 -40.5 -29t-34 -34t-23.5 -36.5t-9 -35.5q0 -36 22.5 -55.5
t50.5 -19.5q14 0 23 2.5t18 7.5l12 -31q-11 -5 -23.5 -8t-31.5 -3q-49 0 -78 31t-29 77q0 32 16.5 59t40.5 45q-11 -2 -23 -3t-24 -1z" />
    <glyph glyph-name="uogonek" unicode="&#x173;" 
d="M433 116h-4q-14 -27 -32.5 -51t-42.5 -42t-55 -28.5t-68 -10.5q-44 0 -76.5 15t-53.5 42t-31.5 63.5t-10.5 79.5v306h36v-298q0 -81 35 -128.5t109 -47.5q40 0 74.5 18.5t60 49.5t40.5 72.5t15 87.5v246h36v-490q-38 -26 -57 -54t-19 -63q0 -36 22.5 -55.5t50.5 -19.5
q14 0 23 2.5t18 7.5l12 -31q-11 -5 -23.5 -8t-31.5 -3q-49 0 -78 31t-29 77q0 38 23 68.5t57 47.5v116z" />
    <glyph glyph-name="Wcircumflex" unicode="&#x174;" horiz-adv-x="894" 
d="M673 0h-40l-180 568h-4l-180 -568h-40l-211 716h38l191 -656h4l179 560h42l179 -560h4l183 656h38zM568 784h-38l-75 84h-8l-75 -84h-38v5l98 111h38l98 -111v-5z" />
    <glyph glyph-name="wcircumflex" unicode="&#x175;" horiz-adv-x="710" 
d="M510 0l-156 451l-153 -451h-31l-166 490h34l148 -437h1l148 437h41l149 -432h1l148 432h32l-166 -490h-30zM471 600h-38l-75 84h-8l-75 -84h-38v5l98 111h38l98 -111v-5z" />
    <glyph glyph-name="Ycircumflex" unicode="&#x176;" horiz-adv-x="564" 
d="M266 0v315l-253 401h42l227 -362h4l223 362h42l-249 -401v-315h-36zM401 784h-38l-75 84h-8l-75 -84h-38v5l98 111h38l98 -111v-5z" />
    <glyph glyph-name="ycircumflex" unicode="&#x177;" horiz-adv-x="458" 
d="M103 -216l112 257l-209 449h42l185 -404h2l176 404h41l-311 -706h-38zM348 600h-38l-75 84h-8l-75 -84h-38v5l98 111h38l98 -111v-5z" />
    <glyph glyph-name="Ydieresis" unicode="&#x178;" horiz-adv-x="564" 
d="M266 0v315l-253 401h42l227 -362h4l223 362h42l-249 -401v-315h-36zM214 811q-14 0 -23 9t-9 23t9 23t23 9t23 -9t9 -23t-9 -23t-23 -9zM322 843q0 14 9 23t23 9t23 -9t9 -23t-9 -23t-23 -9t-23 9t-9 23z" />
    <glyph glyph-name="Zacute" unicode="&#x179;" horiz-adv-x="541" 
d="M36 42l419 640h-403v34h440v-42l-419 -640h423v-34h-460v42zM249 780l52 120h46l-62 -120h-36z" />
    <glyph glyph-name="zacute" unicode="&#x17a;" horiz-adv-x="440" 
d="M36 28l321 430h-313v32h356v-28l-321 -430h325v-32h-368v28zM211 596l52 120h46l-62 -120h-36z" />
    <glyph glyph-name="Zdotaccent" unicode="&#x17b;" horiz-adv-x="541" 
d="M36 42l419 640h-403v34h440v-42l-419 -640h423v-34h-460v42zM274 824q-14 0 -23 9t-9 23t9 23t23 9t23 -9t9 -23t-9 -23t-23 -9z" />
    <glyph glyph-name="zdotaccent" unicode="&#x17c;" horiz-adv-x="440" 
d="M36 28l321 430h-313v32h356v-28l-321 -430h325v-32h-368v28zM226 627q-14 0 -23 9t-9 23t9 23t23 9t23 -9t9 -23t-9 -23t-23 -9z" />
    <glyph glyph-name="Zcaron" unicode="&#x17d;" horiz-adv-x="541" 
d="M36 42l419 640h-403v34h440v-42l-419 -640h423v-34h-460v42zM393 895l-98 -111h-38l-98 111v5h38l75 -84h8l75 84h38v-5z" />
    <glyph glyph-name="zcaron" unicode="&#x17e;" horiz-adv-x="440" 
d="M36 28l321 430h-313v32h356v-28l-321 -430h325v-32h-368v28zM345 711l-98 -111h-38l-98 111v5h38l75 -84h8l75 84h38v-5z" />
    <glyph glyph-name="uni0192" unicode="&#x192;" horiz-adv-x="548" 
d="M113 -188q34 0 54 25.5t30 75.5l84 435h-119v32h125l41 207q12 63 48 98t94 35q21 0 36 -4t29 -12l-13 -30q-11 7 -24.5 10.5t-31.5 3.5q-39 0 -66 -25.5t-38 -82.5l-39 -200h151v-32h-157l-86 -442q-11 -59 -39.5 -92.5t-84.5 -33.5q-22 0 -35.5 5.5t-27.5 13.5l11 30
q11 -8 25 -12.5t33 -4.5z" />
    <glyph glyph-name="Aringacute" unicode="&#x1fa;" horiz-adv-x="638" 
d="M13 0l264 665q-26 11 -42 35.5t-16 55.5q0 39 25 67t63 32l33 77h46l-41 -79q32 -8 53 -35t21 -62q0 -31 -16 -55.5t-42 -35.5l264 -665h-38l-87 220h-362l-87 -220h-38zM486 254l-159 402h-16l-159 -402h334zM319 688q27 0 46.5 19t19.5 49t-19.5 49t-46.5 19t-46.5 -19
t-19.5 -49t19.5 -49t46.5 -19z" />
    <glyph glyph-name="aringacute" unicode="&#x1fb;" horiz-adv-x="501" 
d="M232 794l43 106h48l-59 -106h-32zM411 106h-4q-29 -56 -81 -89t-112 -33q-40 0 -73.5 12t-58 33t-38 50t-13.5 63q0 40 17.5 70.5t46 51.5t65 31.5t75.5 10.5q48 0 93 -12.5t83 -34.5v39q0 42 -13 74.5t-35.5 55t-53.5 34.5t-68 12q-51 0 -92 -24t-63 -63l-31 19
q27 45 77 72.5t109 27.5q46 0 84 -15t65 -41t42 -62.5t15 -78.5v-309h-36v106zM411 225q-39 23 -80 36t-92 13q-36 0 -67.5 -8.5t-54.5 -25t-36.5 -41t-13.5 -57.5q0 -29 12 -52.5t32.5 -40t47.5 -25t57 -8.5q37 0 72.5 17t62.5 46t43.5 66.5t16.5 79.5zM251 572
q-21 0 -39.5 7.5t-32 21t-21 32t-7.5 39.5t7.5 39t21 31.5t32 21.5t39.5 8t39 -8t31.5 -21.5t21.5 -31.5t8 -39t-8 -39.5t-21.5 -32t-31.5 -21t-39 -7.5zM251 604q27 0 46.5 19t19.5 49t-19.5 49t-46.5 19t-46.5 -19t-19.5 -49t19.5 -49t46.5 -19z" />
    <glyph glyph-name="AEacute" unicode="&#x1fc;" horiz-adv-x="912" 
d="M499 682v-307h322v-34h-322v-307h354v-34h-390v220h-287l-134 -220h-38l433 716h416v-34h-354zM197 254h266v428h-4zM623 780l52 120h46l-62 -120h-36z" />
    <glyph glyph-name="aeacute" unicode="&#x1fd;" horiz-adv-x="900" 
d="M858 116q-12 -26 -30.5 -50t-44 -42t-58.5 -29t-74 -11q-81 0 -140 44t-84 118q-17 -41 -40.5 -71t-52 -50.5t-59.5 -30.5t-61 -10q-40 0 -73.5 12t-58 33t-38 50t-13.5 63q0 40 17.5 70.5t46 51.5t65 31.5t75.5 10.5q48 0 93 -12.5t83 -34.5v39q0 42 -12.5 74.5t-35 55
t-53 34.5t-67.5 12q-25 0 -48.5 -7t-43.5 -19t-35 -28t-24 -35l-32 16q24 48 74 76.5t109 28.5q75 0 126 -37t69 -97q28 60 81 97t126 37q51 0 92.5 -18t70.5 -51t45 -79t16 -102v-5q-1 -3 -1 -5v-6h-421q0 -60 19.5 -102.5t49.5 -69.5t66 -39.5t70 -12.5q36 0 63.5 8.5
t48 23.5t36.5 36t30 46zM411 225q-39 23 -80 36t-92 13q-36 0 -67.5 -8.5t-54.5 -25t-36.5 -41t-13.5 -57.5q0 -29 12 -52.5t32.5 -40t47.5 -25t57 -8.5q37 0 72.5 17t62.5 46t43.5 67t16.5 79zM833 272q-1 31 -11.5 66.5t-32.5 65.5t-58 50t-88 20q-33 0 -65.5 -12t-60 -37
t-46.5 -63t-24 -90h386zM425 596l52 120h46l-62 -120h-36z" />
    <glyph glyph-name="Oslashacute" unicode="&#x1fe;" horiz-adv-x="808" 
d="M155 -8l37 60q-69 51 -109.5 131t-40.5 175q0 77 27.5 145t75.5 119t114.5 80.5t144.5 29.5q51 0 96 -12.5t85 -35.5l37 59l31 -19l-37 -60q69 -51 109.5 -131.5t40.5 -174.5q0 -77 -27.5 -145t-75.5 -119t-114.5 -80.5t-144.5 -29.5q-51 0 -96 12.5t-85 35.5l-37 -59z
M404 18q67 0 126 25.5t103.5 71t70.5 107.5t26 136q0 88 -36.5 159t-96.5 117l-356 -572q36 -21 77 -32.5t86 -11.5zM78 358q0 -88 36 -159.5t97 -116.5l355 572q-36 21 -76.5 32.5t-85.5 11.5q-67 0 -126 -25.5t-103.5 -71t-70.5 -108t-26 -135.5zM387 780l52 120h46
l-62 -120h-36z" />
    <glyph glyph-name="oslashacute" unicode="&#x1ff;" horiz-adv-x="548" 
d="M274 506q36 0 68.5 -10t60.5 -27l30 48l30 -19l-32 -51q40 -35 63 -87t23 -115q0 -56 -18.5 -103.5t-51 -82.5t-77 -55t-96.5 -20q-63 0 -114 28l-23 -37l-31 18l24 39q-46 35 -72.5 90t-26.5 123q0 56 18.5 103.5t51 82.5t77 55t96.5 20zM67 245q0 -59 22.5 -106
t59.5 -77l235 377q-25 17 -53 26t-57 9q-41 0 -78 -17t-66 -47.5t-46 -72.5t-17 -92zM274 16q40 0 77.5 17t66.5 47.5t46 72.5t17 92q0 53 -19 96.5t-50 74.5l-233 -374q44 -26 95 -26zM255 596l52 120h46l-62 -120h-36z" />
    <glyph glyph-name="uni0218" unicode="&#x218;" horiz-adv-x="531" 
d="M264 -16q-37 0 -74.5 13t-69.5 37.5t-56.5 60t-36.5 80.5l33 14q10 -39 29.5 -70.5t46.5 -54t60 -34.5t71 -12t71.5 11.5t58.5 32.5t39.5 51.5t14.5 68.5q0 64 -48 105t-127 69l-45 16q-34 12 -65.5 27.5t-55.5 36.5t-38 49.5t-14 66.5q0 36 15 69t42 57.5t63.5 39
t80.5 14.5q48 0 83.5 -14t60.5 -35.5t40.5 -46t22.5 -45.5l-34 -15q-6 21 -19.5 42.5t-34.5 39.5t-50.5 29t-68.5 11q-34 0 -64 -10.5t-52.5 -30t-35.5 -46.5t-13 -59q0 -30 12 -52.5t33 -40.5t48.5 -32t59.5 -25l47 -17q40 -15 75 -32.5t61.5 -41t41.5 -53.5t15 -70
q0 -53 -19.5 -91t-51 -63.5t-71.5 -37.5t-81 -12zM218 -186l45 72q-9 4 -15 12.5t-6 18.5q0 15 10 25t25 10t25 -10t10 -25q0 -8 -2 -12.5t-7 -12.5l-62 -93z" />
    <glyph glyph-name="uni0219" unicode="&#x219;" horiz-adv-x="441" 
d="M227 -16q-38 0 -70.5 11t-58 30t-43.5 44.5t-28 55.5l32 14q20 -59 66 -91t102 -32q70 0 110.5 32t40.5 80q0 18 -6 33.5t-21.5 29t-41 24t-64.5 19.5l-63 14q-26 6 -51.5 15.5t-45.5 24.5t-33 35.5t-13 47.5q0 31 15.5 56t41.5 42.5t58.5 27t67.5 9.5q64 0 113.5 -29
t69.5 -85l-31 -13q-23 50 -60 72.5t-91 22.5q-29 0 -55.5 -7t-47 -20.5t-33 -32.5t-12.5 -43q0 -19 9.5 -33.5t26 -26t39 -20t48.5 -14.5l70 -16q74 -17 110 -51.5t36 -78.5q0 -31 -13 -57.5t-37.5 -46.5t-59 -31.5t-77.5 -11.5zM173 -186l45 72q-9 4 -15 12.5t-6 18.5
q0 15 10 25t25 10t25 -10t10 -25q0 -8 -2 -12.5t-7 -12.5l-62 -93z" />
    <glyph glyph-name="uni021A" unicode="&#x21a;" horiz-adv-x="502" 
d="M233 0v682h-206v34h448v-34h-206v-682h-36zM192 -186l45 72q-9 4 -15 12.5t-6 18.5q0 15 10 25t25 10t25 -10t10 -25q0 -8 -2 -12.5t-7 -12.5l-62 -93z" />
    <glyph glyph-name="uni021B" unicode="&#x21b;" horiz-adv-x="321" 
d="M119 458h-92v32h92v150h36v-150h124v-32h-124v-347q0 -23 7.5 -39t19.5 -27q22 -21 53 -21q14 0 26.5 2.5t26.5 10.5l11 -29q-14 -8 -30 -12t-37 -4q-20 0 -39.5 6.5t-36.5 20.5t-27 37.5t-10 58.5v343zM150 -186l45 72q-9 4 -15 12.5t-6 18.5q0 15 10 25t25 10t25 -10
t10 -25q0 -8 -2 -12.5t-7 -12.5l-62 -93z" />
    <glyph glyph-name="uni0237" unicode="&#x237;" horiz-adv-x="170" 
d="M-31 -186q14 -8 35 -8q31 0 47 22.5t16 62.5v599h36v-601q0 -51 -23.5 -83t-74.5 -32q-13 0 -25.5 3t-19.5 7z" />
    <glyph glyph-name="circumflex" unicode="&#x2c6;" horiz-adv-x="362" 
d="M298 600h-38l-75 84h-8l-75 -84h-38v5l98 111h38l98 -111v-5z" />
    <glyph glyph-name="caron" unicode="&#x2c7;" horiz-adv-x="362" 
d="M298 711l-98 -111h-38l-98 111v5h38l75 -84h8l75 84h38v-5z" />
    <glyph glyph-name="breve" unicode="&#x2d8;" horiz-adv-x="396" 
d="M199 598q-23 0 -44.5 8.5t-37.5 23.5t-25.5 36t-9.5 46h36q0 -32 21.5 -57t59.5 -25q18 0 33 7t25.5 18.5t16.5 26t6 30.5h34q0 -25 -9.5 -46t-25 -36t-36.5 -23.5t-44 -8.5z" />
    <glyph glyph-name="dotaccent" unicode="&#x2d9;" horiz-adv-x="198" 
d="M99 627q-14 0 -23 9t-9 23t9 23t23 9t23 -9t9 -23t-9 -23t-23 -9z" />
    <glyph glyph-name="ring" unicode="&#x2da;" horiz-adv-x="418" 
d="M209 572q-21 0 -39.5 7.5t-32 21t-21 32t-7.5 39.5t7.5 39t21 31.5t32 21.5t39.5 8t39 -8t31.5 -21.5t21.5 -31.5t8 -39t-8 -39.5t-21.5 -32t-31.5 -21t-39 -7.5zM209 604q27 0 46.5 19t19.5 49t-19.5 49t-46.5 19t-46.5 -19t-19.5 -49t19.5 -49t46.5 -19z" />
    <glyph glyph-name="tilde" unicode="&#x2dc;" horiz-adv-x="384" 
d="M260 610q-23 0 -40 9.5t-32 21.5t-30 21.5t-32 9.5q-26 0 -40 -14t-18 -38h-32q1 21 8.5 37t20 27t28 16.5t31.5 5.5q22 0 39.5 -9.5t32.5 -21.5t30 -21.5t32 -9.5q26 0 40 14t18 38h32q-1 -21 -8.5 -37t-20 -27t-28 -16.5t-31.5 -5.5z" />
    <glyph glyph-name="uni0374" unicode="&#x374;" horiz-adv-x="222" 
d="M130 716h47l-98 -200h-34z" />
    <glyph glyph-name="uni0375" unicode="&#x375;" horiz-adv-x="222" 
d="M92 -78h-47l98 200h34z" />
    <glyph glyph-name="uni037E" unicode="&#x37e;" horiz-adv-x="174" 
d="M85 426q-15 0 -25 10t-10 25t10 25t25 10t25 -10t10 -25t-10 -25t-25 -10zM23 -79l48 77q-9 4 -15 12.5t-6 18.5q0 15 10 25t25 10t25 -10t10 -25q0 -8 -2 -12.5t-7 -12.5l-65 -98z" />
    <glyph glyph-name="tonos" unicode="&#x384;" horiz-adv-x="380" 
d="M147 596l49 120h48l-67 -120h-30z" />
    <glyph glyph-name="dieresistonos" unicode="&#x385;" horiz-adv-x="344" 
d="M68 627q-14 0 -23 9t-9 23t9 23t23 9t23 -9t9 -23t-9 -23t-23 -9zM244 659q0 14 9 23t23 9t23 -9t9 -23t-9 -23t-23 -9t-23 9t-9 23zM154 588v144h36v-144h-36z" />
    <glyph glyph-name="Alphatonos" unicode="&#x386;" horiz-adv-x="638" 
d="M297 716h44l284 -716h-38l-87 220h-362l-87 -220h-38zM486 254l-165 418h-4l-165 -418h334zM59 596l52 120h46l-62 -120h-36z" />
    <glyph glyph-name="anoteleia" unicode="&#x387;" horiz-adv-x="114" 
d="M57 289q-15 0 -25 10t-10 25t10 25t25 10t25 -10t10 -25t-10 -25t-25 -10z" />
    <glyph glyph-name="Epsilontonos" unicode="&#x388;" horiz-adv-x="572" 
d="M159 682v-307h322v-34h-322v-307h354v-34h-390v716h390v-34h-354zM-68 596l52 120h46l-62 -120h-36z" />
    <glyph glyph-name="Etatonos" unicode="&#x389;" horiz-adv-x="719" 
d="M123 716h36v-333h442v333h36v-716h-36v349h-442v-349h-36v716zM-68 596l52 120h46l-62 -120h-36z" />
    <glyph glyph-name="Iotatonos" unicode="&#x38a;" horiz-adv-x="241" 
d="M123 716h36v-716h-36v716zM-68 596l52 120h46l-62 -120h-36z" />
    <glyph glyph-name="Omicrontonos" unicode="&#x38c;" horiz-adv-x="747" 
d="M344 -16q-78 0 -144.5 29.5t-114.5 80.5t-75.5 119t-27.5 145t27.5 145t75.5 119t114.5 80.5t144.5 29.5t144.5 -29.5t114.5 -80.5t75.5 -119t27.5 -145t-27.5 -145t-75.5 -119t-114.5 -80.5t-144.5 -29.5zM344 18q67 0 126 25.5t103.5 71t70.5 107.5t26 136
q0 73 -26 135.5t-70.5 108t-103.5 71t-126 25.5t-126 -25.5t-103.5 -71t-70.5 -108t-26 -135.5q0 -74 26 -136t70.5 -107.5t103.5 -71t126 -25.5zM-68 596l52 120h46l-62 -120h-36z" />
    <glyph glyph-name="Upsilontonos" unicode="&#x38e;" horiz-adv-x="646" 
d="M348 0v315l-253 401h42l227 -362h4l223 362h42l-249 -401v-315h-36zM-68 596l52 120h46l-62 -120h-36z" />
    <glyph glyph-name="Omegatonos" unicode="&#x38f;" horiz-adv-x="728" 
d="M-68 596l52 120h46l-62 -120h-36zM344 732q74 0 136 -28t107 -75t70 -108t25 -128q0 -55 -15 -107t-46 -97.5t-77.5 -84t-110.5 -66.5v-4h235v-34h-265v64q48 16 92 46t77.5 72t53.5 95t20 115q0 61 -23 116.5t-63.5 97.5t-96 67t-119.5 25q-65 0 -120 -25t-95.5 -67
t-63.5 -97.5t-23 -116.5q0 -62 20 -115t53.5 -95t77.5 -72t92 -46v-64h-265v34h235v4q-64 28 -111 66.5t-77.5 84t-45.5 97.5t-15 107q0 67 25 128t70 108t107 75t136 28z" />
    <glyph glyph-name="iotadieresistonos" unicode="&#x390;" horiz-adv-x="170" 
d="M67 0v490h36v-490h-36zM-18 627q-14 0 -23 9t-9 23t9 23t23 9t23 -9t9 -23t-9 -23t-23 -9zM158 659q0 14 9 23t23 9t23 -9t9 -23t-9 -23t-23 -9t-23 9t-9 23zM68 588v144h36v-144h-36z" />
    <glyph glyph-name="Alpha" unicode="&#x391;" horiz-adv-x="638" 
d="M297 716h44l284 -716h-38l-87 220h-362l-87 -220h-38zM486 254l-165 418h-4l-165 -418h334z" />
    <glyph glyph-name="Beta" unicode="&#x392;" horiz-adv-x="580" 
d="M82 716h247q39 0 73.5 -13.5t60.5 -38t41.5 -57.5t15.5 -72q0 -57 -29.5 -98t-77.5 -65v-4q58 -18 94.5 -65t36.5 -108q0 -43 -16 -79t-43.5 -61.5t-64.5 -40t-79 -14.5h-259v716zM327 383q34 0 62.5 12t49.5 32t33 47.5t12 58.5t-12 58t-32.5 47.5t-48.5 32t-60 11.5
h-213v-299h209zM351 34q29 0 57.5 11t50.5 31.5t35.5 49.5t13.5 65t-13.5 65t-36 49.5t-51.5 32t-60 11.5h-229v-315h233z" />
    <glyph glyph-name="Gamma" unicode="&#x393;" horiz-adv-x="483" 
d="M82 716h374v-34h-338v-682h-36v716z" />
    <glyph glyph-name="uni0394" unicode="&#x394;" horiz-adv-x="614" 
d="M285 716h44l272 -716h-588zM65 34h484l-240 638h-4z" />
    <glyph glyph-name="Epsilon" unicode="&#x395;" horiz-adv-x="531" 
d="M118 682v-307h322v-34h-322v-307h354v-34h-390v716h390v-34h-354z" />
    <glyph glyph-name="Zeta" unicode="&#x396;" horiz-adv-x="541" 
d="M36 42l419 640h-403v34h440v-42l-419 -640h423v-34h-460v42z" />
    <glyph glyph-name="Eta" unicode="&#x397;" horiz-adv-x="678" 
d="M82 716h36v-333h442v333h36v-716h-36v349h-442v-349h-36v716z" />
    <glyph glyph-name="Theta" unicode="&#x398;" horiz-adv-x="824" 
d="M262 341v34h298v-34h-298zM404 -16q-78 0 -144.5 29.5t-114.5 80.5t-75.5 119t-27.5 145t27.5 145t75.5 119t114.5 80.5t144.5 29.5t144.5 -29.5t114.5 -80.5t75.5 -119t27.5 -145t-27.5 -145t-75.5 -119t-114.5 -80.5t-144.5 -29.5zM404 18q67 0 126 25.5t103.5 71
t70.5 107.5t26 136q0 73 -26 135.5t-70.5 108t-103.5 71t-126 25.5t-126 -25.5t-103.5 -71t-70.5 -108t-26 -135.5q0 -74 26 -136t70.5 -107.5t103.5 -71t126 -25.5z" />
    <glyph glyph-name="Iota" unicode="&#x399;" horiz-adv-x="200" 
d="M82 716h36v-716h-36v716z" />
    <glyph glyph-name="Kappa" unicode="&#x39a;" horiz-adv-x="551" 
d="M82 716h36v-364h4l372 364h48v-4l-374 -364l377 -344v-4h-49l-374 342h-4v-342h-36v716z" />
    <glyph glyph-name="Lambda" unicode="&#x39b;" horiz-adv-x="598" 
d="M301 672h-4l-244 -672h-40l264 716h44l264 -716h-40z" />
    <glyph glyph-name="Mu" unicode="&#x39c;" horiz-adv-x="820" 
d="M82 716h34l292 -510h4l292 510h34v-716h-34v528l4 120h-4l-284 -496h-20l-284 496h-4l4 -120v-528h-34v716z" />
    <glyph glyph-name="Nu" unicode="&#x39d;" horiz-adv-x="684" 
d="M82 716h53l431 -652h4l-4 138v514h36v-716h-36l-448 678h-4l4 -138v-540h-36v716z" />
    <glyph glyph-name="Xi" unicode="&#x39e;" horiz-adv-x="468" 
d="M31 682v34h406v-34h-406zM31 0v34h406v-34h-406zM63 341v34h342v-34h-342z" />
    <glyph glyph-name="Omicron" unicode="&#x39f;" horiz-adv-x="808" 
d="M404 -16q-78 0 -144.5 29.5t-114.5 80.5t-75.5 119t-27.5 145t27.5 145t75.5 119t114.5 80.5t144.5 29.5t144.5 -29.5t114.5 -80.5t75.5 -119t27.5 -145t-27.5 -145t-75.5 -119t-114.5 -80.5t-144.5 -29.5zM404 18q67 0 126 25.5t103.5 71t70.5 107.5t26 136
q0 73 -26 135.5t-70.5 108t-103.5 71t-126 25.5t-126 -25.5t-103.5 -71t-70.5 -108t-26 -135.5q0 -74 26 -136t70.5 -107.5t103.5 -71t126 -25.5z" />
    <glyph glyph-name="Pi" unicode="&#x3a0;" horiz-adv-x="654" 
d="M82 716h490v-716h-36v682h-418v-682h-36v716z" />
    <glyph glyph-name="Rho" unicode="&#x3a1;" horiz-adv-x="549" 
d="M82 0v716h220q47 0 87 -14.5t69.5 -41t46.5 -64.5t17 -85t-17 -85t-46.5 -64.5t-69.5 -41t-87 -14.5h-184v-306h-36zM306 340q34 0 66.5 11t58 33t40.5 54t15 73t-15 73t-40.5 53.5t-58 33t-66.5 11.5h-188v-342h188z" />
    <glyph glyph-name="Sigma" unicode="&#x3a3;" horiz-adv-x="488" 
d="M86 682l239 -316l-239 -332h371v-34h-412v38l237 330l-237 310v38h412v-34h-371z" />
    <glyph glyph-name="Tau" unicode="&#x3a4;" horiz-adv-x="502" 
d="M233 0v682h-206v34h448v-34h-206v-682h-36z" />
    <glyph glyph-name="Upsilon" unicode="&#x3a5;" horiz-adv-x="564" 
d="M266 0v315l-253 401h42l227 -362h4l223 362h42l-249 -401v-315h-36z" />
    <glyph glyph-name="Phi" unicode="&#x3a6;" horiz-adv-x="768" 
d="M366 56q-71 3 -130.5 25.5t-102.5 62t-67 94t-24 120.5t24 120.5t67 94t102.5 62t130.5 25.5v56h36v-56q71 -3 130.5 -25.5t102.5 -62t67 -94t24 -120.5t-24 -120.5t-67 -94t-102.5 -62t-130.5 -25.5v-56h-36v56zM690 358q0 55 -20.5 103t-58 84t-90.5 57t-119 24v-536
q66 3 119 24t90.5 57t58 83.5t20.5 103.5zM78 358q0 -56 20 -103.5t57.5 -83.5t91 -57t119.5 -24v536q-66 -3 -119.5 -24t-91 -57t-57.5 -84t-20 -103z" />
    <glyph glyph-name="Chi" unicode="&#x3a7;" horiz-adv-x="592" 
d="M273 370l-243 346h47l217 -314h4l220 314h44l-243 -346l255 -370h-46l-230 337h-4l-230 -337h-46z" />
    <glyph glyph-name="Psi" unicode="&#x3a8;" horiz-adv-x="720" 
d="M342 156q-61 0 -112.5 19t-88.5 55t-57.5 88t-20.5 118v280h36v-281q0 -59 19 -104.5t52 -76.5t77.5 -47.5t94.5 -16.5v526h36v-526q50 0 94.5 16.5t77.5 47.5t52 76.5t19 104.5v281h36v-280q0 -66 -20.5 -118t-57.5 -88t-88.5 -55t-112.5 -19v-156h-36v156z" />
    <glyph glyph-name="uni03A9" unicode="&#x3a9;" horiz-adv-x="770" 
d="M385 732q74 0 136 -28t107 -75t70 -108t25 -128q0 -55 -15 -107t-46 -97.5t-77.5 -84t-110.5 -66.5v-4h235v-34h-265v64q48 16 92 46t77.5 72t53.5 95t20 115q0 61 -23 116.5t-63.5 97.5t-96 67t-119.5 25q-65 0 -120 -25t-95.5 -67t-63.5 -97.5t-23 -116.5
q0 -62 20 -115t53.5 -95t77.5 -72t92 -46v-64h-265v34h235v4q-64 28 -111 66.5t-77.5 84t-45.5 97.5t-15 107q0 67 25 128t70 108t107 75t136 28z" />
    <glyph glyph-name="Iotadieresis" unicode="&#x3aa;" horiz-adv-x="200" 
d="M40 811q-14 0 -23 9t-9 23t9 23t23 9t23 -9t9 -23t-9 -23t-23 -9zM128 843q0 14 9 23t23 9t23 -9t9 -23t-9 -23t-23 -9t-23 9t-9 23zM82 716h36v-716h-36v716z" />
    <glyph glyph-name="Upsilondieresis" unicode="&#x3ab;" horiz-adv-x="564" 
d="M266 0v315l-253 401h42l227 -362h4l223 362h42l-249 -401v-315h-36zM214 811q-14 0 -23 9t-9 23t9 23t23 9t23 -9t9 -23t-9 -23t-23 -9zM322 843q0 14 9 23t23 9t23 -9t9 -23t-9 -23t-23 -9t-23 9t-9 23z" />
    <glyph glyph-name="alphatonos" unicode="&#x3ac;" horiz-adv-x="558" 
d="M499 490v-490h-32v103h-4q-13 -24 -31 -45.5t-42.5 -38t-56.5 -26t-73 -9.5q-47 0 -89 19t-73 53.5t-49 82.5t-18 106t18 106t49 82.5t73 53.5t89 19q41 0 73 -9.5t56.5 -26t42.5 -38t31 -45.5h4v103h32zM267 16q40 0 76 15.5t63.5 44.5t44 72t16.5 97t-16.5 97t-44 72
t-63.5 44.5t-76 15.5t-76 -16t-63.5 -45.5t-44 -72t-16.5 -95.5t16.5 -95.5t44 -72t63.5 -45.5t76 -16zM242 596l52 120h46l-62 -120h-36z" />
    <glyph glyph-name="epsilontonos" unicode="&#x3ad;" horiz-adv-x="458" 
d="M234 -16q-43 0 -78.5 10.5t-61 30t-39.5 45.5t-14 58q0 48 27 78t69 44v7q-34 16 -56.5 45.5t-22.5 74.5q0 29 14.5 53t38.5 41t55.5 26t65.5 9q45 0 87 -20.5t76 -65.5l-25 -23q-59 77 -138 77q-62 0 -100 -29t-38 -71q0 -48 33 -77.5t87 -29.5h65v-32h-68q-33 0 -58 -9
t-42 -23.5t-25.5 -33.5t-8.5 -39q0 -23 9.5 -43t28.5 -35.5t48 -24.5t68 -9q46 0 83.5 19t72.5 61l26 -24q-33 -42 -81.5 -66t-97.5 -24zM206 596l52 120h46l-62 -120h-36z" />
    <glyph glyph-name="etatonos" unicode="&#x3ae;" horiz-adv-x="544" 
d="M264 596l52 120h46l-62 -120h-36zM103 374h4q13 27 32 51t43 42t54.5 28.5t68.5 10.5q43 0 75 -16t53.5 -43t32.5 -63.5t11 -77.5v-522h-36v514q0 37 -9 69t-27 56t-45 37.5t-63 13.5q-40 0 -74.5 -18.5t-60 -49.5t-40.5 -72.5t-15 -87.5v-246h-36v490h32v-116z" />
    <glyph glyph-name="iotatonos" unicode="&#x3af;" horiz-adv-x="170" 
d="M67 0v490h36v-490h-36zM63 596l52 120h46l-62 -120h-36z" />
    <glyph glyph-name="upsilondieresistonos" unicode="&#x3b0;" horiz-adv-x="520" 
d="M261 -16q-45 0 -82 18t-63.5 49.5t-41.5 74t-15 92.5v272h36v-265q0 -51 13.5 -90t36.5 -65.5t54.5 -40t67.5 -13.5q38 0 72 14t59.5 42t40 69.5t14.5 95.5q0 60 -17.5 122.5t-58.5 130.5h41q29 -53 50 -115.5t21 -137.5q0 -64 -18 -111.5t-49 -79t-72.5 -47t-88.5 -15.5
zM142 627q-14 0 -23 9t-9 23t9 23t23 9t23 -9t9 -23t-9 -23t-23 -9zM318 659q0 14 9 23t23 9t23 -9t9 -23t-9 -23t-23 -9t-23 9t-9 23zM228 588v144h36v-144h-36z" />
    <glyph glyph-name="alpha" unicode="&#x3b1;" horiz-adv-x="558" 
d="M499 490v-490h-32v103h-4q-13 -24 -31 -45.5t-42.5 -38t-56.5 -26t-73 -9.5q-47 0 -89 19t-73 53.5t-49 82.5t-18 106t18 106t49 82.5t73 53.5t89 19q41 0 73 -9.5t56.5 -26t42.5 -38t31 -45.5h4v103h32zM267 16q40 0 76 15.5t63.5 44.5t44 72t16.5 97t-16.5 97t-44 72
t-63.5 44.5t-76 15.5t-76 -16t-63.5 -45.5t-44 -72t-16.5 -95.5t16.5 -95.5t44 -72t63.5 -45.5t76 -16z" />
    <glyph glyph-name="beta" unicode="&#x3b2;" horiz-adv-x="536" 
d="M356 383q26 -8 52 -23.5t46.5 -39t33 -54t12.5 -67.5q0 -45 -15 -84t-42.5 -68t-67 -46t-87.5 -17q-55 0 -100 27t-66 69h-4l4 -88v-208h-40v732q0 47 13.5 87t38.5 68.5t61.5 44.5t83.5 16q42 0 77 -13.5t60 -37.5t38.5 -56.5t13.5 -69.5q0 -67 -32.5 -107.5
t-79.5 -60.5v-4zM118 203q0 -45 15 -80t39 -59t53.5 -36t59.5 -12q39 0 72 13.5t57 37.5t37 56.5t13 70.5q0 34 -13 65.5t-37.5 55.5t-60 38t-80.5 14h-51v32h43q39 0 70 11.5t52.5 32t33 48.5t11.5 61q0 35 -12.5 62.5t-34 46.5t-49 29t-57.5 10q-33 0 -62.5 -11.5t-51 -35
t-34.5 -58.5t-13 -82v-310z" />
    <glyph glyph-name="gamma" unicode="&#x3b3;" horiz-adv-x="492" 
d="M227 -216v216l-222 490h39l201 -444h2l203 444h37l-224 -490v-216h-36z" />
    <glyph glyph-name="delta" unicode="&#x3b4;" horiz-adv-x="548" 
d="M274 506q18 0 36 -3l-232 193v20h376v-32h-305l273 -229q45 -38 70 -91t25 -119q0 -56 -18.5 -103.5t-51 -82.5t-77 -55t-96.5 -20t-96.5 20t-77 55t-51 82.5t-18.5 103.5t18.5 103.5t51 82.5t77 55t96.5 20zM274 16q40 0 77.5 17t66.5 47.5t46 72.5t17 92t-17 92
t-46 72.5t-66.5 47.5t-77.5 17q-41 0 -78 -17t-66 -47.5t-46 -72.5t-17 -92t17 -92t46 -72.5t66 -47.5t78 -17z" />
    <glyph glyph-name="epsilon" unicode="&#x3b5;" horiz-adv-x="458" 
d="M234 -16q-43 0 -78.5 10.5t-61 30t-39.5 45.5t-14 58q0 48 27 78t69 44v7q-34 16 -56.5 45.5t-22.5 74.5q0 29 14.5 53t38.5 41t55.5 26t65.5 9q45 0 87 -20.5t76 -65.5l-25 -23q-59 77 -138 77q-62 0 -100 -29t-38 -71q0 -48 33 -77.5t87 -29.5h65v-32h-68q-33 0 -58 -9
t-42 -23.5t-25.5 -33.5t-8.5 -39q0 -23 9.5 -43t28.5 -35.5t48 -24.5t68 -9q46 0 83.5 19t72.5 61l26 -24q-33 -42 -81.5 -66t-97.5 -24z" />
    <glyph glyph-name="zeta" unicode="&#x3b6;" horiz-adv-x="452" 
d="M306 -136q42 0 64.5 20t22.5 49q0 30 -20.5 48.5t-72.5 18.5h-125q-38 0 -65.5 11t-46 29t-27.5 42.5t-9 51.5q0 44 20 76t58 61q6 5 20 16q14 10 33 24q18 14 40 30q21 16 42 33q50 38 109 84h-307v32h360v-30q-74 -57 -134 -103q-26 -20 -50 -39q-25 -19 -45 -34
q-20 -16 -33 -26.5t-15 -12.5q-18 -15 -30 -27t-19 -25t-10 -27t-3 -33q0 -42 30 -71.5t83 -29.5h116q69 0 101 -23.5t32 -71.5q0 -45 -31.5 -75t-87.5 -30v32z" />
    <glyph glyph-name="eta" unicode="&#x3b7;" 
d="M95 374h4q13 27 32 51t43 42t54.5 28.5t68.5 10.5q43 0 75 -16t53.5 -43t32.5 -63.5t11 -77.5v-522h-36v514q0 37 -9 69t-27 56t-45 37.5t-63 13.5q-40 0 -74.5 -18.5t-60 -49.5t-40.5 -72.5t-15 -87.5v-246h-36v490h32v-116z" />
    <glyph glyph-name="theta" unicode="&#x3b8;" horiz-adv-x="641" 
d="M311 -16q-61 0 -109.5 27.5t-82 75.5t-51.5 113.5t-18 141.5t18 141.5t51.5 113.5t82 75.5t109.5 27.5t109 -27.5t82 -75.5t52 -113.5t18 -141.5t-18 -141.5t-52 -113.5t-82 -75.5t-109 -27.5zM311 18q52 0 93.5 25t70.5 68.5t45 103t16 129.5h-450q0 -70 15.5 -129.5
t45 -103t71 -68.5t93.5 -25zM311 666q-49 0 -88.5 -22t-68.5 -60.5t-46.5 -91.5t-21.5 -116h450q-4 63 -21.5 116t-46.5 91.5t-69 60.5t-88 22z" />
    <glyph glyph-name="iota" unicode="&#x3b9;" horiz-adv-x="170" 
d="M67 0v490h36v-490h-36z" />
    <glyph glyph-name="kappa" unicode="&#x3ba;" horiz-adv-x="411" 
d="M99 0h-36v490h36v-228h4l250 228h49v-4l-253 -229l262 -253v-4h-46l-262 252h-4v-252z" />
    <glyph glyph-name="lambda" unicode="&#x3bb;" horiz-adv-x="458" 
d="M103 705.974l112 -256.969l-209 -448.945h42l185 403.951h2l176 -403.951h41l-311 705.914h-38z" />
    <glyph glyph-name="nu" unicode="&#x3bd;" horiz-adv-x="464" 
d="M5 490h37l189 -456h2l191 456h35l-204 -490h-48z" />
    <glyph glyph-name="xi" unicode="&#x3be;" horiz-adv-x="495" 
d="M177 384q-24 9 -47 23t-40.5 34.5t-28 47t-10.5 60.5q0 42 16 76t43.5 57.5t64.5 36.5t80 13q67 0 112 -26t80 -74l-25 -23q-31 44 -72 67.5t-95 23.5q-37 0 -68 -12t-53 -32t-34.5 -47.5t-12.5 -57.5q0 -34 15 -62.5t40.5 -49.5t60 -33t74.5 -12h65v-32h-97
q-47 0 -81.5 -15t-57 -38.5t-33 -53t-10.5 -58.5q0 -79 51.5 -122t138.5 -43h82q69 0 101 -25t32 -70t-31.5 -75t-87.5 -30v32q42 0 64.5 20t22.5 49q0 30 -20.5 48.5t-72.5 18.5h-89q-60 0 -102.5 16.5t-70.5 43.5t-41 63t-13 75q0 38 13 69.5t34 55t48 38t55 19.5v4z" />
    <glyph glyph-name="omicron" unicode="&#x3bf;" horiz-adv-x="548" 
d="M274 506q52 0 96.5 -20t77 -55t51 -82.5t18.5 -103.5t-18.5 -103.5t-51 -82.5t-77 -55t-96.5 -20t-96.5 20t-77 55t-51 82.5t-18.5 103.5t18.5 103.5t51 82.5t77 55t96.5 20zM274 16q40 0 77.5 17t66.5 47.5t46 72.5t17 92t-17 92t-46 72.5t-66.5 47.5t-77.5 17
q-41 0 -78 -17t-66 -47.5t-46 -72.5t-17 -92t17 -92t46 -72.5t66 -47.5t78 -17z" />
    <glyph glyph-name="pi" unicode="&#x3c0;" horiz-adv-x="660" 
d="M149 458h-122v32h606v-32h-124v-350q0 -41 19.5 -62.5t47.5 -21.5q23 0 44 9l11 -29q-10 -5 -23 -8.5t-33 -3.5t-38.5 6.5t-32.5 20.5t-22.5 37t-8.5 56v346h-288v-458h-36v458z" />
    <glyph glyph-name="rho" unicode="&#x3c1;" horiz-adv-x="562" 
d="M297 506q49 0 92 -19t74.5 -53.5t49.5 -82.5t18 -106t-18 -106t-49 -82.5t-73 -53.5t-89 -19q-41 0 -73 9.5t-56.5 26t-42.5 38t-31 45.5h-4l4 -68v-251h-36v476q0 54 17.5 99t48.5 78t74 51t94 18zM295 474q-40 0 -76 -15.5t-63.5 -44.5t-44 -72t-16.5 -97t16.5 -97
t44 -72t63.5 -44.5t76 -15.5t76 16t63.5 45.5t44 72t16.5 95.5t-16.5 95.5t-44 72t-63.5 45.5t-76 16z" />
    <glyph glyph-name="uni03C2" unicode="&#x3c2;" horiz-adv-x="504" 
d="M295 -16q-57 0 -105.5 20t-84 55t-55 82.5t-19.5 103.5t18 103.5t50.5 82.5t76 55t94.5 20q77 0 128 -36.5t79 -101.5l-31 -14q-26 58 -69.5 89t-106.5 31q-39 0 -75.5 -16.5t-65 -46.5t-45.5 -72t-17 -94t17.5 -94t48.5 -72t73 -46.5t92 -16.5h42q69 0 101 -25t32 -70
t-31.5 -75t-87.5 -30v32q42 0 64.5 20t22.5 49q0 30 -20.5 48.5t-72.5 18.5h-53z" />
    <glyph glyph-name="sigma" unicode="&#x3c3;" horiz-adv-x="570" 
d="M557 490v-32h-85l-89 4v-4q55 -34 87.5 -90t32.5 -131q0 -56 -17.5 -102.5t-49 -80t-74.5 -52t-95 -18.5t-95 18.5t-74.5 52t-49 80t-17.5 102.5t17.5 102.5t49 80t74.5 52t95 18.5h290zM267 16q40 0 76.5 15.5t64 44.5t43.5 70t16 91t-16 91t-43.5 70t-64 44.5
t-76.5 15.5q-41 0 -77 -15.5t-63.5 -44.5t-43.5 -70t-16 -91t16 -91t43.5 -70t63.5 -44.5t77 -15.5z" />
    <glyph glyph-name="tau" unicode="&#x3c4;" horiz-adv-x="430" 
d="M27 490h376v-32h-170v-458h-36v458h-170v32z" />
    <glyph glyph-name="upsilon" unicode="&#x3c5;" horiz-adv-x="520" 
d="M261 -16q-45 0 -82 18t-63.5 49.5t-41.5 74t-15 92.5v272h36v-265q0 -51 13.5 -90t36.5 -65.5t54.5 -40t67.5 -13.5q38 0 72 14t59.5 42t40 69.5t14.5 95.5q0 60 -17.5 122.5t-58.5 130.5h41q29 -53 50 -115.5t21 -137.5q0 -64 -18 -111.5t-49 -79t-72.5 -47t-88.5 -15.5
z" />
    <glyph glyph-name="phi" unicode="&#x3c6;" horiz-adv-x="702" 
d="M331 -216v200q-61 3 -112.5 22.5t-89 54.5t-58.5 83t-21 108q0 49 17.5 90.5t45 73.5t61 55t65.5 35l17 -33q-33 -12 -64 -33.5t-54.5 -50t-37.5 -63.5t-14 -74q0 -56 18.5 -98.5t51.5 -72.5t77.5 -46.5t97.5 -18.5v335q0 34 9.5 62.5t28 49t45 32t61.5 11.5
q39 0 71.5 -18.5t56 -52t36.5 -80.5t13 -103q0 -58 -20 -106t-57 -83.5t-90 -55.5t-118 -23v-200h-36zM367 16q55 3 100.5 19t78.5 46t51.5 72.5t18.5 98.5q0 46 -11 86.5t-30 70.5t-45 47.5t-55 17.5q-48 0 -78 -31.5t-30 -96.5v-330z" />
    <glyph glyph-name="chi" unicode="&#x3c7;" horiz-adv-x="422" 
d="M371 0l-161 223l-159 -223h-42l181 249l-173 241h44l150 -214l151 214h43l-174 -241l182 -249h-42z" />
    <glyph glyph-name="psi" unicode="&#x3c8;" horiz-adv-x="666" 
d="M325 -16h-18q-57 0 -103 18t-78 51t-49.5 79t-17.5 102v256h36v-248q0 -55 16 -97t43.5 -70.5t64 -43.5t78.5 -15h28v474h36v-474h18q55 0 96.5 18t69 48t41 70t13.5 85q0 64 -15 128.5t-51 124.5h41q28 -51 44.5 -117t16.5 -136q0 -64 -20.5 -111.5t-56 -79t-82 -47
t-97.5 -15.5h-18v-200h-36v200z" />
    <glyph glyph-name="omega" unicode="&#x3c9;" horiz-adv-x="754" 
d="M535 -16q-124 0 -158 139q-34 -139 -158 -139q-41 0 -75 15.5t-59.5 46.5t-39.5 78.5t-14 112.5q0 35 6 70.5t15.5 68.5t22 62t25.5 52h40q-34 -55 -53.5 -122t-19.5 -131q0 -109 41.5 -165t114.5 -56q27 0 52 11.5t43.5 37.5t29.5 66.5t11 99.5v139h36v-139
q0 -59 11 -99.5t29.5 -66.5t43.5 -37.5t52 -11.5q73 0 114.5 56t41.5 165q0 64 -19.5 131t-53.5 122h40q13 -23 25 -52t22 -62t16 -68.5t6 -70.5q0 -65 -14 -112.5t-39.5 -78.5t-60 -46.5t-74.5 -15.5z" />
    <glyph glyph-name="iotadieresis" unicode="&#x3ca;" horiz-adv-x="170" 
d="M29 627q-14 0 -23 9t-9 23t9 23t23 9t23 -9t9 -23t-9 -23t-23 -9zM109 659q0 14 9 23t23 9t23 -9t9 -23t-9 -23t-23 -9t-23 9t-9 23zM67 0v490h36v-490h-36z" />
    <glyph glyph-name="upsilondieresis" unicode="&#x3cb;" horiz-adv-x="520" 
d="M261 -16q-45 0 -82 18t-63.5 49.5t-41.5 74t-15 92.5v272h36v-265q0 -51 13.5 -90t36.5 -65.5t54.5 -40t67.5 -13.5q38 0 72 14t59.5 42t40 69.5t14.5 95.5q0 60 -17.5 122.5t-58.5 130.5h41q29 -53 50 -115.5t21 -137.5q0 -64 -18 -111.5t-49 -79t-72.5 -47t-88.5 -15.5
zM171 627q-14 0 -23 9t-9 23t9 23t23 9t23 -9t9 -23t-9 -23t-23 -9zM279 659q0 14 9 23t23 9t23 -9t9 -23t-9 -23t-23 -9t-23 9t-9 23z" />
    <glyph glyph-name="omicrontonos" unicode="&#x3cc;" horiz-adv-x="548" 
d="M274 506q52 0 96.5 -20t77 -55t51 -82.5t18.5 -103.5t-18.5 -103.5t-51 -82.5t-77 -55t-96.5 -20t-96.5 20t-77 55t-51 82.5t-18.5 103.5t18.5 103.5t51 82.5t77 55t96.5 20zM274 16q40 0 77.5 17t66.5 47.5t46 72.5t17 92t-17 92t-46 72.5t-66.5 47.5t-77.5 17
q-41 0 -78 -17t-66 -47.5t-46 -72.5t-17 -92t17 -92t46 -72.5t66 -47.5t78 -17zM255 596l52 120h46l-62 -120h-36z" />
    <glyph glyph-name="upsilontonos" unicode="&#x3cd;" horiz-adv-x="520" 
d="M261 -16q-45 0 -82 18t-63.5 49.5t-41.5 74t-15 92.5v272h36v-265q0 -51 13.5 -90t36.5 -65.5t54.5 -40t67.5 -13.5q38 0 72 14t59.5 42t40 69.5t14.5 95.5q0 60 -17.5 122.5t-58.5 130.5h41q29 -53 50 -115.5t21 -137.5q0 -64 -18 -111.5t-49 -79t-72.5 -47t-88.5 -15.5
zM226 596l52 120h46l-62 -120h-36z" />
    <glyph glyph-name="omegatonos" unicode="&#x3ce;" horiz-adv-x="754" 
d="M535 -16q-124 0 -158 139q-34 -139 -158 -139q-41 0 -75 15.5t-59.5 46.5t-39.5 78.5t-14 112.5q0 35 6 70.5t15.5 68.5t22 62t25.5 52h40q-34 -55 -53.5 -122t-19.5 -131q0 -109 41.5 -165t114.5 -56q27 0 52 11.5t43.5 37.5t29.5 66.5t11 99.5v139h36v-139
q0 -59 11 -99.5t29.5 -66.5t43.5 -37.5t52 -11.5q73 0 114.5 56t41.5 165q0 64 -19.5 131t-53.5 122h40q13 -23 25 -52t22 -62t16 -68.5t6 -70.5q0 -65 -14 -112.5t-39.5 -78.5t-60 -46.5t-74.5 -15.5zM363 596l52 120h46l-62 -120h-36z" />
    <glyph glyph-name="uni03D1" unicode="&#x3d1;" horiz-adv-x="609" 
d="M59 490h36v-277q0 -94 49 -145.5t130 -51.5t130 51.5t49 145.5v89q-44 3 -88.5 20.5t-80.5 50t-58.5 79.5t-22.5 110q0 37 10 68.5t29 54t45.5 35t58.5 12.5q65 0 104 -41t39 -122v-235h93v-32h-93v-90q0 -52 -15 -94t-42.5 -72t-67.5 -46t-90 -16t-90 16t-67.5 46
t-42.5 72t-15 94v278zM239 561q0 -54 20.5 -95t52 -68.5t69 -43t72.5 -19.5v232q0 60 -27 96.5t-80 36.5q-48 0 -77.5 -38.5t-29.5 -100.5z" />
    <glyph glyph-name="uni03D2" unicode="&#x3d2;" horiz-adv-x="578" 
d="M271 302l-166 348q-10 21 -19.5 31.5t-28.5 10.5q-21 0 -41 -14l-11 30q8 5 21.5 10.5t30.5 5.5q29 0 46.5 -14t32.5 -46l151 -319h4l151 319q15 32 32.5 46t46.5 14q17 0 30.5 -5.5t21.5 -10.5l-11 -30q-20 14 -41 14q-19 0 -28.5 -10.5t-19.5 -31.5l-166 -348v-302h-36
v302z" />
    <glyph glyph-name="uni03D3" unicode="&#x3d3;" horiz-adv-x="639" 
d="M332 302l-166 348q-10 21 -19.5 31.5t-28.5 10.5q-21 0 -41 -14l-11 30q8 5 21.5 10.5t30.5 5.5q29 0 46.5 -14t32.5 -46l151 -319h4l151 319q15 32 32.5 46t46.5 14q17 0 30.5 -5.5t21.5 -10.5l-11 -30q-20 14 -41 14q-19 0 -28.5 -10.5t-19.5 -31.5l-166 -348v-302h-36
v302zM-68 596l52 120h46l-62 -120h-36z" />
    <glyph glyph-name="uni03D4" unicode="&#x3d4;" horiz-adv-x="578" 
d="M271 302l-166 348q-10 21 -19.5 31.5t-28.5 10.5q-21 0 -41 -14l-11 30q8 5 21.5 10.5t30.5 5.5q29 0 46.5 -14t32.5 -46l151 -319h4l151 319q15 32 32.5 46t46.5 14q17 0 30.5 -5.5t21.5 -10.5l-11 -30q-20 14 -41 14q-19 0 -28.5 -10.5t-19.5 -31.5l-166 -348v-302h-36
v302zM220 811q-14 0 -23 9t-9 23t9 23t23 9t23 -9t9 -23t-9 -23t-23 -9zM328 843q0 14 9 23t23 9t23 -9t9 -23t-9 -23t-23 -9t-23 9t-9 23z" />
    <glyph glyph-name="uni03D6" unicode="&#x3d6;" horiz-adv-x="870" 
d="M45 490h780v-32h-101q23 -45 40 -103.5t17 -117.5q0 -65 -14 -112.5t-39.5 -78.5t-60 -46.5t-74.5 -15.5q-124 0 -158 139q-34 -139 -158 -139q-41 0 -75 15.5t-59.5 46.5t-39.5 78.5t-14 112.5q0 59 17 117.5t40 103.5h-101v32zM417 306h36v-75q0 -59 11 -99.5
t29.5 -66.5t43.5 -37.5t52 -11.5q73 0 114.5 56t41.5 165q0 55 -17 112.5t-44 108.5h-498q-26 -51 -43.5 -108.5t-17.5 -112.5q0 -109 41.5 -165t114.5 -56q27 0 52 11.5t43.5 37.5t29.5 66.5t11 99.5v75z" />
    <glyph glyph-name="uni0400" unicode="&#x400;" horiz-adv-x="531" 
d="M118 682v-307h322v-34h-322v-307h354v-34h-390v716h390v-34h-354zM263 780l-62 120h46l52 -120h-36z" />
    <glyph glyph-name="uni0401" unicode="&#x401;" horiz-adv-x="531" 
d="M118 682v-307h322v-34h-322v-307h354v-34h-390v716h390v-34h-354zM203 811q-14 0 -23 9t-9 23t9 23t23 9t23 -9t9 -23t-9 -23t-23 -9zM311 843q0 14 9 23t23 9t23 -9t9 -23t-9 -23t-23 -9t-23 9t-9 23z" />
    <glyph glyph-name="uni0402" unicode="&#x402;" horiz-adv-x="719" 
d="M233 0v682h-206v34h448v-34h-206v-263l-4 -88h4q42 55 94.5 81t115.5 26q44 0 81.5 -17t64.5 -46.5t42.5 -70t15.5 -86.5q0 -54 -15 -95t-41.5 -68.5t-62.5 -41t-79 -13.5h-5v32h8q71 0 115 47.5t44 138.5q0 40 -12.5 74t-36 59.5t-56 40t-72.5 14.5q-57 0 -108.5 -32.5
t-92.5 -95.5v-278h-36z" />
    <glyph glyph-name="uni0403" unicode="&#x403;" horiz-adv-x="483" 
d="M82 716h374v-34h-338v-682h-36v716zM248 780l52 120h46l-62 -120h-36z" />
    <glyph glyph-name="uni0404" unicode="&#x404;" horiz-adv-x="720" 
d="M679 115q-48 -59 -115 -95t-160 -36q-78 0 -144.5 29.5t-114.5 80.5t-75.5 119t-27.5 145t27.5 145t75.5 119t114.5 80.5t144.5 29.5q85 0 147 -30.5t108 -87.5l-25 -24q-87 108 -230 108q-65 0 -122.5 -24t-102 -67t-71.5 -102.5t-30 -129.5h368v-34h-368
q3 -70 30 -129.5t71.5 -102.5t102 -67t122.5 -24q83 0 143 31.5t107 89.5z" />
    <glyph glyph-name="uni0405" unicode="&#x405;" horiz-adv-x="531" 
d="M264 -16q-37 0 -74.5 13t-69.5 37.5t-56.5 60t-36.5 80.5l33 14q10 -39 29.5 -70.5t46.5 -54t60 -34.5t71 -12t71.5 11.5t58.5 32.5t39.5 51.5t14.5 68.5q0 64 -48 105t-127 69l-45 16q-34 12 -65.5 27.5t-55.5 36.5t-38 49.5t-14 66.5q0 36 15 69t42 57.5t63.5 39
t80.5 14.5q48 0 83.5 -14t60.5 -35.5t40.5 -46t22.5 -45.5l-34 -15q-6 21 -19.5 42.5t-34.5 39.5t-50.5 29t-68.5 11q-34 0 -64 -10.5t-52.5 -30t-35.5 -46.5t-13 -59q0 -30 12 -52.5t33 -40.5t48.5 -32t59.5 -25l47 -17q40 -15 75 -32.5t61.5 -41t41.5 -53.5t15 -70
q0 -53 -19.5 -91t-51 -63.5t-71.5 -37.5t-81 -12z" />
    <glyph glyph-name="uni0406" unicode="&#x406;" horiz-adv-x="200" 
d="M82 716h36v-716h-36v716z" />
    <glyph glyph-name="uni0407" unicode="&#x407;" horiz-adv-x="200" 
d="M30 824q-14 0 -23 9t-9 23t9 23t23 9t23 -9t9 -23t-9 -23t-23 -9zM138 856q0 14 9 23t23 9t23 -9t9 -23t-9 -23t-23 -9t-23 9t-9 23zM82 716h36v-716h-36v716z" />
    <glyph glyph-name="uni0408" unicode="&#x408;" horiz-adv-x="503" 
d="M232 -16q-73 0 -127.5 43t-77.5 124l29 12q25 -80 72 -112.5t104 -32.5q75 0 121 48.5t46 144.5v505h36v-501q0 -111 -55 -171t-148 -60z" />
    <glyph glyph-name="uni0409" unicode="&#x409;" horiz-adv-x="1048" 
d="M159 716h450v-329h190q46 0 85.5 -12t67.5 -35.5t44 -59t16 -82.5t-16 -84t-44 -62.5t-67.5 -38.5t-85.5 -13h-226v682h-378v-516q0 -46 -11.5 -82.5t-31.5 -56.5q-35 -35 -92 -35q-7 0 -16 0.5t-17 2.5v36q8 -3 16.5 -4t16.5 -1q45 0 67 27q10 12 16 25t9.5 30.5t5 40
t1.5 52.5v515zM803 34q36 0 67.5 10t55 30t37 50t13.5 70t-13.5 69.5t-37 49.5t-55 30t-67.5 10h-194v-319h194z" />
    <glyph glyph-name="uni040A" unicode="&#x40a;" horiz-adv-x="995" 
d="M520 353h-402v-353h-36v716h36v-329h402v329h36v-329h190q46 0 85.5 -12t67.5 -35.5t44 -59t16 -82.5t-16 -84t-44 -62.5t-67.5 -38.5t-85.5 -13h-226v353zM750 34q36 0 67.5 10t55 30t37 50t13.5 70t-13.5 69.5t-37 49.5t-55 30t-67.5 10h-194v-319h194z" />
    <glyph glyph-name="uni040B" unicode="&#x40b;" horiz-adv-x="724" 
d="M629 0v218q0 40 -10 74t-30 59.5t-51 40t-73 14.5q-55 0 -105 -32.5t-91 -95.5v-278h-36v682h-206v34h448v-34h-206v-263l-4 -88h4q41 55 93.5 81t112.5 26q91 0 140.5 -57.5t49.5 -156.5v-224h-36z" />
    <glyph glyph-name="uni040C" unicode="&#x40c;" horiz-adv-x="551" 
d="M82 716h36v-364h4l372 364h48v-4l-374 -364l377 -344v-4h-49l-374 342h-4v-342h-36v716zM261 780l52 120h46l-62 -120h-36z" />
    <glyph glyph-name="uni040D" unicode="&#x40d;" horiz-adv-x="678" 
d="M596 0h-36v540l4 138h-4l-442 -678h-36v716h36v-514l-4 -138h4l425 652h53v-716zM306 780l-62 120h46l52 -120h-36z" />
    <glyph glyph-name="uni040E" unicode="&#x40e;" horiz-adv-x="555" 
d="M277 112q-26 -59 -58.5 -93.5t-87.5 -34.5q-21 0 -36.5 5t-29.5 11l11 33q11 -6 25 -10.5t34 -4.5q29 0 52.5 18.5t42.5 59.5l30 66l-247 554h41l223 -504h4l221 504h40zM279 782q-23 0 -44.5 8.5t-37.5 23.5t-25.5 36t-9.5 46h36q0 -32 21.5 -57t59.5 -25q18 0 33 7
t25.5 18.5t16.5 26t6 30.5h34q0 -25 -9.5 -46t-25 -36t-36.5 -23.5t-44 -8.5z" />
    <glyph glyph-name="uni040F" unicode="&#x40f;" horiz-adv-x="654" 
d="M308 -152v152h-226v716h36v-682h418v682h36v-716h-226v-152h-38z" />
    <glyph glyph-name="uni0410" unicode="&#x410;" horiz-adv-x="638" 
d="M297 716h44l284 -716h-38l-87 220h-362l-87 -220h-38zM486 254l-165 418h-4l-165 -418h334z" />
    <glyph glyph-name="uni0411" unicode="&#x411;" horiz-adv-x="580" 
d="M341 388q42 0 79 -13.5t64.5 -38t43.5 -60t16 -78.5q0 -44 -16 -80t-43.5 -62.5t-64.5 -41t-79 -14.5h-259v716h379v-34h-343v-294h223zM347 34q29 0 58 11.5t52 32.5t37 50.5t14 65.5t-13.5 65.5t-36 50.5t-51.5 32.5t-60 11.5h-229v-320h229z" />
    <glyph glyph-name="uni0412" unicode="&#x412;" horiz-adv-x="580" 
d="M82 716h247q39 0 73.5 -13.5t60.5 -38t41.5 -57.5t15.5 -72q0 -57 -29.5 -98t-77.5 -65v-4q58 -18 94.5 -65t36.5 -108q0 -43 -16 -79t-43.5 -61.5t-64.5 -40t-79 -14.5h-259v716zM327 383q34 0 62.5 12t49.5 32t33 47.5t12 58.5t-12 58t-32.5 47.5t-48.5 32t-60 11.5
h-213v-299h209zM351 34q29 0 57.5 11t50.5 31.5t35.5 49.5t13.5 65t-13.5 65t-36 49.5t-51.5 32t-60 11.5h-229v-315h233z" />
    <glyph glyph-name="uni0413" unicode="&#x413;" horiz-adv-x="483" 
d="M82 716h374v-34h-338v-682h-36v716z" />
    <glyph glyph-name="uni0414" unicode="&#x414;" horiz-adv-x="730" 
d="M45 -152v186h38q35 23 59.5 63.5t39.5 91t22 107t7 112.5v308h426v-682h48v-186h-34v152h-572v-152h-34zM247 424q0 -143 -29.5 -240.5t-84.5 -149.5h468v648h-354v-258z" />
    <glyph glyph-name="uni0415" unicode="&#x415;" horiz-adv-x="531" 
d="M118 682v-307h322v-34h-322v-307h354v-34h-390v716h390v-34h-354z" />
    <glyph glyph-name="uni0416" unicode="&#x416;" horiz-adv-x="798" 
d="M381 716h36v-364h4l329 364h42v-4l-328 -362l330 -346v-4h-41l-332 342h-4v-342h-36v342h-4l-332 -342h-41v4l330 346l-328 362v4h42l329 -364h4v364z" />
    <glyph glyph-name="uni0417" unicode="&#x417;" horiz-adv-x="530" 
d="M259 -16q-32 0 -66 10.5t-64 31.5t-53.5 53t-34.5 76l32 13q9 -36 28 -63.5t44 -47t54.5 -29.5t59.5 -10q41 0 76 12.5t60.5 35.5t39.5 56t14 74q0 34 -15.5 63.5t-41.5 51.5t-61 34.5t-74 12.5h-54v34h59q31 0 60.5 11.5t52.5 31.5t37 48.5t14 61.5q0 28 -12.5 55.5
t-35 49.5t-53.5 35t-68 13q-35 0 -63 -11.5t-48.5 -29.5t-34.5 -40.5t-20 -43.5l-32 13q7 24 23 50t40.5 47t58.5 35t76 14q44 0 81.5 -15.5t65 -41t43 -59t15.5 -69.5q0 -32 -10 -59t-27.5 -48.5t-40 -37t-46.5 -24.5v-4q30 -9 56.5 -25.5t47 -39t32 -51t11.5 -60.5
q0 -50 -18 -89.5t-48.5 -67t-72 -42.5t-87.5 -15z" />
    <glyph glyph-name="uni0418" unicode="&#x418;" horiz-adv-x="678" 
d="M596 0h-36v540l4 138h-4l-442 -678h-36v716h36v-514l-4 -138h4l425 652h53v-716z" />
    <glyph glyph-name="uni0419" unicode="&#x419;" horiz-adv-x="678" 
d="M337 782q-23 0 -44.5 8.5t-37.5 23.5t-25.5 36t-9.5 46h36q0 -32 21.5 -57t59.5 -25q18 0 33 7t25.5 18.5t16.5 26t6 30.5h34q0 -25 -9.5 -46t-25 -36t-36.5 -23.5t-44 -8.5zM596 0h-36v540l4 138h-4l-442 -678h-36v716h36v-514l-4 -138h4l425 652h53v-716z" />
    <glyph glyph-name="uni041A" unicode="&#x41a;" horiz-adv-x="551" 
d="M82 716h36v-364h4l372 364h48v-4l-374 -364l377 -344v-4h-49l-374 342h-4v-342h-36v716z" />
    <glyph glyph-name="uni041B" unicode="&#x41b;" horiz-adv-x="691" 
d="M60 26q45 0 67 27q10 12 16 25t9.5 30.5t5 40t1.5 52.5v515h450v-716h-36v682h-378v-516q0 -46 -11.5 -82.5t-31.5 -56.5q-35 -35 -92 -35q-7 0 -16 0.5t-17 2.5v36q8 -3 16.5 -4t16.5 -1z" />
    <glyph glyph-name="uni041C" unicode="&#x41c;" horiz-adv-x="820" 
d="M82 716h34l292 -510h4l292 510h34v-716h-34v528l4 120h-4l-284 -496h-20l-284 496h-4l4 -120v-528h-34v716z" />
    <glyph glyph-name="uni041D" unicode="&#x41d;" horiz-adv-x="678" 
d="M82 716h36v-333h442v333h36v-716h-36v349h-442v-349h-36v716z" />
    <glyph glyph-name="uni041E" unicode="&#x41e;" horiz-adv-x="808" 
d="M404 -16q-78 0 -144.5 29.5t-114.5 80.5t-75.5 119t-27.5 145t27.5 145t75.5 119t114.5 80.5t144.5 29.5t144.5 -29.5t114.5 -80.5t75.5 -119t27.5 -145t-27.5 -145t-75.5 -119t-114.5 -80.5t-144.5 -29.5zM404 18q67 0 126 25.5t103.5 71t70.5 107.5t26 136
q0 73 -26 135.5t-70.5 108t-103.5 71t-126 25.5t-126 -25.5t-103.5 -71t-70.5 -108t-26 -135.5q0 -74 26 -136t70.5 -107.5t103.5 -71t126 -25.5z" />
    <glyph glyph-name="uni041F" unicode="&#x41f;" horiz-adv-x="654" 
d="M82 716h490v-716h-36v682h-418v-682h-36v716z" />
    <glyph glyph-name="uni0420" unicode="&#x420;" horiz-adv-x="549" 
d="M82 0v716h220q47 0 87 -14.5t69.5 -41t46.5 -64.5t17 -85t-17 -85t-46.5 -64.5t-69.5 -41t-87 -14.5h-184v-306h-36zM306 340q34 0 66.5 11t58 33t40.5 54t15 73t-15 73t-40.5 53.5t-58 33t-66.5 11.5h-188v-342h188z" />
    <glyph glyph-name="uni0421" unicode="&#x421;" horiz-adv-x="720" 
d="M679 115q-48 -59 -115 -95t-160 -36q-78 0 -144.5 29.5t-114.5 80.5t-75.5 119t-27.5 145t27.5 145t75.5 119t114.5 80.5t144.5 29.5q85 0 147 -30.5t108 -87.5l-25 -24q-87 108 -230 108q-67 0 -126 -25.5t-103.5 -71t-70.5 -108t-26 -135.5q0 -74 26 -136t70.5 -107.5
t103.5 -71t126 -25.5q83 0 143 31.5t107 89.5z" />
    <glyph glyph-name="uni0422" unicode="&#x422;" horiz-adv-x="502" 
d="M233 0v682h-206v34h448v-34h-206v-682h-36z" />
    <glyph glyph-name="uni0423" unicode="&#x423;" horiz-adv-x="555" 
d="M277 112q-26 -59 -58.5 -93.5t-87.5 -34.5q-21 0 -36.5 5t-29.5 11l11 33q11 -6 25 -10.5t34 -4.5q29 0 52.5 18.5t42.5 59.5l30 66l-247 554h41l223 -504h4l221 504h40z" />
    <glyph glyph-name="uni0424" unicode="&#x424;" horiz-adv-x="784" 
d="M374 56q-72 3 -132.5 25.5t-105 62t-69.5 94t-25 120.5t25 120.5t69.5 94t105 62t132.5 25.5v104h36v-104q72 -3 132.5 -25.5t105 -62t69.5 -94t25 -120.5t-25 -120.5t-69.5 -94t-105 -62t-132.5 -25.5v-104h-36v104zM706 358q0 58 -21.5 106t-60.5 83t-93.5 55.5
t-120.5 23.5v-536q66 3 120.5 23.5t93.5 55.5t60.5 83t21.5 106zM78 358q0 -58 21.5 -106t60.5 -83t93.5 -55.5t120.5 -23.5v536q-66 -3 -120.5 -23.5t-93.5 -55.5t-60.5 -83t-21.5 -106z" />
    <glyph glyph-name="uni0425" unicode="&#x425;" horiz-adv-x="592" 
d="M273 370l-243 346h47l217 -314h4l220 314h44l-243 -346l255 -370h-46l-230 337h-4l-230 -337h-46z" />
    <glyph glyph-name="uni0426" unicode="&#x426;" horiz-adv-x="643" 
d="M562 -168v168h-480v716h36v-682h394v682h36v-682h50v-202h-36z" />
    <glyph glyph-name="uni0427" unicode="&#x427;" horiz-adv-x="570" 
d="M475 716h36v-716h-36v366q-41 -47 -91.5 -76.5t-123.5 -29.5q-45 0 -84 14.5t-68 42t-46 67t-17 90.5v242h36v-236q0 -47 14.5 -81.5t40 -58t60 -35t74.5 -11.5q36 0 67 11t56.5 29t45.5 41t36 46v295z" />
    <glyph glyph-name="uni0428" unicode="&#x428;" horiz-adv-x="888" 
d="M82 716h36v-682h308v682h36v-682h308v682h36v-716h-724v716z" />
    <glyph glyph-name="uni0429" unicode="&#x429;" horiz-adv-x="901" 
d="M82 716h36v-682h308v682h36v-682h308v682h36v-682h50v-202h-36v168h-738v716z" />
    <glyph glyph-name="uni042A" unicode="&#x42a;" horiz-adv-x="707" 
d="M245 428h206q46 0 86.5 -15t70 -42.5t46.5 -66t17 -86.5t-17 -88t-46.5 -69t-70 -45t-86.5 -16h-242v682h-182v34h218v-288zM455 34q36 0 68.5 12.5t57.5 36t39.5 57t14.5 74.5t-14.5 74.5t-39.5 57t-57.5 36t-68.5 12.5h-210v-360h210z" />
    <glyph glyph-name="uni042B" unicode="&#x42b;" horiz-adv-x="770" 
d="M82 716h36v-288h206q46 0 86.5 -15t70 -42.5t46.5 -66t17 -86.5t-17 -88t-46.5 -69t-70 -45t-86.5 -16h-242v716zM328 34q36 0 68.5 12.5t57.5 36t39.5 57t14.5 74.5t-14.5 74.5t-39.5 57t-57.5 36t-68.5 12.5h-210v-360h210zM652 716h36v-716h-36v716z" />
    <glyph glyph-name="uni042C" unicode="&#x42c;" horiz-adv-x="580" 
d="M82 716h36v-288h206q46 0 86.5 -15t70 -42.5t46.5 -66t17 -86.5t-17 -88t-46.5 -69t-70 -45t-86.5 -16h-242v716zM328 34q36 0 68.5 12.5t57.5 36t39.5 57t14.5 74.5t-14.5 74.5t-39.5 57t-57.5 36t-68.5 12.5h-210v-360h210z" />
    <glyph glyph-name="uni042D" unicode="&#x42d;" horiz-adv-x="720" 
d="M66 139q47 -58 107 -89.5t143 -31.5q65 0 122.5 24.5t102 67.5t71.5 102t30 129h-368v34h368q-3 70 -30 129t-71.5 102t-102 67.5t-122.5 24.5q-143 0 -230 -108l-25 24q46 57 108 87.5t147 30.5q78 0 144.5 -29.5t114.5 -80.5t75.5 -119t27.5 -145t-27.5 -145
t-75.5 -119t-114.5 -80.5t-144.5 -29.5q-93 0 -160 36t-115 95z" />
    <glyph glyph-name="uni042E" unicode="&#x42e;" horiz-adv-x="1067" 
d="M663 -16q-77 0 -142.5 29t-113.5 78.5t-76 116t-30 141.5h-183v-349h-36v716h36v-333h183q5 72 34 136t77 111t112 74.5t139 27.5q78 0 144.5 -29.5t114.5 -80.5t75.5 -119t27.5 -145t-27.5 -145t-75.5 -119t-114.5 -80.5t-144.5 -29.5zM663 18q67 0 126 25.5t103.5 71
t70.5 107.5t26 136q0 73 -26 135.5t-70.5 108t-103.5 71t-126 25.5t-126 -25.5t-103.5 -71t-70.5 -108t-26 -135.5q0 -74 26 -136t70.5 -107.5t103.5 -71t126 -25.5z" />
    <glyph glyph-name="uni042F" unicode="&#x42f;" horiz-adv-x="585" 
d="M503 0h-36v306h-182l-210 -306h-38v4l208 305l-2 3q-38 9 -71 26.5t-57 43t-38 58.5t-14 71q0 45 16 83t44.5 65t66.5 42t83 15h230v-716zM467 340v342h-188q-35 0 -67 -11.5t-57.5 -33t-40.5 -53.5t-15 -73q0 -38 15.5 -69.5t41.5 -54t60 -35t71 -12.5h180z" />
    <glyph glyph-name="uni0430" unicode="&#x430;" horiz-adv-x="501" 
d="M411 106h-4q-29 -56 -81 -89t-112 -33q-40 0 -73.5 12t-58 33t-38 50t-13.5 63q0 40 17.5 70.5t46 51.5t65 31.5t75.5 10.5q48 0 93 -12.5t83 -34.5v39q0 42 -13 74.5t-35.5 55t-53.5 34.5t-68 12q-51 0 -92 -24t-63 -63l-31 19q27 45 77 72.5t109 27.5q46 0 84 -15
t65 -41t42 -62.5t15 -78.5v-309h-36v106zM411 225q-39 23 -80 36t-92 13q-36 0 -67.5 -8.5t-54.5 -25t-36.5 -41t-13.5 -57.5q0 -29 12 -52.5t32.5 -40t47.5 -25t57 -8.5q37 0 72.5 17t62.5 46t43.5 66.5t16.5 79.5z" />
    <glyph glyph-name="uni0431" unicode="&#x431;" horiz-adv-x="578" 
d="M359 651q-117 0 -180 -64q-37 -38 -55 -93.5t-26 -123.5h4q29 62 82.5 99t128.5 37q50 0 92.5 -19.5t74 -54t49.5 -82.5t18 -105q0 -58 -18 -106t-50.5 -82.5t-76.5 -53.5t-95 -19q-49 0 -93.5 19t-78 57.5t-53 97.5t-19.5 139q0 112 24 189t72 124q40 38 94.5 55.5
t118.5 17.5q54 0 77.5 12t29.5 38h36q-5 -23 -15.5 -38.5t-28.5 -25t-45.5 -14t-66.5 -4.5zM307 474q-41 0 -78 -15.5t-65 -44.5t-44.5 -72t-16.5 -97q0 -49 16 -91t43.5 -72.5t65 -48t79.5 -17.5t79.5 16t65 45.5t43.5 72t16 95.5t-16.5 95.5t-44.5 72t-65 45.5t-78 16z
" />
    <glyph glyph-name="uni0432" unicode="&#x432;" horiz-adv-x="474" 
d="M360 248q38 -14 62.5 -42t24.5 -70q0 -30 -11.5 -55t-31.5 -43t-47.5 -28t-59.5 -10h-234v490h226q31 0 56.5 -10t44 -26.5t29 -39.5t10.5 -48q0 -37 -18.5 -66.5t-50.5 -46.5v-5zM99 234v-202h202q22 0 42 6.5t35 19.5t24 32t9 43t-9 43t-24 32t-35 19.5t-42 6.5h-202z
M99 458v-192h194q43 0 71.5 27.5t28.5 68.5q0 21 -8.5 38.5t-22.5 30.5t-33.5 20t-40.5 7h-189z" />
    <glyph glyph-name="uni0433" unicode="&#x433;" horiz-adv-x="388" 
d="M63 490h298v-32h-262v-458h-36v490z" />
    <glyph glyph-name="uni0434" unicode="&#x434;" horiz-adv-x="580" 
d="M31 32h45q13 7 25 26t21 46t14 60t5 68v258h360v-458h48v-184h-36v152h-446v-152h-36v184zM465 32v426h-288v-230q0 -75 -16 -121t-39 -75h343z" />
    <glyph glyph-name="uni0435" unicode="&#x435;" horiz-adv-x="520" 
d="M478 116q-12 -26 -30.5 -50t-44 -42t-58.5 -29t-74 -11q-52 0 -96 19.5t-76 54.5t-50 82.5t-18 104.5q0 53 16.5 100.5t47 83t74 56.5t96.5 21q51 0 92.5 -18t70.5 -51t45 -79t16 -102v-5q-1 -3 -1 -5v-6h-421q0 -60 19.5 -102.5t49.5 -69.5t66 -39.5t70 -12.5
q36 0 63.5 8.5t48 23.5t36.5 36t30 46zM453 272q-1 31 -11.5 66.5t-32.5 65.5t-58 50t-88 20q-33 0 -65.5 -12t-60 -37t-46.5 -63t-24 -90h386z" />
    <glyph glyph-name="uni0436" unicode="&#x436;" horiz-adv-x="608" 
d="M287 0v253h-4l-244 -253h-40v4l245 254l-234 228v4h43l230 -227h4v227h34v-227h4l230 227h43v-4l-234 -228l245 -254v-4h-40l-244 253h-4v-253h-34z" />
    <glyph glyph-name="uni0437" unicode="&#x437;" horiz-adv-x="458" 
d="M224 -16q-49 0 -97.5 24t-81.5 66l26 24q35 -42 72.5 -61t83.5 -19q39 0 68 9t48 24.5t28.5 35.5t9.5 43q0 20 -8.5 39t-25.5 33.5t-42 23.5t-58 9h-68v32h65q54 0 87 29.5t33 77.5q0 42 -38 71t-100 29q-79 0 -138 -77l-25 23q34 45 76 65.5t87 20.5q34 0 65.5 -9
t55.5 -26t38.5 -41t14.5 -53q0 -45 -23.5 -75t-59.5 -46v-4q45 -14 72.5 -45t27.5 -79q0 -32 -14 -58t-39.5 -45.5t-61 -30t-78.5 -10.5z" />
    <glyph glyph-name="uni0438" unicode="&#x438;" horiz-adv-x="532" 
d="M469 0h-36v340l4 96h-4l-334 -436h-36v490h36v-340l-4 -96h4l334 436h36v-490z" />
    <glyph glyph-name="uni0439" unicode="&#x439;" horiz-adv-x="532" 
d="M469 0h-36v340l4 96h-4l-334 -436h-36v490h36v-340l-4 -96h4l334 436h36v-490zM274 583q-23 0 -44.5 8.5t-37.5 23.5t-25.5 36t-9.5 46h36q0 -32 21.5 -57t59.5 -25q18 0 33 7t25.5 18.5t16.5 26t6 30.5h34q0 -25 -9.5 -46t-25 -36t-36.5 -23.5t-44 -8.5z" />
    <glyph glyph-name="uni043A" unicode="&#x43a;" horiz-adv-x="411" 
d="M99 0h-36v490h36v-228h4l250 228h49v-4l-253 -229l262 -253v-4h-46l-262 252h-4v-252z" />
    <glyph glyph-name="uni043B" unicode="&#x43b;" horiz-adv-x="580" 
d="M46 34q8 -4 16 -6t19 -2q35 0 46.5 38t11.5 118v308h378v-490h-36v458h-306v-286q0 -52 -6.5 -86.5t-18.5 -55.5t-29 -29.5t-39 -8.5q-11 0 -20.5 2.5t-15.5 5.5v34z" />
    <glyph glyph-name="uni043C" unicode="&#x43c;" horiz-adv-x="643" 
d="M548 0v345l4 96h-4l-207 -377h-40l-206 377h-4l4 -96v-345h-36v490h47l213 -392h3l214 392h48v-490h-36z" />
    <glyph glyph-name="uni043D" unicode="&#x43d;" horiz-adv-x="532" 
d="M433 0v241h-334v-241h-36v490h36v-217h334v217h36v-490h-36z" />
    <glyph glyph-name="uni043E" unicode="&#x43e;" horiz-adv-x="548" 
d="M274 506q52 0 96.5 -20t77 -55t51 -82.5t18.5 -103.5t-18.5 -103.5t-51 -82.5t-77 -55t-96.5 -20t-96.5 20t-77 55t-51 82.5t-18.5 103.5t18.5 103.5t51 82.5t77 55t96.5 20zM274 16q40 0 77.5 17t66.5 47.5t46 72.5t17 92t-17 92t-46 72.5t-66.5 47.5t-77.5 17
q-41 0 -78 -17t-66 -47.5t-46 -72.5t-17 -92t17 -92t46 -72.5t66 -47.5t78 -17z" />
    <glyph glyph-name="uni043F" unicode="&#x43f;" horiz-adv-x="512" 
d="M449 0h-36v458h-314v-458h-36v490h386v-490z" />
    <glyph glyph-name="uni0440" unicode="&#x440;" horiz-adv-x="558" 
d="M59 490h32v-103h4q13 24 31 45.5t42.5 38t56.5 26t73 9.5q47 0 89 -19t73 -53.5t49 -82.5t18 -106t-18 -106t-49 -82.5t-73 -53.5t-89 -19q-41 0 -73 9.5t-56.5 26t-42.5 38t-31 45.5h-4l4 -68v-251h-36v706zM291 16q40 0 76 16t63.5 45.5t44 72t16.5 95.5t-16.5 95.5
t-44 72t-63.5 45.5t-76 16t-76 -15.5t-63.5 -44.5t-44 -72t-16.5 -97t16.5 -97t44 -72t63.5 -44.5t76 -15.5z" />
    <glyph glyph-name="uni0441" unicode="&#x441;" horiz-adv-x="504" 
d="M477 122q-28 -65 -79 -101.5t-128 -36.5q-51 0 -94.5 20t-76 55t-50.5 82.5t-18 103.5t18 103.5t50.5 82.5t76 55t94.5 20q77 0 128 -36.5t79 -101.5l-31 -14q-26 58 -69.5 89t-106.5 31q-39 0 -75.5 -16.5t-65 -46.5t-45.5 -72t-17 -94t17 -94t45.5 -72t65 -46.5
t75.5 -16.5q63 0 106.5 31t69.5 89z" />
    <glyph glyph-name="uni0442" unicode="&#x442;" horiz-adv-x="407" 
d="M27 490h376v-32h-170v-458h-36v458h-170v32z" />
    <glyph glyph-name="uni0443" unicode="&#x443;" horiz-adv-x="458" 
d="M103 -216l112 257l-209 449h42l185 -404h2l176 404h41l-311 -706h-38z" />
    <glyph glyph-name="uni0444" unicode="&#x444;" horiz-adv-x="724" 
d="M344 -216v200q-67 2 -122.5 19.5t-95.5 50.5t-62 80.5t-22 110.5q0 62 22 110t62 80.5t95.5 50.5t122.5 20v210h36v-210q67 -2 122.5 -20t95.5 -50.5t62 -80.5t22 -110q0 -63 -22 -110.5t-62 -80.5t-95.5 -50.5t-122.5 -19.5v-200h-36zM78 245q0 -53 19 -94.5t54 -70
t84 -44.5t109 -18v454q-60 -2 -109 -18t-84 -45t-54 -70.5t-19 -93.5zM646 245q0 52 -19 93.5t-54 70.5t-84 45t-109 18v-454q60 2 109 18t84 44.5t54 70t19 94.5z" />
    <glyph glyph-name="uni0445" unicode="&#x445;" horiz-adv-x="422" 
d="M371 0l-161 223l-159 -223h-42l181 249l-173 241h44l150 -214l151 214h43l-174 -241l182 -249h-42z" />
    <glyph glyph-name="uni0446" unicode="&#x446;" 
d="M461 -152v152h-398v490h36v-458h314v458h36v-458h48v-184h-36z" />
    <glyph glyph-name="uni0447" unicode="&#x447;" horiz-adv-x="483" 
d="M222 190q60 0 102 24.5t60 63.5v212h36v-490h-36v225q-32 -36 -74.5 -51.5t-96.5 -15.5q-41 0 -73.5 14t-55.5 39t-35.5 59.5t-12.5 76.5v143h36v-139q0 -42 12 -72.5t32.5 -50t47.5 -29t58 -9.5z" />
    <glyph glyph-name="uni0448" unicode="&#x448;" horiz-adv-x="745" 
d="M379 32h244v458h36v-490h-596v490h36v-458h244v458h36v-458z" />
    <glyph glyph-name="uni0449" unicode="&#x449;" horiz-adv-x="761" 
d="M63 490h36v-458h244v458h36v-458h244v458h36v-458h48v-184h-36v152h-608v490z" />
    <glyph glyph-name="uni044A" unicode="&#x44a;" horiz-adv-x="550" 
d="M175 300h196q32 0 60 -11.5t48.5 -31.5t32 -47.5t11.5 -59.5t-11.5 -59.5t-32 -47.5t-48.5 -31.5t-60 -11.5h-232v458h-112v32h148v-190zM175 268v-236h200q22 0 42 8.5t35.5 24t25 37t9.5 48.5t-9.5 48.5t-25 37t-35.5 24t-42 8.5h-200z" />
    <glyph glyph-name="uni044B" unicode="&#x44b;" horiz-adv-x="659" 
d="M63 0v490h36v-190h196q32 0 60 -11.5t48.5 -31.5t32 -47.5t11.5 -59.5t-11.5 -59.5t-32 -47.5t-48.5 -31.5t-60 -11.5h-232zM99 268v-236h200q22 0 42 8.5t35.5 24t25 37t9.5 48.5t-9.5 48.5t-25 37t-35.5 24t-42 8.5h-200zM560 0v490h36v-490h-36z" />
    <glyph glyph-name="uni044C" unicode="&#x44c;" horiz-adv-x="474" 
d="M63 0v490h36v-190h196q32 0 60 -11.5t48.5 -31.5t32 -47.5t11.5 -59.5t-11.5 -59.5t-32 -47.5t-48.5 -31.5t-60 -11.5h-232zM99 268v-236h200q22 0 42 8.5t35.5 24t25 37t9.5 48.5t-9.5 48.5t-25 37t-35.5 24t-42 8.5h-200z" />
    <glyph glyph-name="uni044D" unicode="&#x44d;" horiz-adv-x="502" 
d="M193 261h242q-3 48 -20.5 87.5t-45.5 67t-63 43t-72 15.5q-63 0 -106.5 -31t-69.5 -89l-31 14q28 65 79 101.5t128 36.5q51 0 94.5 -20t75 -55t49.5 -82.5t18 -103.5t-18 -103.5t-49.5 -82.5t-75 -55t-94.5 -20q-77 0 -128 36.5t-79 101.5l31 14q26 -58 69.5 -89
t106.5 -31q37 0 72 15.5t63 43t45.5 67t20.5 87.5h-242v32z" />
    <glyph glyph-name="uni044E" unicode="&#x44e;" horiz-adv-x="742" 
d="M72 0v490h36v-234h117q2 54 21 99.5t51.5 79t76 52.5t94.5 19q52 0 96.5 -20t77 -55t51 -82.5t18.5 -103.5t-18.5 -103.5t-51 -82.5t-77 -55t-96.5 -20q-50 0 -92.5 18t-75 50t-52 76t-23.5 96h-117v-224h-36zM468 16q40 0 77.5 17t66.5 47.5t46 72.5t17 92t-17 92
t-46 72.5t-66.5 47.5t-77.5 17q-41 0 -78 -17t-66 -47.5t-46 -72.5t-17 -92t17 -92t46 -72.5t66 -47.5t78 -17z" />
    <glyph glyph-name="uni044F" unicode="&#x44f;" horiz-adv-x="465" 
d="M4 0v5l153 189l-4 3q-56 7 -92.5 43t-36.5 99q0 35 12 63t33 47.5t49 30t61 10.5h223v-490h-36v196h-165l-155 -196h-42zM60 341q0 -57 35.5 -85t86.5 -28h184v230h-184q-51 0 -86.5 -30t-35.5 -87z" />
    <glyph glyph-name="uni0450" unicode="&#x450;" horiz-adv-x="520" 
d="M478 116q-12 -26 -30.5 -50t-44 -42t-58.5 -29t-74 -11q-52 0 -96 19.5t-76 54.5t-50 82.5t-18 104.5q0 53 16.5 100.5t47 83t74 56.5t96.5 21q51 0 92.5 -18t70.5 -51t45 -79t16 -102v-5q-1 -3 -1 -5v-6h-421q0 -60 19.5 -102.5t49.5 -69.5t66 -39.5t70 -12.5
q36 0 63.5 8.5t48 23.5t36.5 36t30 46zM453 272q-1 31 -11.5 66.5t-32.5 65.5t-58 50t-88 20q-33 0 -65.5 -12t-60 -37t-46.5 -63t-24 -90h386zM243 596l-62 120h46l52 -120h-36z" />
    <glyph glyph-name="uni0451" unicode="&#x451;" horiz-adv-x="520" 
d="M478 116q-12 -26 -30.5 -50t-44 -42t-58.5 -29t-74 -11q-52 0 -96 19.5t-76 54.5t-50 82.5t-18 104.5q0 53 16.5 100.5t47 83t74 56.5t96.5 21q51 0 92.5 -18t70.5 -51t45 -79t16 -102v-5q-1 -3 -1 -5v-6h-421q0 -60 19.5 -102.5t49.5 -69.5t66 -39.5t70 -12.5
q36 0 63.5 8.5t48 23.5t36.5 36t30 46zM453 272q-1 31 -11.5 66.5t-32.5 65.5t-58 50t-88 20q-33 0 -65.5 -12t-60 -37t-46.5 -63t-24 -90h386zM190 627q-14 0 -23 9t-9 23t9 23t23 9t23 -9t9 -23t-9 -23t-23 -9zM298 659q0 14 9 23t23 9t23 -9t9 -23t-9 -23t-23 -9t-23 9
t-9 23z" />
    <glyph glyph-name="uni0452" unicode="&#x452;" 
d="M63 592h-66v32h66v92h36v-92h174v-32h-174v-135l-4 -88h4q27 63 75 100t123 37q44 0 76.5 -15t53.5 -42t31.5 -63.5t10.5 -79.5v-417q0 -51 -23.5 -83t-74.5 -32q-13 0 -25.5 3t-19.5 7l9 30q14 -8 35 -8q31 0 47 22.5t16 62.5v407q0 81 -35 128.5t-109 47.5
q-39 0 -73.5 -18t-60.5 -49t-41 -72.5t-15 -88.5v-246h-36v592z" />
    <glyph glyph-name="uni0453" unicode="&#x453;" horiz-adv-x="388" 
d="M63 490h298v-32h-262v-458h-36v490zM179 596l52 120h46l-62 -120h-36z" />
    <glyph glyph-name="uni0454" unicode="&#x454;" horiz-adv-x="527" 
d="M325 261v-32h-242q3 -48 20.5 -87.5t45.5 -67t62.5 -43t72.5 -15.5q63 0 106.5 31t69.5 89l31 -14q-28 -65 -79 -101.5t-128 -36.5q-51 0 -94.5 20t-75 55t-49.5 82.5t-18 103.5t18 103.5t49.5 82.5t75 55t94.5 20q77 0 128 -36.5t79 -101.5l-31 -14q-26 58 -69.5 89
t-106.5 31q-38 0 -72.5 -15.5t-62.5 -43t-45.5 -67t-20.5 -87.5h242z" />
    <glyph glyph-name="uni0455" unicode="&#x455;" horiz-adv-x="441" 
d="M227 -16q-38 0 -70.5 11t-58 30t-43.5 44.5t-28 55.5l32 14q20 -59 66 -91t102 -32q70 0 110.5 32t40.5 80q0 18 -6 33.5t-21.5 29t-41 24t-64.5 19.5l-63 14q-26 6 -51.5 15.5t-45.5 24.5t-33 35.5t-13 47.5q0 31 15.5 56t41.5 42.5t58.5 27t67.5 9.5q64 0 113.5 -29
t69.5 -85l-31 -13q-23 50 -60 72.5t-91 22.5q-29 0 -55.5 -7t-47 -20.5t-33 -32.5t-12.5 -43q0 -19 9.5 -33.5t26 -26t39 -20t48.5 -14.5l70 -16q74 -17 110 -51.5t36 -78.5q0 -31 -13 -57.5t-37.5 -46.5t-59 -31.5t-77.5 -11.5z" />
    <glyph glyph-name="uni0456" unicode="&#x456;" horiz-adv-x="170" 
d="M85 625q-14 0 -24 10t-10 24t10 24t24 10t24 -10t10 -24t-10 -24t-24 -10zM67 0v490h36v-490h-36z" />
    <glyph glyph-name="uni0457" unicode="&#x457;" horiz-adv-x="170" 
d="M29 627q-14 0 -23 9t-9 23t9 23t23 9t23 -9t9 -23t-9 -23t-23 -9zM109 659q0 14 9 23t23 9t23 -9t9 -23t-9 -23t-23 -9t-23 9t-9 23zM67 0v490h36v-490h-36z" />
    <glyph glyph-name="uni0458" unicode="&#x458;" horiz-adv-x="170" 
d="M-31 -186q14 -8 35 -8q31 0 47 22.5t16 62.5v599h36v-601q0 -51 -24.5 -83t-73.5 -32q-13 0 -25.5 3t-19.5 7zM85 625q-14 0 -24 10t-10 24t10 24t24 10t24 -10t10 -24t-10 -24t-24 -10z" />
    <glyph glyph-name="uni0459" unicode="&#x459;" horiz-adv-x="873" 
d="M46 34q8 -4 16 -6t19 -2q35 0 46.5 38t11.5 118v308h378v-200h181q31 0 58 -11t47 -30t31.5 -46t11.5 -58q0 -32 -11.5 -58.5t-31.5 -45.5t-47 -30t-58 -11h-217v458h-306v-286q0 -52 -6.5 -86.5t-18.5 -55.5t-29 -29.5t-39 -8.5q-11 0 -20.5 2.5t-15.5 5.5v34zM517 258
v-226h175q22 0 43 7.5t37.5 22t27 35.5t10.5 48t-10.5 48t-27 35.5t-37.5 22t-43 7.5h-175z" />
    <glyph glyph-name="uni045A" unicode="&#x45a;" horiz-adv-x="800" 
d="M413 0v258h-314v-258h-36v490h36v-200h314v200h36v-200h176q31 0 58 -11t47 -30t31.5 -46t11.5 -58q0 -32 -11.5 -58.5t-31.5 -45.5t-47 -30t-58 -11h-212zM449 258v-226h170q22 0 43 7.5t37.5 22t27 35.5t10.5 48t-10.5 48t-27 35.5t-37.5 22t-43 7.5h-170z" />
    <glyph glyph-name="uni045B" unicode="&#x45b;" 
d="M63 592h-66v32h66v92h36v-92h174v-32h-174v-135l-4 -88h4q27 63 75 100t123 37q44 0 76.5 -15t53.5 -42t31.5 -63.5t10.5 -79.5v-306h-36v298q0 81 -35 128.5t-109 47.5q-39 0 -73.5 -18t-60.5 -49t-41 -72.5t-15 -88.5v-246h-36v592z" />
    <glyph glyph-name="uni045C" unicode="&#x45c;" horiz-adv-x="411" 
d="M99 0h-36v490h36v-228h4l250 228h49v-4l-253 -229l262 -253v-4h-46l-262 252h-4v-252zM219 596l52 120h46l-62 -120h-36z" />
    <glyph glyph-name="uni045D" unicode="&#x45d;" horiz-adv-x="532" 
d="M469 0h-36v340l4 96h-4l-334 -436h-36v490h36v-340l-4 -96h4l334 436h36v-490zM257 596l-62 120h46l52 -120h-36z" />
    <glyph glyph-name="uni045E" unicode="&#x45e;" horiz-adv-x="458" 
d="M103 -216l112 257l-209 449h42l185 -404h2l176 404h41l-311 -706h-38zM233 598q-23 0 -44.5 8.5t-37.5 23.5t-25.5 36t-9.5 46h36q0 -32 21.5 -57t59.5 -25q18 0 33 7t25.5 18.5t16.5 26t6 30.5h34q0 -25 -9.5 -46t-25 -36t-36.5 -23.5t-44 -8.5z" />
    <glyph glyph-name="uni045F" unicode="&#x45f;" horiz-adv-x="532" 
d="M248 -152v152h-185v490h36v-458h334v458h36v-490h-185v-152h-36z" />
    <glyph glyph-name="uni0490" unicode="&#x490;" horiz-adv-x="499" 
d="M118 0h-36v716h354v100h36v-134h-354v-682z" />
    <glyph glyph-name="uni0491" unicode="&#x491;" horiz-adv-x="388" 
d="M63 490h262v88h36v-120h-262v-458h-36v490z" />
    <glyph glyph-name="uni04B0" unicode="&#x4b0;" horiz-adv-x="564" 
d="M264 0v295h-194v34h185l-242 387h42l225 -362h4l225 362h42l-242 -387h185v-34h-194v-295h-36z" />
    <glyph glyph-name="uni04B1" unicode="&#x4b1;" horiz-adv-x="462" 
d="M248 0v-216h-36v216h-160v32h147l-195 458h39l188 -444l188 444h39l-197 -458h145v-32h-158z" />
    <glyph glyph-name="Wgrave" unicode="&#x1e80;" horiz-adv-x="894" 
d="M673 0h-40l-180 568h-4l-180 -568h-40l-211 716h38l191 -656h4l179 560h42l179 -560h4l183 656h38zM423 780l-62 120h46l52 -120h-36z" />
    <glyph glyph-name="wgrave" unicode="&#x1e81;" horiz-adv-x="710" 
d="M510 0l-156 451l-153 -451h-31l-166 490h34l148 -437h1l148 437h41l149 -432h1l148 432h32l-166 -490h-30zM332 596l-62 120h46l52 -120h-36z" />
    <glyph glyph-name="Wacute" unicode="&#x1e82;" horiz-adv-x="894" 
d="M673 0h-40l-180 568h-4l-180 -568h-40l-211 716h38l191 -656h4l179 560h42l179 -560h4l183 656h38zM440 780l52 120h46l-62 -120h-36z" />
    <glyph glyph-name="wacute" unicode="&#x1e83;" horiz-adv-x="710" 
d="M510 0l-156 451l-153 -451h-31l-166 490h34l148 -437h1l148 437h41l149 -432h1l148 432h32l-166 -490h-30zM345 596l52 120h46l-62 -120h-36z" />
    <glyph glyph-name="Wdieresis" unicode="&#x1e84;" horiz-adv-x="894" 
d="M673 0h-40l-180 568h-4l-180 -568h-40l-211 716h38l191 -656h4l179 560h42l179 -560h4l183 656h38zM381 811q-14 0 -23 9t-9 23t9 23t23 9t23 -9t9 -23t-9 -23t-23 -9zM489 843q0 14 9 23t23 9t23 -9t9 -23t-9 -23t-23 -9t-23 9t-9 23z" />
    <glyph glyph-name="wdieresis" unicode="&#x1e85;" horiz-adv-x="710" 
d="M510 0l-156 451l-153 -451h-31l-166 490h34l148 -437h1l148 437h41l149 -432h1l148 432h32l-166 -490h-30zM284 627q-14 0 -23 9t-9 23t9 23t23 9t23 -9t9 -23t-9 -23t-23 -9zM392 659q0 14 9 23t23 9t23 -9t9 -23t-9 -23t-23 -9t-23 9t-9 23z" />
    <glyph glyph-name="Ygrave" unicode="&#x1ef2;" horiz-adv-x="564" 
d="M266 0v315l-253 401h42l227 -362h4l223 362h42l-249 -401v-315h-36zM266 780l-62 120h46l52 -120h-36z" />
    <glyph glyph-name="ygrave" unicode="&#x1ef3;" horiz-adv-x="458" 
d="M103 -216l112 257l-209 449h42l185 -404h2l176 404h41l-311 -706h-38zM212 596l-62 120h46l52 -120h-36z" />
    <glyph glyph-name="endash" unicode="&#x2013;" horiz-adv-x="578" 
d="M63 326h452v-32h-452v32z" />
    <glyph glyph-name="emdash" unicode="&#x2014;" horiz-adv-x="876" 
d="M63 326h750v-32h-750v32z" />
    <glyph glyph-name="quoteleft" unicode="&#x2018;" horiz-adv-x="199" 
d="M145 717l-42 -63q9 -4 15 -12.5t6 -18.5q0 -15 -10 -25t-25 -10t-25 10t-10 25q0 8 2.5 13.5t6.5 11.5l59 84z" />
    <glyph glyph-name="quoteright" unicode="&#x2019;" horiz-adv-x="199" 
d="M54 603l42 63q-9 4 -15 12.5t-6 18.5q0 15 10 25t25 10t25 -10t10 -25q0 -8 -2.5 -13.5t-6.5 -11.5l-59 -84z" />
    <glyph glyph-name="quotesinglbase" unicode="&#x201a;" horiz-adv-x="199" 
d="M54 -62l42 63q-9 4 -15 12.5t-6 18.5q0 15 10 25t25 10t25 -10t10 -25q0 -8 -2.5 -13.5t-6.5 -11.5l-59 -84z" />
    <glyph glyph-name="quotedblleft" unicode="&#x201c;" horiz-adv-x="319" 
d="M145 717l-42 -63q9 -4 15 -12.5t6 -18.5q0 -15 -10 -25t-25 -10t-25 10t-10 25q0 8 2.5 13.5t6.5 11.5l59 84zM265 717l-42 -63q9 -4 15 -12.5t6 -18.5q0 -15 -10 -25t-25 -10t-25 10t-10 25q0 8 2.5 13.5t6.5 11.5l59 84z" />
    <glyph glyph-name="quotedblright" unicode="&#x201d;" horiz-adv-x="319" 
d="M54 603l42 63q-9 4 -15 12.5t-6 18.5q0 15 10 25t25 10t25 -10t10 -25q0 -8 -2.5 -13.5t-6.5 -11.5l-59 -84zM174 603l42 63q-9 4 -15 12.5t-6 18.5q0 15 10 25t25 10t25 -10t10 -25q0 -8 -2.5 -13.5t-6.5 -11.5l-59 -84z" />
    <glyph glyph-name="quotedblbase" unicode="&#x201e;" horiz-adv-x="319" 
d="M54 -62l42 63q-9 4 -15 12.5t-6 18.5q0 15 10 25t25 10t25 -10t10 -25q0 -8 -2.5 -13.5t-6.5 -11.5l-59 -84zM174 -62l42 63q-9 4 -15 12.5t-6 18.5q0 15 10 25t25 10t25 -10t10 -25q0 -8 -2.5 -13.5t-6.5 -11.5l-59 -84z" />
    <glyph glyph-name="bullet" unicode="&#x2022;" horiz-adv-x="310" 
d="M155 260q-27 0 -45.5 18.5t-18.5 45.5q0 26 18.5 45t45.5 19q26 0 45 -19t19 -45q0 -27 -19 -45.5t-45 -18.5z" />
    <glyph glyph-name="ellipsis" unicode="&#x2026;" horiz-adv-x="562" 
d="M89 -6q-15 0 -25 10t-10 25t10 25t25 10t25 -10t10 -25t-10 -25t-25 -10zM281 -6q-15 0 -25 10t-10 25t10 25t25 10t25 -10t10 -25t-10 -25t-25 -10zM473 -6q-15 0 -25 10t-10 25t10 25t25 10t25 -10t10 -25t-10 -25t-25 -10z" />
    <glyph glyph-name="guilsinglleft" unicode="&#x2039;" horiz-adv-x="324" 
d="M256 90l-24 -22l-187 203l187 203l24 -22l-166 -181z" />
    <glyph glyph-name="guilsinglright" unicode="&#x203a;" horiz-adv-x="324" 
d="M234 271l-166 181l24 22l187 -203l-187 -203l-24 22z" />
    <glyph glyph-name="fraction" unicode="&#x2044;" horiz-adv-x="192" 
d="M-152 20l467 695l29 -19l-467 -695z" />
    <glyph glyph-name="uni2074" unicode="&#x2074;" horiz-adv-x="323" 
d="M31 455l186 261h20v-249h55v-30h-55v-87h-32v87h-174v18zM205 467v177h-4l-125 -177h129z" />
    <glyph glyph-name="uni20A3" unicode="&#x20a3;" horiz-adv-x="522" 
d="M27 168h77v516h377v-34h-341v-299h309v-34h-309v-149h148v-32h-148v-136h-36v136h-77v32z" />
    <glyph glyph-name="uni20A4" unicode="&#x20a4;" horiz-adv-x="496" 
d="M161 348q14 -26 23.5 -54.5t9.5 -73.5h121v-32h-126q-10 -45 -36 -85.5t-54 -65.5l4 -3h235q28 0 46 5t30 14.5t19.5 23.5t13.5 32l31 -13q-15 -51 -47 -73.5t-93 -22.5h-302v24q20 10 38.5 28t34 40t27 47t17.5 49h-113v32h118q0 43 -11 72.5t-26 55.5h-81v32h63
q-16 28 -28 59t-12 73q0 36 11.5 69.5t34.5 60t57 42.5t80 16q41 0 71 -11t51 -30t35 -43.5t25 -51.5l-34 -14q-7 21 -19 41.5t-30 37t-42.5 27t-56.5 10.5q-36 0 -63.5 -13t-46 -35t-28 -49.5t-9.5 -56.5q0 -41 14 -71.5t31 -60.5h171v-32h-154z" />
    <glyph glyph-name="uni20A9" unicode="&#x20a9;" horiz-adv-x="953" 
d="M805 380h112v-32h-121l-91 -348h-40l-101 348h-172l-104 -348h-40l-92 348h-120v32h111l-80 304h38l78 -304h183l93 304h42l88 -304h180l78 304h38zM270 60l87 288h-166l75 -288h4zM687 60l74 288h-162l84 -288h4zM402 380h153l-73 252h-4z" />
    <glyph glyph-name="uni20AB" unicode="&#x20ab;" horiz-adv-x="548" 
d="M257 -16q-46 0 -87 18t-72 51t-49 79.5t-18 104.5t18 104.5t49 79.5t72 51t87 18q39 0 70 -9t54.5 -24.5t40.5 -35.5t29 -42h4l-4 68v113h-167v32h167v92h36v-92h68v-32h-68v-560h-32v95h-4q-12 -22 -29 -42t-40.5 -35.5t-54.5 -24.5t-70 -9zM263 16q40 0 75 15.5t61 44
t41 69.5t15 92t-15 92t-41 69.5t-61 44t-75 15.5t-75.5 -15.5t-62.5 -44t-42.5 -69.5t-15.5 -92t15.5 -92t42.5 -69.5t62.5 -44t75.5 -15.5zM73 -84h414v-32h-414v32z" />
    <glyph glyph-name="Euro" unicode="&#x20ac;" horiz-adv-x="609" 
d="M27 440h88q13 61 42.5 109t70.5 81.5t91.5 51.5t106.5 18q44 0 80.5 -12.5t64.5 -32.5l-16 -28q-29 20 -59.5 29.5t-71.5 9.5q-44 0 -87.5 -14.5t-80 -43t-64.5 -70.5t-41 -98h255v-32h-261q-2 -16 -3 -32.5t-1 -33.5t0.5 -33.5t3.5 -32.5h261v-32h-255q14 -56 42.5 -98
t66 -70.5t82 -43t90.5 -14.5q42 0 72 9t62 29l16 -31q-31 -20 -69.5 -30.5t-82.5 -10.5q-59 0 -110.5 18t-92.5 51.5t-70 81.5t-42 109h-88v32h82q-2 16 -3 32.5t-1 33.5t1 33.5t3 32.5h-82v32z" />
    <glyph glyph-name="uni20AE" unicode="&#x20ae;" horiz-adv-x="502" 
d="M233 0v171l-144 -89v37l144 90v154l-144 -89v37l144 90v249h-206v34h448v-34h-206v-225l140 88v-38l-140 -89v-153l140 88v-38l-140 -89v-194h-36z" />
    <glyph glyph-name="uni20B1" unicode="&#x20b1;" horiz-adv-x="602" 
d="M27 495h80v189h212q46 0 83.5 -14t64.5 -39t42.5 -59.5t17.5 -76.5h57v-32h-58q-4 -39 -20.5 -70.5t-43.5 -54.5t-63.5 -35.5t-79.5 -12.5h-176v-290h-36v463h-80v32zM143 495h348q-2 36 -15.5 64.5t-36.5 48.5t-53 31t-63 11h-180v-155zM323 324q31 0 59.5 9.5t51 27.5
t37 44t19.5 58h-347v-139h180z" />
    <glyph glyph-name="uni20B8" unicode="&#x20b8;" horiz-adv-x="502" 
d="M233 0v469h-206v34h448v-34h-206v-469h-36zM27 650v34h448v-34h-448z" />
    <glyph glyph-name="uni20B9" unicode="&#x20b9;" horiz-adv-x="534" 
d="M27 684h480v-32h-152q41 -23 66.5 -61.5t28.5 -89.5h57v-32h-57q-5 -40 -23.5 -72t-48 -54t-67.5 -34t-81 -12h-82l-2 -3l293 -290v-4h-41l-304 297v32h140q33 0 63.5 9t55 27t41 44t20.5 60h-387v32h387q-3 35 -18 63t-39.5 47.5t-56 30t-66.5 10.5h-207v32z" />
    <glyph glyph-name="uni20BA" unicode="&#x20ba;" horiz-adv-x="507" 
d="M204 684v-202l143 90v-38l-143 -90v-154l143 90v-38l-143 -90v-220q55 0 100.5 18.5t77.5 50t50 73t18 87.5h30q0 -57 -20.5 -105t-57 -82.5t-87 -54t-111.5 -19.5h-36v228l-141 -87v37l141 88v154l-141 -87v37l141 88v226h36z" />
    <glyph glyph-name="uni20BD" unicode="&#x20bd;" horiz-adv-x="553" 
d="M27 324h79v360h212q47 0 85.5 -14.5t65.5 -40.5t42 -62.5t15 -79.5q0 -44 -15 -80t-42 -62t-65.5 -40.5t-85.5 -14.5h-176v-121h153v-34h-153v-135h-36v135h-79v34h79v121h-79v34zM322 324q34 0 65 11.5t53.5 32.5t36 51t13.5 68q0 37 -13.5 67.5t-36 51.5t-53.5 32.5
t-65 11.5h-180v-326h180z" />
    <glyph glyph-name="uni2116" unicode="&#x2116;" horiz-adv-x="1072" 
d="M869 390q-36 0 -66.5 14t-53 37t-35 54t-12.5 66q0 34 12.5 65.5t35 54.5t53 37t66.5 14t66.5 -14t53 -37t35 -54.5t12.5 -65.5q0 -35 -12.5 -66t-35 -54t-53 -37t-66.5 -14zM870 422q28 0 52 10.5t42 29.5t28 44t10 55t-10 55.5t-28 44t-42 29t-52 10.5q-27 0 -51 -10.5
t-42 -29t-28.5 -44t-10.5 -55.5t10.5 -55t28.5 -44t42 -29.5t51 -10.5zM729 238v34h280v-34h-280zM82 716h53l431 -652h4l-4 138v514h36v-716h-36l-448 678h-4l4 -138v-540h-36v716z" />
    <glyph glyph-name="minus" unicode="&#x2212;" horiz-adv-x="538" 
d="M63 287h412v-32h-412v32z" />
    <glyph glyph-name="uni2215" unicode="&#x2215;" horiz-adv-x="393" 
d="M30 0l297 716h36l-297 -716h-36z" />
    <glyph glyph-name="uniF8FF" horiz-adv-x="1000" 
d="M891 451q4 -21 5.5 -42t1.5 -44q0 -89 -28.5 -163.5t-81 -128.5t-126 -84t-163.5 -30q-86 0 -162 32.5t-132.5 89t-89 132.5t-32.5 162t32.5 162t89 132.5t132.5 89t162 32.5q85 0 154.5 -28.5t123.5 -79.5l-119 -120q-65 62 -159 62q-51 0 -96 -20t-78 -54t-52.5 -79.5
t-19.5 -96.5t19.5 -96.5t52.5 -80t78 -54.5t96 -20q46 0 84 12.5t67 34.5t47.5 52.5t25.5 66.5h-224v161h392z" />
    <glyph glyph-name="one.numerator" horiz-adv-x="217" 
d="M117 350v321l-77 -37l-13 29l112 53h10v-366h-32z" />
    <glyph glyph-name="two.numerator" horiz-adv-x="287" 
d="M28 350v30q35 34 64 63q25 24 47 46q21 22 26 27q15 16 26 28.5t18 23.5t10.5 23.5t3.5 28.5q0 29 -20.5 51.5t-57.5 22.5q-32 0 -56 -17.5t-35 -59.5l-27 12q11 45 42.5 70t71.5 25q48 0 80.5 -28.5t32.5 -75.5q0 -39 -17.5 -64.5t-34.5 -42.5l-133 -133h187v-30h-228z
" />
    <glyph glyph-name="three.numerator" horiz-adv-x="314" 
d="M155 342q-19 0 -39 5.5t-37.5 17t-31.5 29.5t-20 44l27 11q24 -77 102 -77q42 0 66 22.5t24 57.5q0 38 -27.5 55.5t-63.5 17.5h-34v30h28q31 0 57 18t26 52q0 32 -22.5 50.5t-54.5 18.5q-35 0 -54.5 -16.5t-28.5 -41.5l-28 12q13 36 42.5 56t66.5 20q52 0 81.5 -28.5
t29.5 -68.5q0 -30 -18 -51.5t-37 -30.5q27 -11 48 -32.5t21 -56.5q0 -26 -9.5 -47t-26 -36t-39 -23t-48.5 -8z" />
    <glyph glyph-name="four.numerator" horiz-adv-x="323" 
d="M31 455l186 261h20v-249h55v-30h-55v-87h-32v87h-174v18zM205 467v177h-4l-125 -177h129z" />
    <glyph glyph-name="r.alt" horiz-adv-x="295" 
d="M268 468q-12 2 -22 3t-21 1q-26 0 -48.5 -14.5t-40 -40t-27.5 -60.5t-10 -77v-280h-36v490h32v-87h4q17 45 50 73t80 28q19 0 39 -4v-32z" />
    <glyph glyph-name="uni03BC" 
d="M91 62l4 -89v-189h-36v706h36v-298q0 -81 38 -128.5t106 -47.5q40 0 74.5 18.5t60 49.5t40.5 72.5t15 87.5v246h36v-490h-32v116h-4q-14 -27 -32.5 -51t-42.5 -42t-55 -28.5t-68 -10.5q-45 0 -81 23.5t-55 54.5h-4z" />
    <glyph glyph-name="uni2103" horiz-adv-x="969" 
d="M882 557q-43 55 -99.5 82t-119.5 27q-62 0 -116.5 -24t-95.5 -67.5t-64.5 -103t-23.5 -129.5t24.5 -129.5t67 -102.5t99 -67.5t120.5 -24.5q72 0 127.5 26.5t102.5 83.5l24 -24q-45 -57 -112 -88.5t-142 -31.5t-138.5 28.5t-110 77t-72.5 113.5t-26 139q0 73 25 138.5
t70 114t106.5 77t134.5 28.5q85 0 145.5 -34.5t98.5 -82.5zM163 442q-27 0 -50 9.5t-40 27t-27 41t-10 51.5t10 51.5t27 40.5t40 27t50 10t50 -10t40 -27t27 -40.5t10 -51.5t-10 -51.5t-27 -41t-40 -27t-50 -9.5zM163 472q42 0 68.5 28.5t26.5 70.5t-26.5 70.5t-68.5 28.5
t-68.5 -28.5t-26.5 -70.5t26.5 -70.5t68.5 -28.5z" />
    <glyph glyph-name="uni2109" horiz-adv-x="808" 
d="M395 684h377v-34h-341v-299h309v-34h-309v-317h-36v684zM163 442q-27 0 -50 9.5t-40 27t-27 41t-10 51.5t10 51.5t27 40.5t40 27t50 10t50 -10t40 -27t27 -40.5t10 -51.5t-10 -51.5t-27 -41t-40 -27t-50 -9.5zM163 472q42 0 68.5 28.5t26.5 70.5t-26.5 70.5t-68.5 28.5
t-68.5 -28.5t-26.5 -70.5t26.5 -70.5t68.5 -28.5z" />
    <glyph glyph-name="uni2190" horiz-adv-x="1049" 
d="M164 294v-94l-110 110l110 110v-94h822v-32h-822z" />
    <glyph glyph-name="uni2191" horiz-adv-x="310" 
d="M139 687h-94l110 110l110 -110h-94v-784h-32v784z" />
    <glyph glyph-name="uni2192" horiz-adv-x="1049" 
d="M63 294v32h822v94l110 -110l-110 -110v94h-822z" />
    <glyph glyph-name="uni2193" horiz-adv-x="310" 
d="M139 769h32v-784h94l-110 -110l-110 110h94v784z" />
    <glyph glyph-name="uni2196" horiz-adv-x="723" 
d="M111 604l-66 -66v155h155l-66 -66l584 -585l-22 -22z" />
    <glyph glyph-name="uni2197" horiz-adv-x="723" 
d="M27 20l-22 22l584 585l-66 66h155v-155l-66 66z" />
    <glyph glyph-name="uni2198" horiz-adv-x="723" 
d="M696 693l22 -22l-584 -585l66 -66h-155v155l66 -66z" />
    <glyph glyph-name="uni2199" horiz-adv-x="723" 
d="M612 109l66 66v-155h-155l66 66l-584 585l22 22z" />
    <glyph glyph-name="uni2639" horiz-adv-x="848" 
d="M293 412q-17 0 -28 11t-11 28t11 28t28 11t28 -11t11 -28t-11 -28t-28 -11zM246 180q23 52 69.5 81.5t108.5 29.5t108.5 -29.5t69.5 -81.5l-32 -14q-20 43 -56.5 67t-89.5 24t-89.5 -24t-56.5 -67zM424 -16q-77 0 -145 29.5t-119 80.5t-80.5 119t-29.5 145t29.5 145
t80.5 119t119 80.5t145 29.5t145 -29.5t119 -80.5t80.5 -119t29.5 -145t-29.5 -145t-80.5 -119t-119 -80.5t-145 -29.5zM424 18q71 0 133 27t108 73.5t72.5 108t26.5 131.5t-26.5 131.5t-72.5 108t-108 73.5t-133 27t-133 -27t-108 -73.5t-72.5 -108t-26.5 -131.5
t26.5 -131.5t72.5 -108t108 -73.5t133 -27zM555 412q-17 0 -28 11t-11 28t11 28t28 11t28 -11t11 -28t-11 -28t-28 -11z" />
    <glyph glyph-name="uni263A" horiz-adv-x="848" 
d="M293 412q-17 0 -28 11t-11 28t11 28t28 11t28 -11t11 -28t-11 -28t-28 -11zM278 287q20 -43 56.5 -67t89.5 -24t89.5 24t56.5 67l32 -14q-23 -52 -69.5 -81.5t-108.5 -29.5t-108.5 29.5t-69.5 81.5zM424 -16q-77 0 -145 29.5t-119 80.5t-80.5 119t-29.5 145t29.5 145
t80.5 119t119 80.5t145 29.5t145 -29.5t119 -80.5t80.5 -119t29.5 -145t-29.5 -145t-80.5 -119t-119 -80.5t-145 -29.5zM424 18q71 0 133 27t108 73.5t72.5 108t26.5 131.5t-26.5 131.5t-72.5 108t-108 73.5t-133 27t-133 -27t-108 -73.5t-72.5 -108t-26.5 -131.5
t26.5 -131.5t72.5 -108t108 -73.5t133 -27zM555 412q-17 0 -28 11t-11 28t11 28t28 11t28 -11t11 -28t-11 -28t-28 -11z" />
    <glyph glyph-name="uni2780" horiz-adv-x="848" 
d="M424 -16q-77 0 -145 29.5t-119 80.5t-80.5 119t-29.5 145t29.5 145t80.5 119t119 80.5t145 29.5t145 -29.5t119 -80.5t80.5 -119t29.5 -145t-29.5 -145t-80.5 -119t-119 -80.5t-145 -29.5zM424 18q71 0 133 27t108 73.5t72.5 108t26.5 131.5t-26.5 131.5t-72.5 108
t-108 73.5t-133 27t-133 -27t-108 -73.5t-72.5 -108t-26.5 -131.5t26.5 -131.5t72.5 -108t108 -73.5t133 -27zM425 177v321l-77 -37l-13 29l112 53h10v-366h-32z" />
    <glyph glyph-name="uni2781" horiz-adv-x="848" 
d="M424 -16q-77 0 -145 29.5t-119 80.5t-80.5 119t-29.5 145t29.5 145t80.5 119t119 80.5t145 29.5t145 -29.5t119 -80.5t80.5 -119t29.5 -145t-29.5 -145t-80.5 -119t-119 -80.5t-145 -29.5zM424 18q71 0 133 27t108 73.5t72.5 108t26.5 131.5t-26.5 131.5t-72.5 108
t-108 73.5t-133 27t-133 -27t-108 -73.5t-72.5 -108t-26.5 -131.5t26.5 -131.5t72.5 -108t108 -73.5t133 -27zM310 177v30q35 34 64 63q25 24 47 46q21 22 26 27q15 16 26 28.5t18 23.5t10.5 23.5t3.5 28.5q0 29 -20.5 51.5t-57.5 22.5q-32 0 -56 -17.5t-35 -59.5l-27 12
q11 45 42.5 70t71.5 25q48 0 80.5 -28.5t32.5 -75.5q0 -39 -17.5 -64.5t-34.5 -42.5l-133 -133h187v-30h-228z" />
    <glyph glyph-name="uni2782" horiz-adv-x="848" 
d="M424 -16q-77 0 -145 29.5t-119 80.5t-80.5 119t-29.5 145t29.5 145t80.5 119t119 80.5t145 29.5t145 -29.5t119 -80.5t80.5 -119t29.5 -145t-29.5 -145t-80.5 -119t-119 -80.5t-145 -29.5zM424 18q71 0 133 27t108 73.5t72.5 108t26.5 131.5t-26.5 131.5t-72.5 108
t-108 73.5t-133 27t-133 -27t-108 -73.5t-72.5 -108t-26.5 -131.5t26.5 -131.5t72.5 -108t108 -73.5t133 -27zM423 169q-19 0 -39 5.5t-37.5 17t-31.5 29.5t-20 44l27 11q24 -77 102 -77q42 0 66 22.5t24 57.5q0 38 -27.5 55.5t-63.5 17.5h-34v30h28q31 0 57 18t26 52
q0 32 -22.5 50.5t-54.5 18.5q-35 0 -54.5 -16.5t-28.5 -41.5l-28 12q13 36 42.5 56t66.5 20q52 0 81.5 -28.5t29.5 -68.5q0 -30 -18 -51.5t-37 -30.5q27 -11 48 -32.5t21 -56.5q0 -26 -9.5 -47t-26 -36t-39 -23t-48.5 -8z" />
    <glyph glyph-name="uni2783" horiz-adv-x="848" 
d="M424 -16q-77 0 -145 29.5t-119 80.5t-80.5 119t-29.5 145t29.5 145t80.5 119t119 80.5t145 29.5t145 -29.5t119 -80.5t80.5 -119t29.5 -145t-29.5 -145t-80.5 -119t-119 -80.5t-145 -29.5zM424 18q71 0 133 27t108 73.5t72.5 108t26.5 131.5t-26.5 131.5t-72.5 108
t-108 73.5t-133 27t-133 -27t-108 -73.5t-72.5 -108t-26.5 -131.5t26.5 -131.5t72.5 -108t108 -73.5t133 -27zM274 282l186 261h20v-249h55v-30h-55v-87h-32v87h-174v18zM448 294v177h-4l-125 -177h129z" />
    <glyph glyph-name="uni2784" horiz-adv-x="848" 
d="M424 -16q-77 0 -145 29.5t-119 80.5t-80.5 119t-29.5 145t29.5 145t80.5 119t119 80.5t145 29.5t145 -29.5t119 -80.5t80.5 -119t29.5 -145t-29.5 -145t-80.5 -119t-119 -80.5t-145 -29.5zM424 18q71 0 133 27t108 73.5t72.5 108t26.5 131.5t-26.5 131.5t-72.5 108
t-108 73.5t-133 27t-133 -27t-108 -73.5t-72.5 -108t-26.5 -131.5t26.5 -131.5t72.5 -108t108 -73.5t133 -27zM330 273q18 -74 97 -74q40 0 66 26.5t26 71.5t-27 71t-67 26q-49 0 -88 -52l-25 11l25 189h193v-30h-166l-17 -121q14 12 35 21t48 9q54 0 87.5 -34.5t33.5 -90.5
q0 -29 -9.5 -52t-26.5 -40t-39.5 -26t-49.5 -9q-41 0 -77 20.5t-50 70.5z" />
    <glyph glyph-name="uni2785" horiz-adv-x="848" 
d="M424 -16q-77 0 -145 29.5t-119 80.5t-80.5 119t-29.5 145t29.5 145t80.5 119t119 80.5t145 29.5t145 -29.5t119 -80.5t80.5 -119t29.5 -145t-29.5 -145t-80.5 -119t-119 -80.5t-145 -29.5zM424 18q71 0 133 27t108 73.5t72.5 108t26.5 131.5t-26.5 131.5t-72.5 108
t-108 73.5t-133 27t-133 -27t-108 -73.5t-72.5 -108t-26.5 -131.5t26.5 -131.5t72.5 -108t108 -73.5t133 -27zM420 169q-28 0 -51 10t-40 27t-26.5 39.5t-9.5 48.5q0 31 12.5 59t32.5 56q9 13 27 38l36 50q21 29 45 62l26 -19l-107 -139q11 8 27.5 13t34.5 5q26 0 48 -10.5
t38 -27.5t25 -40t9 -47q0 -26 -10 -48.5t-27.5 -39.5t-40.5 -27t-49 -10zM419 199q43 0 69.5 27t26.5 68q0 40 -26.5 67.5t-69.5 27.5q-42 0 -68 -27.5t-26 -67.5q0 -19 6.5 -36.5t19 -30.5t30 -20.5t38.5 -7.5z" />
    <glyph glyph-name="uni2786" horiz-adv-x="848" 
d="M424 -16q-77 0 -145 29.5t-119 80.5t-80.5 119t-29.5 145t29.5 145t80.5 119t119 80.5t145 29.5t145 -29.5t119 -80.5t80.5 -119t29.5 -145t-29.5 -145t-80.5 -119t-119 -80.5t-145 -29.5zM424 18q71 0 133 27t108 73.5t72.5 108t26.5 131.5t-26.5 131.5t-72.5 108
t-108 73.5t-133 27t-133 -27t-108 -73.5t-72.5 -108t-26.5 -131.5t26.5 -131.5t72.5 -108t108 -73.5t133 -27zM344 177l170 336h-197v30h232v-26l-178 -355z" />
    <glyph glyph-name="uni2787" horiz-adv-x="848" 
d="M424 -16q-77 0 -145 29.5t-119 80.5t-80.5 119t-29.5 145t29.5 145t80.5 119t119 80.5t145 29.5t145 -29.5t119 -80.5t80.5 -119t29.5 -145t-29.5 -145t-80.5 -119t-119 -80.5t-145 -29.5zM424 18q71 0 133 27t108 73.5t72.5 108t26.5 131.5t-26.5 131.5t-72.5 108
t-108 73.5t-133 27t-133 -27t-108 -73.5t-72.5 -108t-26.5 -131.5t26.5 -131.5t72.5 -108t108 -73.5t133 -27zM424 169q-25 0 -48 7.5t-40.5 22t-28 34.5t-10.5 45q0 29 17.5 53.5t50.5 38.5q-22 10 -39 31.5t-17 47.5q0 22 9 41t25 32.5t36.5 21t44.5 7.5q48 0 81.5 -28.5
t33.5 -73.5q0 -26 -17 -48t-39 -31q33 -14 50.5 -38.5t17.5 -53.5q0 -25 -10.5 -45t-28 -34.5t-40.5 -22t-48 -7.5zM424 383q37 0 60 19.5t23 49.5q0 29 -22 49t-61 20t-61 -20t-22 -49q0 -32 23 -50.5t60 -18.5zM424 199q17 0 34 5.5t30.5 16t22 25t8.5 33.5
q0 17 -8.5 31.5t-22 25t-30.5 16t-34 5.5t-34 -5.5t-30.5 -16t-22 -24.5t-8.5 -32q0 -19 8 -33.5t21.5 -25t30.5 -16t35 -5.5z" />
    <glyph glyph-name="uni2788" horiz-adv-x="848" 
d="M424 -16q-77 0 -145 29.5t-119 80.5t-80.5 119t-29.5 145t29.5 145t80.5 119t119 80.5t145 29.5t145 -29.5t119 -80.5t80.5 -119t29.5 -145t-29.5 -145t-80.5 -119t-119 -80.5t-145 -29.5zM424 18q71 0 133 27t108 73.5t72.5 108t26.5 131.5t-26.5 131.5t-72.5 108
t-108 73.5t-133 27t-133 -27t-108 -73.5t-72.5 -108t-26.5 -131.5t26.5 -131.5t72.5 -108t108 -73.5t133 -27zM421 551q28 0 51 -10t40 -27t26.5 -39.5t9.5 -48.5q0 -31 -12.5 -59t-32.5 -56l-27.5 -38.5t-35.5 -49.5q-21 -29 -45 -62l-26 19l107 139q-11 -8 -27.5 -13
t-34.5 -5q-26 0 -48 10.5t-38 27.5t-25 40t-9 47q0 26 10 48.5t27 39.5t40.5 27t49.5 10zM422 521q-43 0 -69.5 -27t-26.5 -68q0 -40 26.5 -67.5t69.5 -27.5q42 0 68 27.5t26 67.5q0 19 -6.5 36.5t-19 30.5t-30 20.5t-38.5 7.5z" />
    <glyph glyph-name="uni278A" horiz-adv-x="848" 
d="M424 -16q-77 0 -145 29.5t-119 80.5t-80.5 119t-29.5 145t29.5 145t80.5 119t119 80.5t145 29.5t145 -29.5t119 -80.5t80.5 -119t29.5 -145t-29.5 -145t-80.5 -119t-119 -80.5t-145 -29.5zM457 177v366h-10l-112 -53l13 -29l77 37v-321h32z" />
    <glyph glyph-name="uni278B" horiz-adv-x="848" 
d="M424 -16q-77 0 -145 29.5t-119 80.5t-80.5 119t-29.5 145t29.5 145t80.5 119t119 80.5t145 29.5t145 -29.5t119 -80.5t80.5 -119t29.5 -145t-29.5 -145t-80.5 -119t-119 -80.5t-145 -29.5zM538 177v30h-187l133 133q17 17 34.5 42.5t17.5 64.5q0 47 -32.5 75.5
t-80.5 28.5q-40 0 -71.5 -25t-42.5 -70l27 -12q11 42 35 59.5t56 17.5q37 0 57.5 -22.5t20.5 -51.5q0 -16 -3.5 -28.5t-10.5 -23.5t-18 -23.5t-26 -28.5q-5 -5 -26 -27q-22 -22 -47 -46q-29 -29 -64 -63v-30h228z" />
    <glyph glyph-name="uni278C" horiz-adv-x="848" 
d="M424 -16q-77 0 -145 29.5t-119 80.5t-80.5 119t-29.5 145t29.5 145t80.5 119t119 80.5t145 29.5t145 -29.5t119 -80.5t80.5 -119t29.5 -145t-29.5 -145t-80.5 -119t-119 -80.5t-145 -29.5zM295 265q6 -26 20 -44t31.5 -29.5t37.5 -17t39 -5.5q26 0 48.5 8t39 23t26 36
t9.5 47q0 35 -21 56.5t-48 32.5q19 9 37 30.5t18 51.5q0 40 -29.5 68.5t-81.5 28.5q-37 0 -66.5 -20t-42.5 -56l28 -12q9 25 28.5 41.5t54.5 16.5q32 0 54.5 -18.5t22.5 -50.5q0 -34 -26 -52t-57 -18h-28v-30h34q36 0 63.5 -17.5t27.5 -55.5q0 -35 -24 -57.5t-66 -22.5
q-78 0 -102 77z" />
    <glyph glyph-name="uni278D" horiz-adv-x="848" 
d="M424 -16q-77 0 -145 29.5t-119 80.5t-80.5 119t-29.5 145t29.5 145t80.5 119t119 80.5t145 29.5t145 -29.5t119 -80.5t80.5 -119t29.5 -145t-29.5 -145t-80.5 -119t-119 -80.5t-145 -29.5zM448 264v-87h32v87h55v30h-55v249h-20l-186 -261v-18h174zM444 471h4v-177h-129z
" />
    <glyph glyph-name="uni278E" horiz-adv-x="848" 
d="M424 -16q-77 0 -145 29.5t-119 80.5t-80.5 119t-29.5 145t29.5 145t80.5 119t119 80.5t145 29.5t145 -29.5t119 -80.5t80.5 -119t29.5 -145t-29.5 -145t-80.5 -119t-119 -80.5t-145 -29.5zM426 169q27 0 49.5 9t39.5 26t26.5 40t9.5 52q0 56 -33.5 90.5t-87.5 34.5
q-27 0 -48 -9t-35 -21l17 121h166v30h-193l-25 -189l25 -11q39 52 88 52q40 0 67 -26t27 -71t-26 -71.5t-66 -26.5q-79 0 -97 74l-31 -13q14 -50 50 -70.5t77 -20.5z" />
    <glyph glyph-name="uni278F" horiz-adv-x="848" 
d="M424 -16q-77 0 -145 29.5t-119 80.5t-80.5 119t-29.5 145t29.5 145t80.5 119t119 80.5t145 29.5t145 -29.5t119 -80.5t80.5 -119t29.5 -145t-29.5 -145t-80.5 -119t-119 -80.5t-145 -29.5zM420 169q26 0 49 10t40.5 27t27.5 39.5t10 48.5q0 24 -9 47t-25 40t-38 27.5
t-48 10.5q-18 0 -34.5 -5t-27.5 -13l107 139l-26 19q-24 -33 -45 -62l-36 -50t-27 -38q-20 -28 -32.5 -56t-12.5 -59q0 -26 9.5 -48.5t26.5 -39.5t40 -27t51 -10zM419 199q-21 0 -38.5 7.5t-30 20.5t-19 30.5t-6.5 36.5q0 40 26 67.5t68 27.5q43 0 69.5 -27.5t26.5 -67.5
q0 -41 -26.5 -68t-69.5 -27z" />
    <glyph glyph-name="uni2790" horiz-adv-x="848" 
d="M424 -16q-77 0 -145 29.5t-119 80.5t-80.5 119t-29.5 145t29.5 145t80.5 119t119 80.5t145 29.5t145 -29.5t119 -80.5t80.5 -119t29.5 -145t-29.5 -145t-80.5 -119t-119 -80.5t-145 -29.5zM371 162l178 355v26h-232v-30h197l-170 -336z" />
    <glyph glyph-name="uni2791" horiz-adv-x="848" 
d="M424 -16q-77 0 -145 29.5t-119 80.5t-80.5 119t-29.5 145t29.5 145t80.5 119t119 80.5t145 29.5t145 -29.5t119 -80.5t80.5 -119t29.5 -145t-29.5 -145t-80.5 -119t-119 -80.5t-145 -29.5zM424 169q25 0 48 7.5t40.5 22t28 34.5t10.5 45q0 29 -17.5 53.5t-50.5 38.5
q22 9 39 31t17 48q0 45 -33.5 73.5t-81.5 28.5q-24 0 -44.5 -7.5t-36.5 -21t-25 -32.5t-9 -41q0 -26 17 -47.5t39 -31.5q-33 -14 -50.5 -38.5t-17.5 -53.5q0 -25 10.5 -45t28 -34.5t40.5 -22t48 -7.5zM424 383q-37 0 -60 18.5t-23 50.5q0 29 22 49t61 20t61 -20t22 -49
q0 -30 -23 -49.5t-60 -19.5zM424 199q-18 0 -35 5.5t-30.5 16t-21.5 25t-8 33.5q0 18 8.5 32t22 24.5t30.5 16t34 5.5t34 -5.5t30.5 -16t22 -25t8.5 -31.5q0 -19 -8.5 -33.5t-22 -25t-30.5 -16t-34 -5.5z" />
    <glyph glyph-name="uni2792" horiz-adv-x="848" 
d="M424 -16q-77 0 -145 29.5t-119 80.5t-80.5 119t-29.5 145t29.5 145t80.5 119t119 80.5t145 29.5t145 -29.5t119 -80.5t80.5 -119t29.5 -145t-29.5 -145t-80.5 -119t-119 -80.5t-145 -29.5zM421 551q-26 0 -49.5 -10t-40.5 -27t-27 -39.5t-10 -48.5q0 -24 9 -47t25 -40
t38 -27.5t48 -10.5q18 0 34.5 5t27.5 13l-107 -139l26 -19q24 33 45 62q18 25 35.5 49.5l27.5 38.5q20 28 32.5 56t12.5 59q0 26 -9.5 48.5t-26.5 39.5t-40 27t-51 10zM422 521q21 0 38.5 -7.5t30 -20.5t19 -30.5t6.5 -36.5q0 -40 -26 -67.5t-68 -27.5q-43 0 -69.5 27.5
t-26.5 67.5q0 41 26.5 68t69.5 27z" />
    <glyph glyph-name="Google.logo" horiz-adv-x="3284" 
d="M460 -16q-85 0 -160.5 32.5t-132.5 88t-90 130t-33 159.5t33 159.5t90 130t132.5 88t160.5 32.5q94 0 162.5 -32.5t118.5 -80.5l-79 -79q-36 34 -85.5 57t-116.5 23q-62 0 -115.5 -23.5t-93.5 -64t-62.5 -94.5t-22.5 -116t22.5 -116t62.5 -94.5t93.5 -64t115.5 -23.5
q40 0 72 7.5t57 19t44 26t34 29.5q49 49 61 141h-268v112h377q6 -30 6 -70q0 -32 -5 -66t-16 -68.5t-29.5 -67t-46.5 -60.5q-54 -57 -124 -86t-162 -29zM1148 -16q-55 0 -103 20t-84 55t-57 83.5t-21 105.5t21 105.5t57 84t84 55t103 19.5t103 -19.5t84 -55t57 -84
t21 -105.5t-21 -105.5t-57 -83.5t-84 -55t-103 -20zM1148 88q30 0 57 12t47.5 33t32.5 50.5t12 64.5q0 36 -12 65.5t-32.5 50.5t-47.5 32.5t-57 11.5t-57 -11.5t-47.5 -32.5t-32.5 -50.5t-12 -65.5q0 -35 12 -64.5t32.5 -50.5t47.5 -33t57 -12zM1726 -16q-55 0 -103 20
t-84 55t-57 83.5t-21 105.5t21 105.5t57 84t84 55t103 19.5t103 -19.5t84 -55t57 -84t21 -105.5t-21 -105.5t-57 -83.5t-84 -55t-103 -20zM1726 88q30 0 57 12t47.5 33t32.5 50.5t12 64.5q0 36 -12 65.5t-32.5 50.5t-47.5 32.5t-57 11.5t-57 -11.5t-47.5 -32.5t-32.5 -50.5
t-12 -65.5q0 -35 12 -64.5t32.5 -50.5t47.5 -33t57 -12zM2294 -253q-48 0 -86.5 14.5t-67.5 37t-49 50.5t-31 54l101 42q7 -16 18.5 -33t28 -30.5t38 -22t48.5 -8.5q66 0 103.5 39.5t37.5 115.5v38h-4q-20 -24 -55.5 -42t-83.5 -18q-50 0 -95.5 20.5t-80.5 55.5t-56 83
t-21 104t21 104.5t56 84t80.5 56t95.5 20.5q48 0 83.5 -18t55.5 -41h4v43h110v-474q0 -73 -20 -125t-54.5 -85.5t-80 -49t-96.5 -15.5zM2302 88q30 0 55.5 12t44.5 33t30 50t11 64t-11 64.5t-30 51t-44.5 33.5t-55.5 12t-56.5 -12t-47 -33.5t-32 -51t-11.5 -64.5t11.5 -64
t32 -50t47 -33t56.5 -12zM2741 0h-116v776h116v-776zM3059 -16q-56 0 -104 20.5t-83 56t-55 83.5t-20 104q0 59 20 107.5t53.5 83.5t79 54t96.5 19t90 -18t66.5 -44t44.5 -55t25 -51l12 -30l-353 -146q41 -80 128 -80q45 0 76 20t54 53l90 -60q-11 -16 -29.5 -36.5
t-46 -38.5t-63.5 -30t-81 -12zM3148 354q-10 25 -36.5 40.5t-61.5 15.5q-22 0 -47 -9.5t-45.5 -29t-33.5 -48.5t-12 -67z" />
    <glyph glyph-name="G.logo" horiz-adv-x="861" 
d="M460 -16q-85 0 -160.5 32.5t-132.5 88t-90 130t-33 159.5t33 159.5t90 130t132.5 88t160.5 32.5q94 0 162.5 -32.5t118.5 -80.5l-79 -79q-36 34 -85.5 57t-116.5 23q-62 0 -115.5 -23.5t-93.5 -64t-62.5 -94.5t-22.5 -116t22.5 -116t62.5 -94.5t93.5 -64t115.5 -23.5
q40 0 72 7.5t57 19t44 26t34 29.5q49 49 61 141h-268v112h377q6 -30 6 -70q0 -32 -5 -66t-16 -68.5t-29.5 -67t-46.5 -60.5q-54 -57 -124 -86t-162 -29z" />
    <glyph glyph-name="o.logo" horiz-adv-x="578" 
d="M287 -16q-55 0 -103 20t-84 55t-57 83.5t-21 105.5t21 105.5t57 84t84 55t103 19.5t103 -19.5t84 -55t57 -84t21 -105.5t-21 -105.5t-57 -83.5t-84 -55t-103 -20zM287 88q30 0 57 12t47.5 33t32.5 50.5t12 64.5q0 36 -12 65.5t-32.5 50.5t-47.5 32.5t-57 11.5t-57 -11.5
t-47.5 -32.5t-32.5 -50.5t-12 -65.5q0 -35 12 -64.5t32.5 -50.5t47.5 -33t57 -12z" />
    </font>
</defs>
</svg>
